%MOIN*%
%OFA0B0*%
%FSLAX46Y46*%
%IPPOS*%
%LPD*%
%ADD10R,0.19685039370078741X0.19685039370078741*%
%ADD11R,0.07874015748031496X0.035433070866141732*%
%ADD12R,0.035433070866141732X0.07874015748031496*%
%ADD23R,0.19685039370078741X0.19685039370078741*%
%ADD24R,0.07874015748031496X0.035433070866141732*%
%ADD25R,0.035433070866141732X0.07874015748031496*%
%ADD26R,0.19685039370078741X0.19685039370078741*%
%ADD27R,0.07874015748031496X0.035433070866141732*%
%ADD28R,0.035433070866141732X0.07874015748031496*%
%ADD29R,0.19685039370078741X0.19685039370078741*%
%ADD30R,0.07874015748031496X0.035433070866141732*%
%ADD31R,0.035433070866141732X0.07874015748031496*%
%ADD32R,0.19685039370078741X0.19685039370078741*%
%ADD33R,0.07874015748031496X0.035433070866141732*%
%ADD34R,0.035433070866141732X0.07874015748031496*%
%ADD35R,0.19685039370078741X0.19685039370078741*%
%ADD36R,0.07874015748031496X0.035433070866141732*%
%ADD37R,0.035433070866141732X0.07874015748031496*%
%ADD38R,0.19685039370078741X0.19685039370078741*%
%ADD39R,0.07874015748031496X0.035433070866141732*%
%ADD40R,0.035433070866141732X0.07874015748031496*%
%ADD41R,0.19685039370078741X0.19685039370078741*%
%ADD42R,0.07874015748031496X0.035433070866141732*%
%ADD43R,0.035433070866141732X0.07874015748031496*%
%ADD44R,0.19685039370078741X0.19685039370078741*%
%ADD45R,0.07874015748031496X0.035433070866141732*%
%ADD46R,0.035433070866141732X0.07874015748031496*%
%ADD47R,0.19685039370078741X0.19685039370078741*%
%ADD48R,0.07874015748031496X0.035433070866141732*%
%ADD49R,0.035433070866141732X0.07874015748031496*%
%ADD50R,0.19685039370078741X0.19685039370078741*%
%ADD51R,0.07874015748031496X0.035433070866141732*%
%ADD52R,0.035433070866141732X0.07874015748031496*%
%ADD53R,0.19685039370078741X0.19685039370078741*%
%ADD54R,0.07874015748031496X0.035433070866141732*%
%ADD55R,0.035433070866141732X0.07874015748031496*%
G01*
D10*
X-0003937007Y0005905511D02*
X0000354330Y0000541535D03*
D11*
X0000059055Y0000836810D03*
X0000059055Y0000786811D03*
X0000059055Y0000736811D03*
X0000059055Y0000686810D03*
X0000059055Y0000636811D03*
X0000059055Y0000586811D03*
X0000059055Y0000536810D03*
X0000059055Y0000486811D03*
X0000059055Y0000436810D03*
X0000059055Y0000386810D03*
X0000059055Y0000336811D03*
X0000059055Y0000286810D03*
X0000059055Y0000236810D03*
X0000059055Y0000186811D03*
D12*
X0000168700Y0000147440D03*
X0000218700Y0000147440D03*
X0000268700Y0000147440D03*
X0000318700Y0000147440D03*
X0000368700Y0000147440D03*
X0000418700Y0000147440D03*
X0000468700Y0000147440D03*
X0000518700Y0000147440D03*
X0000568700Y0000147440D03*
X0000618700Y0000147440D03*
D11*
X0000728346Y0000186811D03*
X0000728346Y0000236810D03*
X0000728346Y0000286810D03*
X0000728346Y0000336811D03*
X0000728346Y0000386810D03*
X0000728346Y0000436810D03*
X0000728346Y0000486811D03*
X0000728346Y0000536810D03*
X0000728346Y0000586811D03*
X0000728346Y0000636811D03*
X0000728346Y0000686810D03*
X0000728346Y0000736811D03*
X0000728346Y0000786811D03*
X0000728346Y0000836810D03*
G04 next file*
G04 #@! TF.GenerationSoftware,KiCad,Pcbnew,(5.1.10)-1*
G04 #@! TF.CreationDate,2021-06-29T15:19:49+09:00*
G04 #@! TF.ProjectId,BLE_PPG_v1.1,424c455f-5050-4475-9f76-312e312e6b69,rev?*
G04 #@! TF.SameCoordinates,Original*
G04 #@! TF.FileFunction,Soldermask,Top*
G04 #@! TF.FilePolarity,Negative*
G04 Gerber Fmt 4.6, Leading zero omitted, Abs format (unit mm)*
G04 Created by KiCad (PCBNEW (5.1.10)-1) date 2021-06-29 15:19:49*
G01*
G04 APERTURE LIST*
G04 APERTURE END LIST*
D23*
X-0002204724Y0007165354D02*
X0002086614Y0001801377D03*
D24*
X0001791338Y0002096653D03*
X0001791338Y0002046653D03*
X0001791338Y0001996653D03*
X0001791338Y0001946653D03*
X0001791338Y0001896653D03*
X0001791338Y0001846653D03*
X0001791338Y0001796653D03*
X0001791338Y0001746653D03*
X0001791338Y0001696653D03*
X0001791338Y0001646653D03*
X0001791338Y0001596653D03*
X0001791338Y0001546653D03*
X0001791338Y0001496653D03*
X0001791338Y0001446653D03*
D25*
X0001900984Y0001407283D03*
X0001950984Y0001407283D03*
X0002000984Y0001407283D03*
X0002050984Y0001407283D03*
X0002100984Y0001407283D03*
X0002150984Y0001407283D03*
X0002200984Y0001407283D03*
X0002250984Y0001407283D03*
X0002300984Y0001407283D03*
X0002350984Y0001407283D03*
D24*
X0002460629Y0001446653D03*
X0002460629Y0001496653D03*
X0002460629Y0001546653D03*
X0002460629Y0001596653D03*
X0002460629Y0001646653D03*
X0002460629Y0001696653D03*
X0002460629Y0001746653D03*
X0002460629Y0001796653D03*
X0002460629Y0001846653D03*
X0002460629Y0001896653D03*
X0002460629Y0001946653D03*
X0002460629Y0001996653D03*
X0002460629Y0002046653D03*
X0002460629Y0002096653D03*
G04 next file*
G04 #@! TF.GenerationSoftware,KiCad,Pcbnew,(5.1.10)-1*
G04 #@! TF.CreationDate,2021-06-29T14:50:17+09:00*
G04 #@! TF.ProjectId,ble_spo2_dgmif,626c655f-7370-46f3-925f-64676d69662e,rev?*
G04 #@! TF.SameCoordinates,Original*
G04 #@! TF.FileFunction,Soldermask,Top*
G04 #@! TF.FilePolarity,Negative*
G04 Gerber Fmt 4.6, Leading zero omitted, Abs format (unit mm)*
G04 Created by KiCad (PCBNEW (5.1.10)-1) date 2021-06-29 14:50:17*
G01*
G04 APERTURE LIST*
G04 APERTURE END LIST*
D26*
X-0003937007Y0007165354D02*
X0000354330Y0001801377D03*
D27*
X0000059055Y0002096653D03*
X0000059055Y0002046653D03*
X0000059055Y0001996653D03*
X0000059055Y0001946653D03*
X0000059055Y0001896653D03*
X0000059055Y0001846653D03*
X0000059055Y0001796653D03*
X0000059055Y0001746653D03*
X0000059055Y0001696653D03*
X0000059055Y0001646653D03*
X0000059055Y0001596653D03*
X0000059055Y0001546653D03*
X0000059055Y0001496653D03*
X0000059055Y0001446653D03*
D28*
X0000168700Y0001407283D03*
X0000218700Y0001407283D03*
X0000268700Y0001407283D03*
X0000318700Y0001407283D03*
X0000368700Y0001407283D03*
X0000418700Y0001407283D03*
X0000468700Y0001407283D03*
X0000518700Y0001407283D03*
X0000568700Y0001407283D03*
X0000618700Y0001407283D03*
D27*
X0000728346Y0001446653D03*
X0000728346Y0001496653D03*
X0000728346Y0001546653D03*
X0000728346Y0001596653D03*
X0000728346Y0001646653D03*
X0000728346Y0001696653D03*
X0000728346Y0001746653D03*
X0000728346Y0001796653D03*
X0000728346Y0001846653D03*
X0000728346Y0001896653D03*
X0000728346Y0001946653D03*
X0000728346Y0001996653D03*
X0000728346Y0002046653D03*
X0000728346Y0002096653D03*
G04 next file*
G04 #@! TF.GenerationSoftware,KiCad,Pcbnew,(5.1.10)-1*
G04 #@! TF.CreationDate,2021-06-29T14:50:17+09:00*
G04 #@! TF.ProjectId,ble_spo2_dgmif,626c655f-7370-46f3-925f-64676d69662e,rev?*
G04 #@! TF.SameCoordinates,Original*
G04 #@! TF.FileFunction,Soldermask,Top*
G04 #@! TF.FilePolarity,Negative*
G04 Gerber Fmt 4.6, Leading zero omitted, Abs format (unit mm)*
G04 Created by KiCad (PCBNEW (5.1.10)-1) date 2021-06-29 14:50:17*
G01*
G04 APERTURE LIST*
G04 APERTURE END LIST*
D29*
X-0003070866Y0005905511D02*
X0001220472Y0000541535D03*
D30*
X0000925196Y0000836810D03*
X0000925196Y0000786811D03*
X0000925196Y0000736811D03*
X0000925196Y0000686810D03*
X0000925196Y0000636811D03*
X0000925196Y0000586811D03*
X0000925196Y0000536810D03*
X0000925196Y0000486811D03*
X0000925196Y0000436810D03*
X0000925196Y0000386810D03*
X0000925196Y0000336811D03*
X0000925196Y0000286810D03*
X0000925196Y0000236810D03*
X0000925196Y0000186811D03*
D31*
X0001034842Y0000147440D03*
X0001084842Y0000147440D03*
X0001134842Y0000147440D03*
X0001184842Y0000147440D03*
X0001234842Y0000147440D03*
X0001284842Y0000147440D03*
X0001334842Y0000147440D03*
X0001384842Y0000147440D03*
X0001434842Y0000147440D03*
X0001484842Y0000147440D03*
D30*
X0001594488Y0000186811D03*
X0001594488Y0000236810D03*
X0001594488Y0000286810D03*
X0001594488Y0000336811D03*
X0001594488Y0000386810D03*
X0001594488Y0000436810D03*
X0001594488Y0000486811D03*
X0001594488Y0000536810D03*
X0001594488Y0000586811D03*
X0001594488Y0000636811D03*
X0001594488Y0000686810D03*
X0001594488Y0000736811D03*
X0001594488Y0000786811D03*
X0001594488Y0000836810D03*
G04 next file*
G04 #@! TF.GenerationSoftware,KiCad,Pcbnew,(5.1.10)-1*
G04 #@! TF.CreationDate,2021-06-29T15:19:49+09:00*
G04 #@! TF.ProjectId,BLE_PPG_v1.1,424c455f-5050-4475-9f76-312e312e6b69,rev?*
G04 #@! TF.SameCoordinates,Original*
G04 #@! TF.FileFunction,Soldermask,Top*
G04 #@! TF.FilePolarity,Negative*
G04 Gerber Fmt 4.6, Leading zero omitted, Abs format (unit mm)*
G04 Created by KiCad (PCBNEW (5.1.10)-1) date 2021-06-29 15:19:49*
G01*
G04 APERTURE LIST*
G04 APERTURE END LIST*
D32*
X-0002204724Y0005905511D02*
X0002086614Y0000541535D03*
D33*
X0001791338Y0000836810D03*
X0001791338Y0000786811D03*
X0001791338Y0000736811D03*
X0001791338Y0000686810D03*
X0001791338Y0000636811D03*
X0001791338Y0000586811D03*
X0001791338Y0000536810D03*
X0001791338Y0000486811D03*
X0001791338Y0000436810D03*
X0001791338Y0000386810D03*
X0001791338Y0000336811D03*
X0001791338Y0000286810D03*
X0001791338Y0000236810D03*
X0001791338Y0000186811D03*
D34*
X0001900984Y0000147440D03*
X0001950984Y0000147440D03*
X0002000984Y0000147440D03*
X0002050984Y0000147440D03*
X0002100984Y0000147440D03*
X0002150984Y0000147440D03*
X0002200984Y0000147440D03*
X0002250984Y0000147440D03*
X0002300984Y0000147440D03*
X0002350984Y0000147440D03*
D33*
X0002460629Y0000186811D03*
X0002460629Y0000236810D03*
X0002460629Y0000286810D03*
X0002460629Y0000336811D03*
X0002460629Y0000386810D03*
X0002460629Y0000436810D03*
X0002460629Y0000486811D03*
X0002460629Y0000536810D03*
X0002460629Y0000586811D03*
X0002460629Y0000636811D03*
X0002460629Y0000686810D03*
X0002460629Y0000736811D03*
X0002460629Y0000786811D03*
X0002460629Y0000836810D03*
G04 next file*
G04 #@! TF.GenerationSoftware,KiCad,Pcbnew,(5.1.10)-1*
G04 #@! TF.CreationDate,2021-06-29T15:19:49+09:00*
G04 #@! TF.ProjectId,BLE_PPG_v1.1,424c455f-5050-4475-9f76-312e312e6b69,rev?*
G04 #@! TF.SameCoordinates,Original*
G04 #@! TF.FileFunction,Soldermask,Top*
G04 #@! TF.FilePolarity,Negative*
G04 Gerber Fmt 4.6, Leading zero omitted, Abs format (unit mm)*
G04 Created by KiCad (PCBNEW (5.1.10)-1) date 2021-06-29 15:19:49*
G01*
G04 APERTURE LIST*
G04 APERTURE END LIST*
D35*
X-0001338582Y0005905511D02*
X0002952755Y0000541535D03*
D36*
X0002657480Y0000836810D03*
X0002657480Y0000786811D03*
X0002657480Y0000736811D03*
X0002657480Y0000686810D03*
X0002657480Y0000636811D03*
X0002657480Y0000586811D03*
X0002657480Y0000536810D03*
X0002657480Y0000486811D03*
X0002657480Y0000436810D03*
X0002657480Y0000386810D03*
X0002657480Y0000336811D03*
X0002657480Y0000286810D03*
X0002657480Y0000236810D03*
X0002657480Y0000186811D03*
D37*
X0002767125Y0000147440D03*
X0002817125Y0000147440D03*
X0002867125Y0000147440D03*
X0002917125Y0000147440D03*
X0002967125Y0000147440D03*
X0003017125Y0000147440D03*
X0003067125Y0000147440D03*
X0003117125Y0000147440D03*
X0003167125Y0000147440D03*
X0003217125Y0000147440D03*
D36*
X0003326771Y0000186811D03*
X0003326771Y0000236810D03*
X0003326771Y0000286810D03*
X0003326771Y0000336811D03*
X0003326771Y0000386810D03*
X0003326771Y0000436810D03*
X0003326771Y0000486811D03*
X0003326771Y0000536810D03*
X0003326771Y0000586811D03*
X0003326771Y0000636811D03*
X0003326771Y0000686810D03*
X0003326771Y0000736811D03*
X0003326771Y0000786811D03*
X0003326771Y0000836810D03*
G04 next file*
G04 #@! TF.GenerationSoftware,KiCad,Pcbnew,(5.1.10)-1*
G04 #@! TF.CreationDate,2021-06-29T14:50:17+09:00*
G04 #@! TF.ProjectId,ble_spo2_dgmif,626c655f-7370-46f3-925f-64676d69662e,rev?*
G04 #@! TF.SameCoordinates,Original*
G04 #@! TF.FileFunction,Soldermask,Top*
G04 #@! TF.FilePolarity,Negative*
G04 Gerber Fmt 4.6, Leading zero omitted, Abs format (unit mm)*
G04 Created by KiCad (PCBNEW (5.1.10)-1) date 2021-06-29 14:50:17*
G01*
G04 APERTURE LIST*
G04 APERTURE END LIST*
D38*
X-0003070866Y0007165354D02*
X0001220472Y0001801377D03*
D39*
X0000925196Y0002096653D03*
X0000925196Y0002046653D03*
X0000925196Y0001996653D03*
X0000925196Y0001946653D03*
X0000925196Y0001896653D03*
X0000925196Y0001846653D03*
X0000925196Y0001796653D03*
X0000925196Y0001746653D03*
X0000925196Y0001696653D03*
X0000925196Y0001646653D03*
X0000925196Y0001596653D03*
X0000925196Y0001546653D03*
X0000925196Y0001496653D03*
X0000925196Y0001446653D03*
D40*
X0001034842Y0001407283D03*
X0001084842Y0001407283D03*
X0001134842Y0001407283D03*
X0001184842Y0001407283D03*
X0001234842Y0001407283D03*
X0001284842Y0001407283D03*
X0001334842Y0001407283D03*
X0001384842Y0001407283D03*
X0001434842Y0001407283D03*
X0001484842Y0001407283D03*
D39*
X0001594488Y0001446653D03*
X0001594488Y0001496653D03*
X0001594488Y0001546653D03*
X0001594488Y0001596653D03*
X0001594488Y0001646653D03*
X0001594488Y0001696653D03*
X0001594488Y0001746653D03*
X0001594488Y0001796653D03*
X0001594488Y0001846653D03*
X0001594488Y0001896653D03*
X0001594488Y0001946653D03*
X0001594488Y0001996653D03*
X0001594488Y0002046653D03*
X0001594488Y0002096653D03*
G04 next file*
G04 #@! TF.GenerationSoftware,KiCad,Pcbnew,(5.1.10)-1*
G04 #@! TF.CreationDate,2021-06-29T15:19:49+09:00*
G04 #@! TF.ProjectId,BLE_PPG_v1.1,424c455f-5050-4475-9f76-312e312e6b69,rev?*
G04 #@! TF.SameCoordinates,Original*
G04 #@! TF.FileFunction,Soldermask,Top*
G04 #@! TF.FilePolarity,Negative*
G04 Gerber Fmt 4.6, Leading zero omitted, Abs format (unit mm)*
G04 Created by KiCad (PCBNEW (5.1.10)-1) date 2021-06-29 15:19:49*
G01*
G04 APERTURE LIST*
G04 APERTURE END LIST*
D41*
X-0001338582Y0007165354D02*
X0002952755Y0001801377D03*
D42*
X0002657480Y0002096653D03*
X0002657480Y0002046653D03*
X0002657480Y0001996653D03*
X0002657480Y0001946653D03*
X0002657480Y0001896653D03*
X0002657480Y0001846653D03*
X0002657480Y0001796653D03*
X0002657480Y0001746653D03*
X0002657480Y0001696653D03*
X0002657480Y0001646653D03*
X0002657480Y0001596653D03*
X0002657480Y0001546653D03*
X0002657480Y0001496653D03*
X0002657480Y0001446653D03*
D43*
X0002767125Y0001407283D03*
X0002817125Y0001407283D03*
X0002867125Y0001407283D03*
X0002917125Y0001407283D03*
X0002967125Y0001407283D03*
X0003017125Y0001407283D03*
X0003067125Y0001407283D03*
X0003117125Y0001407283D03*
X0003167125Y0001407283D03*
X0003217125Y0001407283D03*
D42*
X0003326771Y0001446653D03*
X0003326771Y0001496653D03*
X0003326771Y0001546653D03*
X0003326771Y0001596653D03*
X0003326771Y0001646653D03*
X0003326771Y0001696653D03*
X0003326771Y0001746653D03*
X0003326771Y0001796653D03*
X0003326771Y0001846653D03*
X0003326771Y0001896653D03*
X0003326771Y0001946653D03*
X0003326771Y0001996653D03*
X0003326771Y0002046653D03*
X0003326771Y0002096653D03*
G04 next file*
G04 #@! TF.GenerationSoftware,KiCad,Pcbnew,(5.1.10)-1*
G04 #@! TF.CreationDate,2021-06-29T14:50:17+09:00*
G04 #@! TF.ProjectId,ble_spo2_dgmif,626c655f-7370-46f3-925f-64676d69662e,rev?*
G04 #@! TF.SameCoordinates,Original*
G04 #@! TF.FileFunction,Soldermask,Top*
G04 #@! TF.FilePolarity,Negative*
G04 Gerber Fmt 4.6, Leading zero omitted, Abs format (unit mm)*
G04 Created by KiCad (PCBNEW (5.1.10)-1) date 2021-06-29 14:50:17*
G01*
G04 APERTURE LIST*
G04 APERTURE END LIST*
D44*
X-0003937007Y0008425196D02*
X0000354330Y0003061220D03*
D45*
X0000059055Y0003356496D03*
X0000059055Y0003306496D03*
X0000059055Y0003256496D03*
X0000059055Y0003206496D03*
X0000059055Y0003156496D03*
X0000059055Y0003106496D03*
X0000059055Y0003056496D03*
X0000059055Y0003006496D03*
X0000059055Y0002956496D03*
X0000059055Y0002906496D03*
X0000059055Y0002856496D03*
X0000059055Y0002806496D03*
X0000059055Y0002756496D03*
X0000059055Y0002706496D03*
D46*
X0000168700Y0002667125D03*
X0000218700Y0002667125D03*
X0000268700Y0002667125D03*
X0000318700Y0002667125D03*
X0000368700Y0002667125D03*
X0000418700Y0002667125D03*
X0000468700Y0002667125D03*
X0000518700Y0002667125D03*
X0000568700Y0002667125D03*
X0000618700Y0002667125D03*
D45*
X0000728346Y0002706496D03*
X0000728346Y0002756496D03*
X0000728346Y0002806496D03*
X0000728346Y0002856496D03*
X0000728346Y0002906496D03*
X0000728346Y0002956496D03*
X0000728346Y0003006496D03*
X0000728346Y0003056496D03*
X0000728346Y0003106496D03*
X0000728346Y0003156496D03*
X0000728346Y0003206496D03*
X0000728346Y0003256496D03*
X0000728346Y0003306496D03*
X0000728346Y0003356496D03*
G04 next file*
G04 #@! TF.GenerationSoftware,KiCad,Pcbnew,(5.1.10)-1*
G04 #@! TF.CreationDate,2021-06-29T14:50:17+09:00*
G04 #@! TF.ProjectId,ble_spo2_dgmif,626c655f-7370-46f3-925f-64676d69662e,rev?*
G04 #@! TF.SameCoordinates,Original*
G04 #@! TF.FileFunction,Soldermask,Top*
G04 #@! TF.FilePolarity,Negative*
G04 Gerber Fmt 4.6, Leading zero omitted, Abs format (unit mm)*
G04 Created by KiCad (PCBNEW (5.1.10)-1) date 2021-06-29 14:50:17*
G01*
G04 APERTURE LIST*
G04 APERTURE END LIST*
D47*
X-0003070866Y0008425196D02*
X0001220472Y0003061220D03*
D48*
X0000925196Y0003356496D03*
X0000925196Y0003306496D03*
X0000925196Y0003256496D03*
X0000925196Y0003206496D03*
X0000925196Y0003156496D03*
X0000925196Y0003106496D03*
X0000925196Y0003056496D03*
X0000925196Y0003006496D03*
X0000925196Y0002956496D03*
X0000925196Y0002906496D03*
X0000925196Y0002856496D03*
X0000925196Y0002806496D03*
X0000925196Y0002756496D03*
X0000925196Y0002706496D03*
D49*
X0001034842Y0002667125D03*
X0001084842Y0002667125D03*
X0001134842Y0002667125D03*
X0001184842Y0002667125D03*
X0001234842Y0002667125D03*
X0001284842Y0002667125D03*
X0001334842Y0002667125D03*
X0001384842Y0002667125D03*
X0001434842Y0002667125D03*
X0001484842Y0002667125D03*
D48*
X0001594488Y0002706496D03*
X0001594488Y0002756496D03*
X0001594488Y0002806496D03*
X0001594488Y0002856496D03*
X0001594488Y0002906496D03*
X0001594488Y0002956496D03*
X0001594488Y0003006496D03*
X0001594488Y0003056496D03*
X0001594488Y0003106496D03*
X0001594488Y0003156496D03*
X0001594488Y0003206496D03*
X0001594488Y0003256496D03*
X0001594488Y0003306496D03*
X0001594488Y0003356496D03*
G04 next file*
G04 #@! TF.GenerationSoftware,KiCad,Pcbnew,(5.1.10)-1*
G04 #@! TF.CreationDate,2021-06-29T15:19:49+09:00*
G04 #@! TF.ProjectId,BLE_PPG_v1.1,424c455f-5050-4475-9f76-312e312e6b69,rev?*
G04 #@! TF.SameCoordinates,Original*
G04 #@! TF.FileFunction,Soldermask,Top*
G04 #@! TF.FilePolarity,Negative*
G04 Gerber Fmt 4.6, Leading zero omitted, Abs format (unit mm)*
G04 Created by KiCad (PCBNEW (5.1.10)-1) date 2021-06-29 15:19:49*
G01*
G04 APERTURE LIST*
G04 APERTURE END LIST*
D50*
X-0002204724Y0008425196D02*
X0002086614Y0003061220D03*
D51*
X0001791338Y0003356496D03*
X0001791338Y0003306496D03*
X0001791338Y0003256496D03*
X0001791338Y0003206496D03*
X0001791338Y0003156496D03*
X0001791338Y0003106496D03*
X0001791338Y0003056496D03*
X0001791338Y0003006496D03*
X0001791338Y0002956496D03*
X0001791338Y0002906496D03*
X0001791338Y0002856496D03*
X0001791338Y0002806496D03*
X0001791338Y0002756496D03*
X0001791338Y0002706496D03*
D52*
X0001900984Y0002667125D03*
X0001950984Y0002667125D03*
X0002000984Y0002667125D03*
X0002050984Y0002667125D03*
X0002100984Y0002667125D03*
X0002150984Y0002667125D03*
X0002200984Y0002667125D03*
X0002250984Y0002667125D03*
X0002300984Y0002667125D03*
X0002350984Y0002667125D03*
D51*
X0002460629Y0002706496D03*
X0002460629Y0002756496D03*
X0002460629Y0002806496D03*
X0002460629Y0002856496D03*
X0002460629Y0002906496D03*
X0002460629Y0002956496D03*
X0002460629Y0003006496D03*
X0002460629Y0003056496D03*
X0002460629Y0003106496D03*
X0002460629Y0003156496D03*
X0002460629Y0003206496D03*
X0002460629Y0003256496D03*
X0002460629Y0003306496D03*
X0002460629Y0003356496D03*
G04 next file*
G04 #@! TF.GenerationSoftware,KiCad,Pcbnew,(5.1.10)-1*
G04 #@! TF.CreationDate,2021-06-29T15:19:49+09:00*
G04 #@! TF.ProjectId,BLE_PPG_v1.1,424c455f-5050-4475-9f76-312e312e6b69,rev?*
G04 #@! TF.SameCoordinates,Original*
G04 #@! TF.FileFunction,Soldermask,Top*
G04 #@! TF.FilePolarity,Negative*
G04 Gerber Fmt 4.6, Leading zero omitted, Abs format (unit mm)*
G04 Created by KiCad (PCBNEW (5.1.10)-1) date 2021-06-29 15:19:49*
G01*
G04 APERTURE LIST*
G04 APERTURE END LIST*
D53*
X-0001338582Y0008425196D02*
X0002952755Y0003061220D03*
D54*
X0002657480Y0003356496D03*
X0002657480Y0003306496D03*
X0002657480Y0003256496D03*
X0002657480Y0003206496D03*
X0002657480Y0003156496D03*
X0002657480Y0003106496D03*
X0002657480Y0003056496D03*
X0002657480Y0003006496D03*
X0002657480Y0002956496D03*
X0002657480Y0002906496D03*
X0002657480Y0002856496D03*
X0002657480Y0002806496D03*
X0002657480Y0002756496D03*
X0002657480Y0002706496D03*
D55*
X0002767125Y0002667125D03*
X0002817125Y0002667125D03*
X0002867125Y0002667125D03*
X0002917125Y0002667125D03*
X0002967125Y0002667125D03*
X0003017125Y0002667125D03*
X0003067125Y0002667125D03*
X0003117125Y0002667125D03*
X0003167125Y0002667125D03*
X0003217125Y0002667125D03*
D54*
X0003326771Y0002706496D03*
X0003326771Y0002756496D03*
X0003326771Y0002806496D03*
X0003326771Y0002856496D03*
X0003326771Y0002906496D03*
X0003326771Y0002956496D03*
X0003326771Y0003006496D03*
X0003326771Y0003056496D03*
X0003326771Y0003106496D03*
X0003326771Y0003156496D03*
X0003326771Y0003206496D03*
X0003326771Y0003256496D03*
X0003326771Y0003306496D03*
X0003326771Y0003356496D03*
M02*