%MOIN*%
%OFA0B0*%
%FSLAX46Y46*%
%IPPOS*%
%LPD*%
%ADD10C,0.0047244094488188976*%
%ADD11C,0.005905511811023622*%
%ADD22C,0.0047244094488188976*%
%ADD23C,0.005905511811023622*%
%ADD24C,0.0047244094488188976*%
%ADD25C,0.005905511811023622*%
%ADD26C,0.0047244094488188976*%
%ADD27C,0.005905511811023622*%
%ADD28C,0.0047244094488188976*%
%ADD29C,0.005905511811023622*%
%ADD30C,0.0047244094488188976*%
%ADD31C,0.005905511811023622*%
%ADD32C,0.0047244094488188976*%
%ADD33C,0.005905511811023622*%
%ADD34C,0.0047244094488188976*%
%ADD35C,0.005905511811023622*%
%ADD36C,0.0047244094488188976*%
%ADD37C,0.005905511811023622*%
%ADD38C,0.0047244094488188976*%
%ADD39C,0.005905511811023622*%
%ADD40C,0.0047244094488188976*%
%ADD41C,0.005905511811023622*%
%ADD42C,0.0047244094488188976*%
%ADD43C,0.005905511811023622*%
G01*
D10*
X0000034645Y0000153543D02*
X0000034645Y0000122834D01*
X0000034645Y0000122834D02*
X0000074015Y0000122834D01*
X0000752755Y0000153543D02*
X0000752755Y0000122834D01*
X0000752755Y0000122834D02*
X0000713385Y0000122834D01*
X0000034645Y0001136417D02*
X0000752755Y0001136417D01*
X0000752755Y0001136417D02*
X0000752755Y0000883661D01*
X0000034645Y0001136417D02*
X0000034645Y0000883661D01*
D11*
X0000117641Y0001104236D02*
X0000117641Y0001072365D01*
X0000119516Y0001068616D01*
X0000121391Y0001066741D01*
X0000125140Y0001064866D01*
X0000132639Y0001064866D01*
X0000136389Y0001066741D01*
X0000138263Y0001068616D01*
X0000140138Y0001072365D01*
X0000140138Y0001104236D01*
X0000179508Y0001064866D02*
X0000157011Y0001064866D01*
X0000168260Y0001064866D02*
X0000168260Y0001104236D01*
X0000164510Y0001098612D01*
X0000160761Y0001094863D01*
X0000157011Y0001092988D01*
G04 next file*
G04 #@! TF.GenerationSoftware,KiCad,Pcbnew,(5.1.10)-1*
G04 #@! TF.CreationDate,2021-06-29T15:19:49+09:00*
G04 #@! TF.ProjectId,BLE_PPG_v1.1,424c455f-5050-4475-9f76-312e312e6b69,rev?*
G04 #@! TF.SameCoordinates,Original*
G04 #@! TF.FileFunction,Legend,Top*
G04 #@! TF.FilePolarity,Positive*
G04 Gerber Fmt 4.6, Leading zero omitted, Abs format (unit mm)*
G04 Created by KiCad (PCBNEW (5.1.10)-1) date 2021-06-29 15:19:49*
G01*
G04 APERTURE LIST*
G04 APERTURE END LIST*
D22*
X0001766929Y0001413385D02*
X0001766929Y0001382677D01*
X0001766929Y0001382677D02*
X0001806299Y0001382677D01*
X0002485039Y0001413385D02*
X0002485039Y0001382677D01*
X0002485039Y0001382677D02*
X0002445669Y0001382677D01*
X0001766929Y0002396259D02*
X0002485039Y0002396259D01*
X0002485039Y0002396259D02*
X0002485039Y0002143503D01*
X0001766929Y0002396259D02*
X0001766929Y0002143503D01*
D23*
X0001849925Y0002364079D02*
X0001849925Y0002332208D01*
X0001851799Y0002328458D01*
X0001853674Y0002326584D01*
X0001857424Y0002324709D01*
X0001864923Y0002324709D01*
X0001868672Y0002326584D01*
X0001870547Y0002328458D01*
X0001872422Y0002332208D01*
X0001872422Y0002364079D01*
X0001911792Y0002324709D02*
X0001889295Y0002324709D01*
X0001900543Y0002324709D02*
X0001900543Y0002364079D01*
X0001896794Y0002358455D01*
X0001893044Y0002354705D01*
X0001889295Y0002352830D01*
G04 next file*
G04 #@! TF.GenerationSoftware,KiCad,Pcbnew,(5.1.10)-1*
G04 #@! TF.CreationDate,2021-06-29T14:50:17+09:00*
G04 #@! TF.ProjectId,ble_spo2_dgmif,626c655f-7370-46f3-925f-64676d69662e,rev?*
G04 #@! TF.SameCoordinates,Original*
G04 #@! TF.FileFunction,Legend,Top*
G04 #@! TF.FilePolarity,Positive*
G04 Gerber Fmt 4.6, Leading zero omitted, Abs format (unit mm)*
G04 Created by KiCad (PCBNEW (5.1.10)-1) date 2021-06-29 14:50:17*
G01*
G04 APERTURE LIST*
G04 APERTURE END LIST*
D24*
X0000034645Y0001413385D02*
X0000034645Y0001382677D01*
X0000034645Y0001382677D02*
X0000074015Y0001382677D01*
X0000752755Y0001413385D02*
X0000752755Y0001382677D01*
X0000752755Y0001382677D02*
X0000713385Y0001382677D01*
X0000034645Y0002396259D02*
X0000752755Y0002396259D01*
X0000752755Y0002396259D02*
X0000752755Y0002143503D01*
X0000034645Y0002396259D02*
X0000034645Y0002143503D01*
D25*
X0000117641Y0002364079D02*
X0000117641Y0002332208D01*
X0000119516Y0002328458D01*
X0000121391Y0002326584D01*
X0000125140Y0002324709D01*
X0000132639Y0002324709D01*
X0000136389Y0002326584D01*
X0000138263Y0002328458D01*
X0000140138Y0002332208D01*
X0000140138Y0002364079D01*
X0000179508Y0002324709D02*
X0000157011Y0002324709D01*
X0000168260Y0002324709D02*
X0000168260Y0002364079D01*
X0000164510Y0002358455D01*
X0000160761Y0002354705D01*
X0000157011Y0002352830D01*
G04 next file*
G04 #@! TF.GenerationSoftware,KiCad,Pcbnew,(5.1.10)-1*
G04 #@! TF.CreationDate,2021-06-29T14:50:17+09:00*
G04 #@! TF.ProjectId,ble_spo2_dgmif,626c655f-7370-46f3-925f-64676d69662e,rev?*
G04 #@! TF.SameCoordinates,Original*
G04 #@! TF.FileFunction,Legend,Top*
G04 #@! TF.FilePolarity,Positive*
G04 Gerber Fmt 4.6, Leading zero omitted, Abs format (unit mm)*
G04 Created by KiCad (PCBNEW (5.1.10)-1) date 2021-06-29 14:50:17*
G01*
G04 APERTURE LIST*
G04 APERTURE END LIST*
D26*
X0000900787Y0000153543D02*
X0000900787Y0000122834D01*
X0000900787Y0000122834D02*
X0000940157Y0000122834D01*
X0001618897Y0000153543D02*
X0001618897Y0000122834D01*
X0001618897Y0000122834D02*
X0001579527Y0000122834D01*
X0000900787Y0001136417D02*
X0001618897Y0001136417D01*
X0001618897Y0001136417D02*
X0001618897Y0000883661D01*
X0000900787Y0001136417D02*
X0000900787Y0000883661D01*
D27*
X0000983783Y0001104236D02*
X0000983783Y0001072365D01*
X0000985658Y0001068616D01*
X0000987532Y0001066741D01*
X0000991282Y0001064866D01*
X0000998781Y0001064866D01*
X0001002530Y0001066741D01*
X0001004405Y0001068616D01*
X0001006280Y0001072365D01*
X0001006280Y0001104236D01*
X0001045650Y0001064866D02*
X0001023153Y0001064866D01*
X0001034401Y0001064866D02*
X0001034401Y0001104236D01*
X0001030652Y0001098612D01*
X0001026902Y0001094863D01*
X0001023153Y0001092988D01*
G04 next file*
G04 #@! TF.GenerationSoftware,KiCad,Pcbnew,(5.1.10)-1*
G04 #@! TF.CreationDate,2021-06-29T15:19:49+09:00*
G04 #@! TF.ProjectId,BLE_PPG_v1.1,424c455f-5050-4475-9f76-312e312e6b69,rev?*
G04 #@! TF.SameCoordinates,Original*
G04 #@! TF.FileFunction,Legend,Top*
G04 #@! TF.FilePolarity,Positive*
G04 Gerber Fmt 4.6, Leading zero omitted, Abs format (unit mm)*
G04 Created by KiCad (PCBNEW (5.1.10)-1) date 2021-06-29 15:19:49*
G01*
G04 APERTURE LIST*
G04 APERTURE END LIST*
D28*
X0001766929Y0000153543D02*
X0001766929Y0000122834D01*
X0001766929Y0000122834D02*
X0001806299Y0000122834D01*
X0002485039Y0000153543D02*
X0002485039Y0000122834D01*
X0002485039Y0000122834D02*
X0002445669Y0000122834D01*
X0001766929Y0001136417D02*
X0002485039Y0001136417D01*
X0002485039Y0001136417D02*
X0002485039Y0000883661D01*
X0001766929Y0001136417D02*
X0001766929Y0000883661D01*
D29*
X0001849925Y0001104236D02*
X0001849925Y0001072365D01*
X0001851799Y0001068616D01*
X0001853674Y0001066741D01*
X0001857424Y0001064866D01*
X0001864923Y0001064866D01*
X0001868672Y0001066741D01*
X0001870547Y0001068616D01*
X0001872422Y0001072365D01*
X0001872422Y0001104236D01*
X0001911792Y0001064866D02*
X0001889295Y0001064866D01*
X0001900543Y0001064866D02*
X0001900543Y0001104236D01*
X0001896794Y0001098612D01*
X0001893044Y0001094863D01*
X0001889295Y0001092988D01*
G04 next file*
G04 #@! TF.GenerationSoftware,KiCad,Pcbnew,(5.1.10)-1*
G04 #@! TF.CreationDate,2021-06-29T15:19:49+09:00*
G04 #@! TF.ProjectId,BLE_PPG_v1.1,424c455f-5050-4475-9f76-312e312e6b69,rev?*
G04 #@! TF.SameCoordinates,Original*
G04 #@! TF.FileFunction,Legend,Top*
G04 #@! TF.FilePolarity,Positive*
G04 Gerber Fmt 4.6, Leading zero omitted, Abs format (unit mm)*
G04 Created by KiCad (PCBNEW (5.1.10)-1) date 2021-06-29 15:19:49*
G01*
G04 APERTURE LIST*
G04 APERTURE END LIST*
D30*
X0002633070Y0000153543D02*
X0002633070Y0000122834D01*
X0002633070Y0000122834D02*
X0002672440Y0000122834D01*
X0003351181Y0000153543D02*
X0003351181Y0000122834D01*
X0003351181Y0000122834D02*
X0003311811Y0000122834D01*
X0002633070Y0001136417D02*
X0003351181Y0001136417D01*
X0003351181Y0001136417D02*
X0003351181Y0000883661D01*
X0002633070Y0001136417D02*
X0002633070Y0000883661D01*
D31*
X0002716066Y0001104236D02*
X0002716066Y0001072365D01*
X0002717941Y0001068616D01*
X0002719816Y0001066741D01*
X0002723565Y0001064866D01*
X0002731064Y0001064866D01*
X0002734814Y0001066741D01*
X0002736689Y0001068616D01*
X0002738563Y0001072365D01*
X0002738563Y0001104236D01*
X0002777933Y0001064866D02*
X0002755436Y0001064866D01*
X0002766685Y0001064866D02*
X0002766685Y0001104236D01*
X0002762935Y0001098612D01*
X0002759186Y0001094863D01*
X0002755436Y0001092988D01*
G04 next file*
G04 #@! TF.GenerationSoftware,KiCad,Pcbnew,(5.1.10)-1*
G04 #@! TF.CreationDate,2021-06-29T14:50:17+09:00*
G04 #@! TF.ProjectId,ble_spo2_dgmif,626c655f-7370-46f3-925f-64676d69662e,rev?*
G04 #@! TF.SameCoordinates,Original*
G04 #@! TF.FileFunction,Legend,Top*
G04 #@! TF.FilePolarity,Positive*
G04 Gerber Fmt 4.6, Leading zero omitted, Abs format (unit mm)*
G04 Created by KiCad (PCBNEW (5.1.10)-1) date 2021-06-29 14:50:17*
G01*
G04 APERTURE LIST*
G04 APERTURE END LIST*
D32*
X0000900787Y0001413385D02*
X0000900787Y0001382677D01*
X0000900787Y0001382677D02*
X0000940157Y0001382677D01*
X0001618897Y0001413385D02*
X0001618897Y0001382677D01*
X0001618897Y0001382677D02*
X0001579527Y0001382677D01*
X0000900787Y0002396259D02*
X0001618897Y0002396259D01*
X0001618897Y0002396259D02*
X0001618897Y0002143503D01*
X0000900787Y0002396259D02*
X0000900787Y0002143503D01*
D33*
X0000983783Y0002364079D02*
X0000983783Y0002332208D01*
X0000985658Y0002328458D01*
X0000987532Y0002326584D01*
X0000991282Y0002324709D01*
X0000998781Y0002324709D01*
X0001002530Y0002326584D01*
X0001004405Y0002328458D01*
X0001006280Y0002332208D01*
X0001006280Y0002364079D01*
X0001045650Y0002324709D02*
X0001023153Y0002324709D01*
X0001034401Y0002324709D02*
X0001034401Y0002364079D01*
X0001030652Y0002358455D01*
X0001026902Y0002354705D01*
X0001023153Y0002352830D01*
G04 next file*
G04 #@! TF.GenerationSoftware,KiCad,Pcbnew,(5.1.10)-1*
G04 #@! TF.CreationDate,2021-06-29T15:19:49+09:00*
G04 #@! TF.ProjectId,BLE_PPG_v1.1,424c455f-5050-4475-9f76-312e312e6b69,rev?*
G04 #@! TF.SameCoordinates,Original*
G04 #@! TF.FileFunction,Legend,Top*
G04 #@! TF.FilePolarity,Positive*
G04 Gerber Fmt 4.6, Leading zero omitted, Abs format (unit mm)*
G04 Created by KiCad (PCBNEW (5.1.10)-1) date 2021-06-29 15:19:49*
G01*
G04 APERTURE LIST*
G04 APERTURE END LIST*
D34*
X0002633070Y0001413385D02*
X0002633070Y0001382677D01*
X0002633070Y0001382677D02*
X0002672440Y0001382677D01*
X0003351181Y0001413385D02*
X0003351181Y0001382677D01*
X0003351181Y0001382677D02*
X0003311811Y0001382677D01*
X0002633070Y0002396259D02*
X0003351181Y0002396259D01*
X0003351181Y0002396259D02*
X0003351181Y0002143503D01*
X0002633070Y0002396259D02*
X0002633070Y0002143503D01*
D35*
X0002716066Y0002364079D02*
X0002716066Y0002332208D01*
X0002717941Y0002328458D01*
X0002719816Y0002326584D01*
X0002723565Y0002324709D01*
X0002731064Y0002324709D01*
X0002734814Y0002326584D01*
X0002736689Y0002328458D01*
X0002738563Y0002332208D01*
X0002738563Y0002364079D01*
X0002777933Y0002324709D02*
X0002755436Y0002324709D01*
X0002766685Y0002324709D02*
X0002766685Y0002364079D01*
X0002762935Y0002358455D01*
X0002759186Y0002354705D01*
X0002755436Y0002352830D01*
G04 next file*
G04 #@! TF.GenerationSoftware,KiCad,Pcbnew,(5.1.10)-1*
G04 #@! TF.CreationDate,2021-06-29T14:50:17+09:00*
G04 #@! TF.ProjectId,ble_spo2_dgmif,626c655f-7370-46f3-925f-64676d69662e,rev?*
G04 #@! TF.SameCoordinates,Original*
G04 #@! TF.FileFunction,Legend,Top*
G04 #@! TF.FilePolarity,Positive*
G04 Gerber Fmt 4.6, Leading zero omitted, Abs format (unit mm)*
G04 Created by KiCad (PCBNEW (5.1.10)-1) date 2021-06-29 14:50:17*
G01*
G04 APERTURE LIST*
G04 APERTURE END LIST*
D36*
X0000034645Y0002673228D02*
X0000034645Y0002642519D01*
X0000034645Y0002642519D02*
X0000074015Y0002642519D01*
X0000752755Y0002673228D02*
X0000752755Y0002642519D01*
X0000752755Y0002642519D02*
X0000713385Y0002642519D01*
X0000034645Y0003656102D02*
X0000752755Y0003656102D01*
X0000752755Y0003656102D02*
X0000752755Y0003403346D01*
X0000034645Y0003656102D02*
X0000034645Y0003403346D01*
D37*
X0000117641Y0003623922D02*
X0000117641Y0003592051D01*
X0000119516Y0003588301D01*
X0000121391Y0003586426D01*
X0000125140Y0003584551D01*
X0000132639Y0003584551D01*
X0000136389Y0003586426D01*
X0000138263Y0003588301D01*
X0000140138Y0003592051D01*
X0000140138Y0003623922D01*
X0000179508Y0003584551D02*
X0000157011Y0003584551D01*
X0000168260Y0003584551D02*
X0000168260Y0003623922D01*
X0000164510Y0003618297D01*
X0000160761Y0003614548D01*
X0000157011Y0003612673D01*
G04 next file*
G04 #@! TF.GenerationSoftware,KiCad,Pcbnew,(5.1.10)-1*
G04 #@! TF.CreationDate,2021-06-29T14:50:17+09:00*
G04 #@! TF.ProjectId,ble_spo2_dgmif,626c655f-7370-46f3-925f-64676d69662e,rev?*
G04 #@! TF.SameCoordinates,Original*
G04 #@! TF.FileFunction,Legend,Top*
G04 #@! TF.FilePolarity,Positive*
G04 Gerber Fmt 4.6, Leading zero omitted, Abs format (unit mm)*
G04 Created by KiCad (PCBNEW (5.1.10)-1) date 2021-06-29 14:50:17*
G01*
G04 APERTURE LIST*
G04 APERTURE END LIST*
D38*
X0000900787Y0002673228D02*
X0000900787Y0002642519D01*
X0000900787Y0002642519D02*
X0000940157Y0002642519D01*
X0001618897Y0002673228D02*
X0001618897Y0002642519D01*
X0001618897Y0002642519D02*
X0001579527Y0002642519D01*
X0000900787Y0003656102D02*
X0001618897Y0003656102D01*
X0001618897Y0003656102D02*
X0001618897Y0003403346D01*
X0000900787Y0003656102D02*
X0000900787Y0003403346D01*
D39*
X0000983783Y0003623922D02*
X0000983783Y0003592051D01*
X0000985658Y0003588301D01*
X0000987532Y0003586426D01*
X0000991282Y0003584551D01*
X0000998781Y0003584551D01*
X0001002530Y0003586426D01*
X0001004405Y0003588301D01*
X0001006280Y0003592051D01*
X0001006280Y0003623922D01*
X0001045650Y0003584551D02*
X0001023153Y0003584551D01*
X0001034401Y0003584551D02*
X0001034401Y0003623922D01*
X0001030652Y0003618297D01*
X0001026902Y0003614548D01*
X0001023153Y0003612673D01*
G04 next file*
G04 #@! TF.GenerationSoftware,KiCad,Pcbnew,(5.1.10)-1*
G04 #@! TF.CreationDate,2021-06-29T15:19:49+09:00*
G04 #@! TF.ProjectId,BLE_PPG_v1.1,424c455f-5050-4475-9f76-312e312e6b69,rev?*
G04 #@! TF.SameCoordinates,Original*
G04 #@! TF.FileFunction,Legend,Top*
G04 #@! TF.FilePolarity,Positive*
G04 Gerber Fmt 4.6, Leading zero omitted, Abs format (unit mm)*
G04 Created by KiCad (PCBNEW (5.1.10)-1) date 2021-06-29 15:19:49*
G01*
G04 APERTURE LIST*
G04 APERTURE END LIST*
D40*
X0001766929Y0002673228D02*
X0001766929Y0002642519D01*
X0001766929Y0002642519D02*
X0001806299Y0002642519D01*
X0002485039Y0002673228D02*
X0002485039Y0002642519D01*
X0002485039Y0002642519D02*
X0002445669Y0002642519D01*
X0001766929Y0003656102D02*
X0002485039Y0003656102D01*
X0002485039Y0003656102D02*
X0002485039Y0003403346D01*
X0001766929Y0003656102D02*
X0001766929Y0003403346D01*
D41*
X0001849925Y0003623922D02*
X0001849925Y0003592051D01*
X0001851799Y0003588301D01*
X0001853674Y0003586426D01*
X0001857424Y0003584551D01*
X0001864923Y0003584551D01*
X0001868672Y0003586426D01*
X0001870547Y0003588301D01*
X0001872422Y0003592051D01*
X0001872422Y0003623922D01*
X0001911792Y0003584551D02*
X0001889295Y0003584551D01*
X0001900543Y0003584551D02*
X0001900543Y0003623922D01*
X0001896794Y0003618297D01*
X0001893044Y0003614548D01*
X0001889295Y0003612673D01*
G04 next file*
G04 #@! TF.GenerationSoftware,KiCad,Pcbnew,(5.1.10)-1*
G04 #@! TF.CreationDate,2021-06-29T15:19:49+09:00*
G04 #@! TF.ProjectId,BLE_PPG_v1.1,424c455f-5050-4475-9f76-312e312e6b69,rev?*
G04 #@! TF.SameCoordinates,Original*
G04 #@! TF.FileFunction,Legend,Top*
G04 #@! TF.FilePolarity,Positive*
G04 Gerber Fmt 4.6, Leading zero omitted, Abs format (unit mm)*
G04 Created by KiCad (PCBNEW (5.1.10)-1) date 2021-06-29 15:19:49*
G01*
G04 APERTURE LIST*
G04 APERTURE END LIST*
D42*
X0002633070Y0002673228D02*
X0002633070Y0002642519D01*
X0002633070Y0002642519D02*
X0002672440Y0002642519D01*
X0003351181Y0002673228D02*
X0003351181Y0002642519D01*
X0003351181Y0002642519D02*
X0003311811Y0002642519D01*
X0002633070Y0003656102D02*
X0003351181Y0003656102D01*
X0003351181Y0003656102D02*
X0003351181Y0003403346D01*
X0002633070Y0003656102D02*
X0002633070Y0003403346D01*
D43*
X0002716066Y0003623922D02*
X0002716066Y0003592051D01*
X0002717941Y0003588301D01*
X0002719816Y0003586426D01*
X0002723565Y0003584551D01*
X0002731064Y0003584551D01*
X0002734814Y0003586426D01*
X0002736689Y0003588301D01*
X0002738563Y0003592051D01*
X0002738563Y0003623922D01*
X0002777933Y0003584551D02*
X0002755436Y0003584551D01*
X0002766685Y0003584551D02*
X0002766685Y0003623922D01*
X0002762935Y0003618297D01*
X0002759186Y0003614548D01*
X0002755436Y0003612673D01*
M02*