%
M48
METRIC,000.000
T10C0.30
%
T10
X003748Y016500
X004249Y008250
X005750Y013000
X006751Y002250
X007000Y020249
X009250Y017000
X009999Y005999
X010251Y007749
X011998Y017000
X012250Y020249
X012250Y011498
X012750Y008250
X012999Y012751
X013746Y007000
X013748Y019748
X013748Y013248
X015750Y018499
X016250Y017000
X048000Y048749
X048249Y039500
X051248Y053249
X052750Y039000
X053250Y038251
X053374Y040125
X053999Y041499
X055000Y039998
X055500Y037999
X055988Y049236
X056250Y047999
X056499Y051499
X056999Y046998
X057748Y042500
X060250Y038749
X060751Y036000
X003748Y048500
X004249Y040250
X005750Y045000
X006751Y034250
X007000Y052249
X009250Y049000
X009999Y037999
X010251Y039749
X011998Y049000
X012250Y052249
X012250Y043498
X012750Y040250
X012999Y044751
X013746Y039000
X013748Y051748
X013748Y045248
X015750Y050499
X016250Y049000
X025748Y016500
X026249Y008250
X027750Y013000
X028751Y002250
X029000Y020249
X031250Y017000
X031999Y005999
X032250Y007749
X033998Y017000
X034250Y020249
X034250Y011498
X034750Y008250
X034999Y012751
X035746Y007000
X035748Y019748
X035748Y013248
X037750Y018499
X038250Y017000
X048000Y016749
X048249Y007500
X051248Y021249
X052750Y007000
X053250Y006251
X053374Y008125
X053999Y009499
X055000Y007998
X055500Y005999
X055988Y017236
X056250Y015999
X056499Y019499
X056999Y014998
X057748Y010500
X060250Y006749
X060751Y004000
X070000Y016749
X070249Y007500
X073248Y021249
X074750Y007000
X075250Y006251
X075374Y008125
X075999Y009499
X077000Y007998
X077500Y005999
X077988Y017236
X078250Y015999
X078499Y019499
X078999Y014998
X079748Y010500
X082250Y006749
X082751Y004000
X025748Y048500
X026249Y040250
X027750Y045000
X028751Y034250
X029000Y052249
X031250Y049000
X031999Y037999
X032250Y039749
X033998Y049000
X034250Y052249
X034250Y043498
X034750Y040250
X034999Y044751
X035746Y039000
X035748Y051748
X035748Y045248
X037750Y050499
X038250Y049000
X070000Y048749
X070249Y039500
X073248Y053249
X074750Y039000
X075250Y038251
X075374Y040125
X075999Y041499
X077000Y039998
X077500Y037999
X077988Y049236
X078250Y047999
X078499Y051499
X078999Y046998
X079748Y042500
X082250Y038749
X082751Y036000
X003748Y080500
X004249Y072250
X005750Y077000
X006751Y066250
X007000Y084249
X009250Y081000
X009999Y069999
X010251Y071749
X011998Y081000
X012250Y084249
X012250Y075498
X012750Y072250
X012999Y076751
X013746Y071000
X013748Y083748
X013748Y077248
X015750Y082499
X016250Y081000
X025748Y080500
X026249Y072250
X027750Y077000
X028751Y066250
X029000Y084249
X031250Y081000
X031999Y069999
X032250Y071749
X033998Y081000
X034250Y084249
X034250Y075498
X034750Y072250
X034999Y076751
X035746Y071000
X035748Y083748
X035748Y077248
X037750Y082499
X038250Y081000
X048000Y080749
X048249Y071500
X051248Y085249
X052750Y071000
X053250Y070251
X053374Y072125
X053999Y073499
X055000Y071998
X055500Y069999
X055988Y081236
X056250Y079999
X056499Y083499
X056999Y078999
X057748Y074500
X060250Y070749
X060751Y068000
X070000Y080749
X070249Y071500
X073248Y085249
X074750Y071000
X075250Y070251
X075374Y072125
X075999Y073499
X077000Y071998
X077500Y069999
X077988Y081236
X078250Y079999
X078499Y083499
X078999Y078999
X079748Y074500
X082250Y070749
X082751Y068000
M30