%
M48
METRIC,000.000
T01C0.50
%
T01
X020250Y001607
X020250Y002607
X020250Y003607
X020250Y004607
X020250Y005607
X020250Y006607
X021750Y006178
X021750Y005178
X021750Y004178
X021750Y003178
X021750Y002178
X021750Y001178
X012785Y030250
X011785Y030250
X010785Y030250
X009785Y030250
X008785Y030250
X007785Y030250
X007429Y031750
X008429Y031750
X009429Y031750
X010429Y031750
X011429Y031750
X012429Y031750
X020250Y023607
X020250Y024607
X020250Y025607
X020250Y026607
X020250Y027607
X020250Y028607
X021750Y028178
X021750Y027178
X021750Y026178
X021750Y025178
X021750Y024178
X021750Y023178
X064250Y067607
X064250Y068607
X064250Y069607
X064250Y070607
X064250Y071607
X064250Y072607
X065750Y072178
X065750Y071178
X065750Y070178
X065750Y069178
X065750Y068178
X065750Y067178
X042250Y023607
X042250Y024607
X042250Y025607
X042250Y026607
X042250Y027607
X042250Y028607
X043750Y028178
X043750Y027178
X043750Y026178
X043750Y025178
X043750Y024178
X043750Y023178
X064250Y023607
X064250Y024607
X064250Y025607
X064250Y026607
X064250Y027607
X064250Y028607
X065750Y028178
X065750Y027178
X065750Y026178
X065750Y025178
X065750Y024178
X065750Y023178
X064250Y001607
X064250Y002607
X064250Y003607
X064250Y004607
X064250Y005607
X064250Y006607
X065750Y006178
X065750Y005178
X065750Y004178
X065750Y003178
X065750Y002178
X065750Y001178
X042250Y001607
X042250Y002607
X042250Y003607
X042250Y004607
X042250Y005607
X042250Y006607
X043750Y006178
X043750Y005178
X043750Y004178
X043750Y003178
X043750Y002178
X043750Y001178
X020250Y036607
X020250Y037607
X020250Y038607
X020250Y039607
X020250Y040607
X020250Y041607
X021750Y041178
X021750Y040178
X021750Y039178
X021750Y038178
X021750Y037178
X021750Y036178
X034785Y030250
X033785Y030250
X032785Y030250
X031785Y030250
X030785Y030250
X029785Y030250
X029429Y031750
X030429Y031750
X031429Y031750
X032429Y031750
X033429Y031750
X034429Y031750
X078785Y030250
X077785Y030250
X076785Y030250
X075785Y030250
X074785Y030250
X073785Y030250
X073429Y031750
X074429Y031750
X075429Y031750
X076429Y031750
X077429Y031750
X078429Y031750
X042250Y067607
X042250Y068607
X042250Y069607
X042250Y070607
X042250Y071607
X042250Y072607
X043750Y072178
X043750Y071178
X043750Y070178
X043750Y069178
X043750Y068178
X043750Y067178
X042250Y086607
X042250Y087607
X042250Y088607
X042250Y089607
X042250Y090607
X042250Y091607
X043750Y091178
X043750Y090178
X043750Y089178
X043750Y088178
X043750Y087178
X043750Y086178
X052429Y031750
X053429Y031750
X054429Y031750
X055429Y031750
X056429Y031750
X057429Y031750
X057785Y030250
X056785Y030250
X055785Y030250
X054785Y030250
X053785Y030250
X052785Y030250
X020250Y052607
X020250Y053607
X020250Y054607
X020250Y055607
X020250Y056607
X020250Y057607
X021750Y057178
X021750Y056178
X021750Y055178
X021750Y054178
X021750Y053178
X021750Y052178
X043750Y041178
X043750Y040178
X043750Y039178
X043750Y038178
X043750Y037178
X043750Y036178
X042250Y036607
X042250Y037607
X042250Y038607
X042250Y039607
X042250Y040607
X042250Y041607
X043750Y057178
X043750Y056178
X043750Y055178
X043750Y054178
X043750Y053178
X043750Y052178
X042250Y052607
X042250Y053607
X042250Y054607
X042250Y055607
X042250Y056607
X042250Y057607
X064250Y036607
X064250Y037607
X064250Y038607
X064250Y039607
X064250Y040607
X064250Y041607
X065750Y041178
X065750Y040178
X065750Y039178
X065750Y038178
X065750Y037178
X065750Y036178
X064250Y052607
X064250Y053607
X064250Y054607
X064250Y055607
X064250Y056607
X064250Y057607
X065750Y057178
X065750Y056178
X065750Y055178
X065750Y054178
X065750Y053178
X065750Y052178
X078785Y062250
X077785Y062250
X076785Y062250
X075785Y062250
X074785Y062250
X073785Y062250
X073429Y063750
X074429Y063750
X075429Y063750
X076429Y063750
X077429Y063750
X078429Y063750
X064250Y086607
X064250Y087607
X064250Y088607
X064250Y089607
X064250Y090607
X064250Y091607
X065750Y091178
X065750Y090178
X065750Y089178
X065750Y088178
X065750Y087178
X065750Y086178
X012785Y062250
X011785Y062250
X010785Y062250
X009785Y062250
X008785Y062250
X007785Y062250
X007429Y063750
X008429Y063750
X009429Y063750
X010429Y063750
X011429Y063750
X012429Y063750
X020250Y086607
X020250Y087607
X020250Y088607
X020250Y089607
X020250Y090607
X020250Y091607
X021750Y091178
X021750Y090178
X021750Y089178
X021750Y088178
X021750Y087178
X021750Y086178
X020250Y067607
X020250Y068607
X020250Y069607
X020250Y070607
X020250Y071607
X020250Y072607
X021750Y072178
X021750Y071178
X021750Y070178
X021750Y069178
X021750Y068178
X021750Y067178
X056785Y062250
X055785Y062250
X054785Y062250
X053785Y062250
X052785Y062250
X051785Y062250
X051429Y063750
X052429Y063750
X053429Y063750
X054429Y063750
X055429Y063750
X056429Y063750
X034785Y062250
X033785Y062250
X032785Y062250
X031785Y062250
X030785Y062250
X029785Y062250
X029429Y063750
X030429Y063750
X031429Y063750
X032429Y063750
X033429Y063750
X034429Y063750
M30