%MOIN*%
%OFA0B0*%
%FSLAX46Y46*%
%IPPOS*%
%LPD*%
%ADD10R,0.032X0.056000000000000008*%
%ADD11R,0.060000000000000005X0.060000000000000005*%
%ADD22R,0.032X0.056000000000000008*%
%ADD23R,0.032X0.056000000000000008*%
%ADD24R,0.060000000000000005X0.060000000000000005*%
%ADD25R,0.032X0.056000000000000008*%
%ADD26R,0.060000000000000005X0.060000000000000005*%
%ADD27R,0.032X0.056000000000000008*%
%ADD28R,0.032X0.056000000000000008*%
%ADD29R,0.032X0.056000000000000008*%
%ADD30R,0.060000000000000005X0.060000000000000005*%
%ADD31R,0.032X0.056000000000000008*%
%ADD32R,0.032X0.056000000000000008*%
%ADD33R,0.060000000000000005X0.060000000000000005*%
%ADD34R,0.032X0.056000000000000008*%
%ADD35R,0.060000000000000005X0.060000000000000005*%
%ADD36R,0.032X0.056000000000000008*%
%ADD37R,0.032X0.056000000000000008*%
G01*
D10*
X-0003937007Y0005905511D02*
X0000124999Y0000724401D03*
X0000189960Y0000724401D03*
X0000189960Y0000850401D03*
X0000124999Y0000850401D03*
X0000361220Y0000724401D03*
X0000426181Y0000724401D03*
X0000426181Y0000850401D03*
X0000361220Y0000850401D03*
G36*
G01*
X0000345472Y0000540354D02*
X0000345472Y0000562007D01*
G75*
G02*
X0000353346Y0000569881I0000007874D01*
G01*
X0000369094Y0000569881D01*
G75*
G02*
X0000376968Y0000562007J-0000007874D01*
G01*
X0000376968Y0000540354D01*
G75*
G02*
X0000369094Y0000532480I-0000007874D01*
G01*
X0000353346Y0000532480D01*
G75*
G02*
X0000345472Y0000540354J0000007874D01*
G01*
G37*
G36*
G01*
X0000410433Y0000540354D02*
X0000410433Y0000562007D01*
G75*
G02*
X0000418307Y0000569881I0000007874D01*
G01*
X0000434055Y0000569881D01*
G75*
G02*
X0000441929Y0000562007J-0000007874D01*
G01*
X0000441929Y0000540354D01*
G75*
G02*
X0000434055Y0000532480I-0000007874D01*
G01*
X0000418307Y0000532480D01*
G75*
G02*
X0000410433Y0000540354J0000007874D01*
G01*
G37*
D11*
X0000724803Y0000052125D03*
X0000724803Y0000152125D03*
X0000724803Y0000252125D03*
X0000724803Y0000352125D03*
X0000324803Y0000352125D03*
X0000324803Y0000252125D03*
X0000324803Y0000152125D03*
X0000324803Y0000052125D03*
G36*
G01*
X0000616141Y0000615157D02*
X0000714566Y0000615157D01*
G75*
G02*
X0000724409Y0000605314J-0000009842D01*
G01*
X0000724409Y0000542322D01*
G75*
G02*
X0000714566Y0000532480I-0000009842D01*
G01*
X0000616141Y0000532480D01*
G75*
G02*
X0000606299Y0000542322J0000009842D01*
G01*
X0000606299Y0000605314D01*
G75*
G02*
X0000616141Y0000615157I0000009842D01*
G01*
G37*
G36*
G01*
X0000616141Y0000865157D02*
X0000714566Y0000865157D01*
G75*
G02*
X0000724409Y0000855314J-0000009842D01*
G01*
X0000724409Y0000792322D01*
G75*
G02*
X0000714566Y0000782480I-0000009842D01*
G01*
X0000616141Y0000782480D01*
G75*
G02*
X0000606299Y0000792322J0000009842D01*
G01*
X0000606299Y0000855314D01*
G75*
G02*
X0000616141Y0000865157I0000009842D01*
G01*
G37*
G36*
G01*
X0000527559Y0000689960D02*
X0000574803Y0000689960D01*
G75*
G02*
X0000582677Y0000682086J-0000007874D01*
G01*
X0000582677Y0000666338D01*
G75*
G02*
X0000574803Y0000658464I-0000007874D01*
G01*
X0000527559Y0000658464D01*
G75*
G02*
X0000519685Y0000666338J0000007874D01*
G01*
X0000519685Y0000682086D01*
G75*
G02*
X0000527559Y0000689960I0000007874D01*
G01*
G37*
G36*
G01*
X0000527559Y0000739173D02*
X0000574803Y0000739173D01*
G75*
G02*
X0000582677Y0000731299J-0000007874D01*
G01*
X0000582677Y0000715551D01*
G75*
G02*
X0000574803Y0000707677I-0000007874D01*
G01*
X0000527559Y0000707677D01*
G75*
G02*
X0000519685Y0000715551J0000007874D01*
G01*
X0000519685Y0000731299D01*
G75*
G02*
X0000527559Y0000739173I0000007874D01*
G01*
G37*
G36*
G01*
X0000167322Y0000378937D02*
X0000068897Y0000378937D01*
G75*
G02*
X0000059055Y0000388779J0000009842D01*
G01*
X0000059055Y0000451771D01*
G75*
G02*
X0000068897Y0000461614I0000009842D01*
G01*
X0000167322Y0000461614D01*
G75*
G02*
X0000177165Y0000451771J-0000009842D01*
G01*
X0000177165Y0000388779D01*
G75*
G02*
X0000167322Y0000378937I-0000009842D01*
G01*
G37*
G36*
G01*
X0000167322Y0000030511D02*
X0000068897Y0000030511D01*
G75*
G02*
X0000059055Y0000040354J0000009842D01*
G01*
X0000059055Y0000103346D01*
G75*
G02*
X0000068897Y0000113188I0000009842D01*
G01*
X0000167322Y0000113188D01*
G75*
G02*
X0000177165Y0000103346J-0000009842D01*
G01*
X0000177165Y0000040354D01*
G75*
G02*
X0000167322Y0000030511I-0000009842D01*
G01*
G37*
G36*
G01*
X0000255905Y0000304133D02*
X0000208661Y0000304133D01*
G75*
G02*
X0000200787Y0000312007J0000007874D01*
G01*
X0000200787Y0000327755D01*
G75*
G02*
X0000208661Y0000335629I0000007874D01*
G01*
X0000255905Y0000335629D01*
G75*
G02*
X0000263779Y0000327755J-0000007874D01*
G01*
X0000263779Y0000312007D01*
G75*
G02*
X0000255905Y0000304133I-0000007874D01*
G01*
G37*
G36*
G01*
X0000255905Y0000254921D02*
X0000208661Y0000254921D01*
G75*
G02*
X0000200787Y0000262795J0000007874D01*
G01*
X0000200787Y0000278543D01*
G75*
G02*
X0000208661Y0000286417I0000007874D01*
G01*
X0000255905Y0000286417D01*
G75*
G02*
X0000263779Y0000278543J-0000007874D01*
G01*
X0000263779Y0000262795D01*
G75*
G02*
X0000255905Y0000254921I-0000007874D01*
G01*
G37*
G36*
G01*
X0000255905Y0000205708D02*
X0000208661Y0000205708D01*
G75*
G02*
X0000200787Y0000213582J0000007874D01*
G01*
X0000200787Y0000229330D01*
G75*
G02*
X0000208661Y0000237204I0000007874D01*
G01*
X0000255905Y0000237204D01*
G75*
G02*
X0000263779Y0000229330J-0000007874D01*
G01*
X0000263779Y0000213582D01*
G75*
G02*
X0000255905Y0000205708I-0000007874D01*
G01*
G37*
G36*
G01*
X0000255905Y0000156496D02*
X0000208661Y0000156496D01*
G75*
G02*
X0000200787Y0000164370J0000007874D01*
G01*
X0000200787Y0000180118D01*
G75*
G02*
X0000208661Y0000187992I0000007874D01*
G01*
X0000255905Y0000187992D01*
G75*
G02*
X0000263779Y0000180118J-0000007874D01*
G01*
X0000263779Y0000164370D01*
G75*
G02*
X0000255905Y0000156496I-0000007874D01*
G01*
G37*
G04 next file*
G04 #@! TF.GenerationSoftware,KiCad,Pcbnew,(5.1.10)-1*
G04 #@! TF.CreationDate,2021-06-29T15:19:49+09:00*
G04 #@! TF.ProjectId,BLE_PPG_v1.1,424c455f-5050-4475-9f76-312e312e6b69,rev?*
G04 #@! TF.SameCoordinates,Original*
G04 #@! TF.FileFunction,Soldermask,Bot*
G04 #@! TF.FilePolarity,Negative*
G04 Gerber Fmt 4.6, Leading zero omitted, Abs format (unit mm)*
G04 Created by KiCad (PCBNEW (5.1.10)-1) date 2021-06-29 15:19:49*
G01*
G04 APERTURE LIST*
G04 APERTURE END LIST*
G36*
G01*
X0002352362Y0001373031D02*
X0002450787Y0001373031D01*
G75*
G02*
X0002460629Y0001363188J-0000009842D01*
G01*
X0002460629Y0001300196D01*
G75*
G02*
X0002450787Y0001290354I-0000009842D01*
G01*
X0002352362Y0001290354D01*
G75*
G02*
X0002342519Y0001300196J0000009842D01*
G01*
X0002342519Y0001363188D01*
G75*
G02*
X0002352362Y0001373031I0000009842D01*
G01*
G37*
G36*
G01*
X0002352362Y0001721456D02*
X0002450787Y0001721456D01*
G75*
G02*
X0002460629Y0001711614J-0000009842D01*
G01*
X0002460629Y0001648622D01*
G75*
G02*
X0002450787Y0001638779I-0000009842D01*
G01*
X0002352362Y0001638779D01*
G75*
G02*
X0002342519Y0001648622J0000009842D01*
G01*
X0002342519Y0001711614D01*
G75*
G02*
X0002352362Y0001721456I0000009842D01*
G01*
G37*
G36*
G01*
X0002263779Y0001447834D02*
X0002311023Y0001447834D01*
G75*
G02*
X0002318897Y0001439960J-0000007874D01*
G01*
X0002318897Y0001424212D01*
G75*
G02*
X0002311023Y0001416338I-0000007874D01*
G01*
X0002263779Y0001416338D01*
G75*
G02*
X0002255905Y0001424212J0000007874D01*
G01*
X0002255905Y0001439960D01*
G75*
G02*
X0002263779Y0001447834I0000007874D01*
G01*
G37*
G36*
G01*
X0002263779Y0001497047D02*
X0002311023Y0001497047D01*
G75*
G02*
X0002318897Y0001489173J-0000007874D01*
G01*
X0002318897Y0001473425D01*
G75*
G02*
X0002311023Y0001465551I-0000007874D01*
G01*
X0002263779Y0001465551D01*
G75*
G02*
X0002255905Y0001473425J0000007874D01*
G01*
X0002255905Y0001489173D01*
G75*
G02*
X0002263779Y0001497047I0000007874D01*
G01*
G37*
G36*
G01*
X0002263779Y0001546259D02*
X0002311023Y0001546259D01*
G75*
G02*
X0002318897Y0001538385J-0000007874D01*
G01*
X0002318897Y0001522637D01*
G75*
G02*
X0002311023Y0001514763I-0000007874D01*
G01*
X0002263779Y0001514763D01*
G75*
G02*
X0002255905Y0001522637J0000007874D01*
G01*
X0002255905Y0001538385D01*
G75*
G02*
X0002263779Y0001546259I0000007874D01*
G01*
G37*
G36*
G01*
X0002263779Y0001595472D02*
X0002311023Y0001595472D01*
G75*
G02*
X0002318897Y0001587598J-0000007874D01*
G01*
X0002318897Y0001571850D01*
G75*
G02*
X0002311023Y0001563976I-0000007874D01*
G01*
X0002263779Y0001563976D01*
G75*
G02*
X0002255905Y0001571850J0000007874D01*
G01*
X0002255905Y0001587598D01*
G75*
G02*
X0002263779Y0001595472I0000007874D01*
G01*
G37*
D22*
X0001857283Y0001984244D03*
X0001922244Y0001984244D03*
X0001922244Y0002110244D03*
X0001857283Y0002110244D03*
X0002093503Y0001984244D03*
X0002158464Y0001984244D03*
X0002158464Y0002110244D03*
X0002093503Y0002110244D03*
G36*
G01*
X0002077755Y0001800196D02*
X0002077755Y0001821850D01*
G75*
G02*
X0002085629Y0001829724I0000007874D01*
G01*
X0002101377Y0001829724D01*
G75*
G02*
X0002109251Y0001821850J-0000007874D01*
G01*
X0002109251Y0001800196D01*
G75*
G02*
X0002101377Y0001792322I-0000007874D01*
G01*
X0002085629Y0001792322D01*
G75*
G02*
X0002077755Y0001800196J0000007874D01*
G01*
G37*
G36*
G01*
X0002142716Y0001800196D02*
X0002142716Y0001821850D01*
G75*
G02*
X0002150590Y0001829724I0000007874D01*
G01*
X0002166338Y0001829724D01*
G75*
G02*
X0002174212Y0001821850J-0000007874D01*
G01*
X0002174212Y0001800196D01*
G75*
G02*
X0002166338Y0001792322I-0000007874D01*
G01*
X0002150590Y0001792322D01*
G75*
G02*
X0002142716Y0001800196J0000007874D01*
G01*
G37*
G36*
G01*
X0002348425Y0001875000D02*
X0002446850Y0001875000D01*
G75*
G02*
X0002456692Y0001865157J-0000009842D01*
G01*
X0002456692Y0001802165D01*
G75*
G02*
X0002446850Y0001792322I-0000009842D01*
G01*
X0002348425Y0001792322D01*
G75*
G02*
X0002338582Y0001802165J0000009842D01*
G01*
X0002338582Y0001865157D01*
G75*
G02*
X0002348425Y0001875000I0000009842D01*
G01*
G37*
G36*
G01*
X0002348425Y0002124999D02*
X0002446850Y0002124999D01*
G75*
G02*
X0002456692Y0002115157J-0000009842D01*
G01*
X0002456692Y0002052165D01*
G75*
G02*
X0002446850Y0002042322I-0000009842D01*
G01*
X0002348425Y0002042322D01*
G75*
G02*
X0002338582Y0002052165J0000009842D01*
G01*
X0002338582Y0002115157D01*
G75*
G02*
X0002348425Y0002124999I0000009842D01*
G01*
G37*
G36*
G01*
X0002259842Y0001949803D02*
X0002307086Y0001949803D01*
G75*
G02*
X0002314960Y0001941929J-0000007874D01*
G01*
X0002314960Y0001926181D01*
G75*
G02*
X0002307086Y0001918307I-0000007874D01*
G01*
X0002259842Y0001918307D01*
G75*
G02*
X0002251968Y0001926181J0000007874D01*
G01*
X0002251968Y0001941929D01*
G75*
G02*
X0002259842Y0001949803I0000007874D01*
G01*
G37*
G36*
G01*
X0002259842Y0001999015D02*
X0002307086Y0001999015D01*
G75*
G02*
X0002314960Y0001991141J-0000007874D01*
G01*
X0002314960Y0001975393D01*
G75*
G02*
X0002307086Y0001967519I-0000007874D01*
G01*
X0002259842Y0001967519D01*
G75*
G02*
X0002251968Y0001975393J0000007874D01*
G01*
X0002251968Y0001991141D01*
G75*
G02*
X0002259842Y0001999015I0000007874D01*
G01*
G37*
G36*
G01*
X0001899606Y0001638779D02*
X0001801181Y0001638779D01*
G75*
G02*
X0001791338Y0001648622J0000009842D01*
G01*
X0001791338Y0001711614D01*
G75*
G02*
X0001801181Y0001721456I0000009842D01*
G01*
X0001899606Y0001721456D01*
G75*
G02*
X0001909448Y0001711614J-0000009842D01*
G01*
X0001909448Y0001648622D01*
G75*
G02*
X0001899606Y0001638779I-0000009842D01*
G01*
G37*
G36*
G01*
X0001899606Y0001290354D02*
X0001801181Y0001290354D01*
G75*
G02*
X0001791338Y0001300196J0000009842D01*
G01*
X0001791338Y0001363189D01*
G75*
G02*
X0001801181Y0001373031I0000009842D01*
G01*
X0001899606Y0001373031D01*
G75*
G02*
X0001909448Y0001363189J-0000009842D01*
G01*
X0001909448Y0001300196D01*
G75*
G02*
X0001899606Y0001290354I-0000009842D01*
G01*
G37*
G36*
G01*
X0001988188Y0001563976D02*
X0001940944Y0001563976D01*
G75*
G02*
X0001933070Y0001571850J0000007874D01*
G01*
X0001933070Y0001587598D01*
G75*
G02*
X0001940944Y0001595472I0000007874D01*
G01*
X0001988188Y0001595472D01*
G75*
G02*
X0001996062Y0001587598J-0000007874D01*
G01*
X0001996062Y0001571850D01*
G75*
G02*
X0001988188Y0001563976I-0000007874D01*
G01*
G37*
G36*
G01*
X0001988188Y0001514763D02*
X0001940944Y0001514763D01*
G75*
G02*
X0001933070Y0001522637J0000007874D01*
G01*
X0001933070Y0001538385D01*
G75*
G02*
X0001940944Y0001546259I0000007874D01*
G01*
X0001988188Y0001546259D01*
G75*
G02*
X0001996062Y0001538385J-0000007874D01*
G01*
X0001996062Y0001522637D01*
G75*
G02*
X0001988188Y0001514763I-0000007874D01*
G01*
G37*
G36*
G01*
X0001988188Y0001465551D02*
X0001940944Y0001465551D01*
G75*
G02*
X0001933070Y0001473425J0000007874D01*
G01*
X0001933070Y0001489173D01*
G75*
G02*
X0001940944Y0001497047I0000007874D01*
G01*
X0001988188Y0001497047D01*
G75*
G02*
X0001996062Y0001489173J-0000007874D01*
G01*
X0001996062Y0001473425D01*
G75*
G02*
X0001988188Y0001465551I-0000007874D01*
G01*
G37*
G36*
G01*
X0001988188Y0001416338D02*
X0001940944Y0001416338D01*
G75*
G02*
X0001933070Y0001424212J0000007874D01*
G01*
X0001933070Y0001439960D01*
G75*
G02*
X0001940944Y0001447834I0000007874D01*
G01*
X0001988188Y0001447834D01*
G75*
G02*
X0001996062Y0001439960J-0000007874D01*
G01*
X0001996062Y0001424212D01*
G75*
G02*
X0001988188Y0001416338I-0000007874D01*
G01*
G37*
G04 next file*
G04 #@! TF.GenerationSoftware,KiCad,Pcbnew,(5.1.10)-1*
G04 #@! TF.CreationDate,2021-06-29T14:50:17+09:00*
G04 #@! TF.ProjectId,ble_spo2_dgmif,626c655f-7370-46f3-925f-64676d69662e,rev?*
G04 #@! TF.SameCoordinates,Original*
G04 #@! TF.FileFunction,Soldermask,Bot*
G04 #@! TF.FilePolarity,Negative*
G04 Gerber Fmt 4.6, Leading zero omitted, Abs format (unit mm)*
G04 Created by KiCad (PCBNEW (5.1.10)-1) date 2021-06-29 14:50:17*
G01*
G04 APERTURE LIST*
G04 APERTURE END LIST*
D23*
X-0003937007Y0007165354D02*
X0000124999Y0001984244D03*
X0000189960Y0001984244D03*
X0000189960Y0002110244D03*
X0000124999Y0002110244D03*
X0000361220Y0001984244D03*
X0000426181Y0001984244D03*
X0000426181Y0002110244D03*
X0000361220Y0002110244D03*
G36*
G01*
X0000345472Y0001800196D02*
X0000345472Y0001821850D01*
G75*
G02*
X0000353346Y0001829724I0000007874D01*
G01*
X0000369094Y0001829724D01*
G75*
G02*
X0000376968Y0001821850J-0000007874D01*
G01*
X0000376968Y0001800196D01*
G75*
G02*
X0000369094Y0001792322I-0000007874D01*
G01*
X0000353346Y0001792322D01*
G75*
G02*
X0000345472Y0001800196J0000007874D01*
G01*
G37*
G36*
G01*
X0000410433Y0001800196D02*
X0000410433Y0001821850D01*
G75*
G02*
X0000418307Y0001829724I0000007874D01*
G01*
X0000434055Y0001829724D01*
G75*
G02*
X0000441929Y0001821850J-0000007874D01*
G01*
X0000441929Y0001800196D01*
G75*
G02*
X0000434055Y0001792322I-0000007874D01*
G01*
X0000418307Y0001792322D01*
G75*
G02*
X0000410433Y0001800196J0000007874D01*
G01*
G37*
D24*
X0000724803Y0001311968D03*
X0000724803Y0001411968D03*
X0000724803Y0001511968D03*
X0000724803Y0001611968D03*
X0000324803Y0001611968D03*
X0000324803Y0001511968D03*
X0000324803Y0001411968D03*
X0000324803Y0001311968D03*
G36*
G01*
X0000616141Y0001875000D02*
X0000714566Y0001875000D01*
G75*
G02*
X0000724409Y0001865157J-0000009842D01*
G01*
X0000724409Y0001802165D01*
G75*
G02*
X0000714566Y0001792322I-0000009842D01*
G01*
X0000616141Y0001792322D01*
G75*
G02*
X0000606299Y0001802165J0000009842D01*
G01*
X0000606299Y0001865157D01*
G75*
G02*
X0000616141Y0001875000I0000009842D01*
G01*
G37*
G36*
G01*
X0000616141Y0002124999D02*
X0000714566Y0002124999D01*
G75*
G02*
X0000724409Y0002115157J-0000009842D01*
G01*
X0000724409Y0002052165D01*
G75*
G02*
X0000714566Y0002042322I-0000009842D01*
G01*
X0000616141Y0002042322D01*
G75*
G02*
X0000606299Y0002052165J0000009842D01*
G01*
X0000606299Y0002115157D01*
G75*
G02*
X0000616141Y0002124999I0000009842D01*
G01*
G37*
G36*
G01*
X0000527559Y0001949803D02*
X0000574803Y0001949803D01*
G75*
G02*
X0000582677Y0001941929J-0000007874D01*
G01*
X0000582677Y0001926181D01*
G75*
G02*
X0000574803Y0001918307I-0000007874D01*
G01*
X0000527559Y0001918307D01*
G75*
G02*
X0000519685Y0001926181J0000007874D01*
G01*
X0000519685Y0001941929D01*
G75*
G02*
X0000527559Y0001949803I0000007874D01*
G01*
G37*
G36*
G01*
X0000527559Y0001999015D02*
X0000574803Y0001999015D01*
G75*
G02*
X0000582677Y0001991141J-0000007874D01*
G01*
X0000582677Y0001975393D01*
G75*
G02*
X0000574803Y0001967519I-0000007874D01*
G01*
X0000527559Y0001967519D01*
G75*
G02*
X0000519685Y0001975393J0000007874D01*
G01*
X0000519685Y0001991141D01*
G75*
G02*
X0000527559Y0001999015I0000007874D01*
G01*
G37*
G36*
G01*
X0000167322Y0001638779D02*
X0000068897Y0001638779D01*
G75*
G02*
X0000059055Y0001648622J0000009842D01*
G01*
X0000059055Y0001711614D01*
G75*
G02*
X0000068897Y0001721456I0000009842D01*
G01*
X0000167322Y0001721456D01*
G75*
G02*
X0000177165Y0001711614J-0000009842D01*
G01*
X0000177165Y0001648622D01*
G75*
G02*
X0000167322Y0001638779I-0000009842D01*
G01*
G37*
G36*
G01*
X0000167322Y0001290354D02*
X0000068897Y0001290354D01*
G75*
G02*
X0000059055Y0001300196J0000009842D01*
G01*
X0000059055Y0001363188D01*
G75*
G02*
X0000068897Y0001373031I0000009842D01*
G01*
X0000167322Y0001373031D01*
G75*
G02*
X0000177165Y0001363188J-0000009842D01*
G01*
X0000177165Y0001300196D01*
G75*
G02*
X0000167322Y0001290354I-0000009842D01*
G01*
G37*
G36*
G01*
X0000255905Y0001563976D02*
X0000208661Y0001563976D01*
G75*
G02*
X0000200787Y0001571850J0000007874D01*
G01*
X0000200787Y0001587598D01*
G75*
G02*
X0000208661Y0001595472I0000007874D01*
G01*
X0000255905Y0001595472D01*
G75*
G02*
X0000263779Y0001587598J-0000007874D01*
G01*
X0000263779Y0001571850D01*
G75*
G02*
X0000255905Y0001563976I-0000007874D01*
G01*
G37*
G36*
G01*
X0000255905Y0001514763D02*
X0000208661Y0001514763D01*
G75*
G02*
X0000200787Y0001522637J0000007874D01*
G01*
X0000200787Y0001538385D01*
G75*
G02*
X0000208661Y0001546259I0000007874D01*
G01*
X0000255905Y0001546259D01*
G75*
G02*
X0000263779Y0001538385J-0000007874D01*
G01*
X0000263779Y0001522637D01*
G75*
G02*
X0000255905Y0001514763I-0000007874D01*
G01*
G37*
G36*
G01*
X0000255905Y0001465551D02*
X0000208661Y0001465551D01*
G75*
G02*
X0000200787Y0001473425J0000007874D01*
G01*
X0000200787Y0001489173D01*
G75*
G02*
X0000208661Y0001497047I0000007874D01*
G01*
X0000255905Y0001497047D01*
G75*
G02*
X0000263779Y0001489173J-0000007874D01*
G01*
X0000263779Y0001473425D01*
G75*
G02*
X0000255905Y0001465551I-0000007874D01*
G01*
G37*
G36*
G01*
X0000255905Y0001416338D02*
X0000208661Y0001416338D01*
G75*
G02*
X0000200787Y0001424212J0000007874D01*
G01*
X0000200787Y0001439960D01*
G75*
G02*
X0000208661Y0001447834I0000007874D01*
G01*
X0000255905Y0001447834D01*
G75*
G02*
X0000263779Y0001439960J-0000007874D01*
G01*
X0000263779Y0001424212D01*
G75*
G02*
X0000255905Y0001416338I-0000007874D01*
G01*
G37*
G04 next file*
G04 #@! TF.GenerationSoftware,KiCad,Pcbnew,(5.1.10)-1*
G04 #@! TF.CreationDate,2021-06-29T14:50:17+09:00*
G04 #@! TF.ProjectId,ble_spo2_dgmif,626c655f-7370-46f3-925f-64676d69662e,rev?*
G04 #@! TF.SameCoordinates,Original*
G04 #@! TF.FileFunction,Soldermask,Bot*
G04 #@! TF.FilePolarity,Negative*
G04 Gerber Fmt 4.6, Leading zero omitted, Abs format (unit mm)*
G04 Created by KiCad (PCBNEW (5.1.10)-1) date 2021-06-29 14:50:17*
G01*
G04 APERTURE LIST*
G04 APERTURE END LIST*
D25*
X-0003070866Y0005905511D02*
X0000991141Y0000724401D03*
X0001056102Y0000724401D03*
X0001056102Y0000850401D03*
X0000991141Y0000850401D03*
X0001227362Y0000724401D03*
X0001292322Y0000724401D03*
X0001292322Y0000850401D03*
X0001227362Y0000850401D03*
G36*
G01*
X0001211614Y0000540354D02*
X0001211614Y0000562007D01*
G75*
G02*
X0001219488Y0000569881I0000007874D01*
G01*
X0001235236Y0000569881D01*
G75*
G02*
X0001243110Y0000562007J-0000007874D01*
G01*
X0001243110Y0000540354D01*
G75*
G02*
X0001235236Y0000532480I-0000007874D01*
G01*
X0001219488Y0000532480D01*
G75*
G02*
X0001211614Y0000540354J0000007874D01*
G01*
G37*
G36*
G01*
X0001276574Y0000540354D02*
X0001276574Y0000562007D01*
G75*
G02*
X0001284448Y0000569881I0000007874D01*
G01*
X0001300196Y0000569881D01*
G75*
G02*
X0001308070Y0000562007J-0000007874D01*
G01*
X0001308070Y0000540354D01*
G75*
G02*
X0001300196Y0000532480I-0000007874D01*
G01*
X0001284448Y0000532480D01*
G75*
G02*
X0001276574Y0000540354J0000007874D01*
G01*
G37*
D26*
X0001590944Y0000052125D03*
X0001590944Y0000152125D03*
X0001590944Y0000252125D03*
X0001590944Y0000352125D03*
X0001190944Y0000352125D03*
X0001190944Y0000252125D03*
X0001190944Y0000152125D03*
X0001190944Y0000052125D03*
G36*
G01*
X0001482283Y0000615157D02*
X0001580708Y0000615157D01*
G75*
G02*
X0001590551Y0000605314J-0000009842D01*
G01*
X0001590551Y0000542322D01*
G75*
G02*
X0001580708Y0000532480I-0000009842D01*
G01*
X0001482283Y0000532480D01*
G75*
G02*
X0001472440Y0000542322J0000009842D01*
G01*
X0001472440Y0000605314D01*
G75*
G02*
X0001482283Y0000615157I0000009842D01*
G01*
G37*
G36*
G01*
X0001482283Y0000865157D02*
X0001580708Y0000865157D01*
G75*
G02*
X0001590551Y0000855314J-0000009842D01*
G01*
X0001590551Y0000792322D01*
G75*
G02*
X0001580708Y0000782480I-0000009842D01*
G01*
X0001482283Y0000782480D01*
G75*
G02*
X0001472440Y0000792322J0000009842D01*
G01*
X0001472440Y0000855314D01*
G75*
G02*
X0001482283Y0000865157I0000009842D01*
G01*
G37*
G36*
G01*
X0001393700Y0000689960D02*
X0001440944Y0000689960D01*
G75*
G02*
X0001448818Y0000682086J-0000007874D01*
G01*
X0001448818Y0000666338D01*
G75*
G02*
X0001440944Y0000658464I-0000007874D01*
G01*
X0001393700Y0000658464D01*
G75*
G02*
X0001385826Y0000666338J0000007874D01*
G01*
X0001385826Y0000682086D01*
G75*
G02*
X0001393700Y0000689960I0000007874D01*
G01*
G37*
G36*
G01*
X0001393700Y0000739173D02*
X0001440944Y0000739173D01*
G75*
G02*
X0001448818Y0000731299J-0000007874D01*
G01*
X0001448818Y0000715551D01*
G75*
G02*
X0001440944Y0000707677I-0000007874D01*
G01*
X0001393700Y0000707677D01*
G75*
G02*
X0001385826Y0000715551J0000007874D01*
G01*
X0001385826Y0000731299D01*
G75*
G02*
X0001393700Y0000739173I0000007874D01*
G01*
G37*
G36*
G01*
X0001033464Y0000378937D02*
X0000935039Y0000378937D01*
G75*
G02*
X0000925196Y0000388779J0000009842D01*
G01*
X0000925196Y0000451771D01*
G75*
G02*
X0000935039Y0000461614I0000009842D01*
G01*
X0001033464Y0000461614D01*
G75*
G02*
X0001043307Y0000451771J-0000009842D01*
G01*
X0001043307Y0000388779D01*
G75*
G02*
X0001033464Y0000378937I-0000009842D01*
G01*
G37*
G36*
G01*
X0001033464Y0000030511D02*
X0000935039Y0000030511D01*
G75*
G02*
X0000925196Y0000040354J0000009842D01*
G01*
X0000925196Y0000103346D01*
G75*
G02*
X0000935039Y0000113188I0000009842D01*
G01*
X0001033464Y0000113188D01*
G75*
G02*
X0001043307Y0000103346J-0000009842D01*
G01*
X0001043307Y0000040354D01*
G75*
G02*
X0001033464Y0000030511I-0000009842D01*
G01*
G37*
G36*
G01*
X0001122047Y0000304133D02*
X0001074803Y0000304133D01*
G75*
G02*
X0001066929Y0000312007J0000007874D01*
G01*
X0001066929Y0000327755D01*
G75*
G02*
X0001074803Y0000335629I0000007874D01*
G01*
X0001122047Y0000335629D01*
G75*
G02*
X0001129921Y0000327755J-0000007874D01*
G01*
X0001129921Y0000312007D01*
G75*
G02*
X0001122047Y0000304133I-0000007874D01*
G01*
G37*
G36*
G01*
X0001122047Y0000254921D02*
X0001074803Y0000254921D01*
G75*
G02*
X0001066929Y0000262795J0000007874D01*
G01*
X0001066929Y0000278543D01*
G75*
G02*
X0001074803Y0000286417I0000007874D01*
G01*
X0001122047Y0000286417D01*
G75*
G02*
X0001129921Y0000278543J-0000007874D01*
G01*
X0001129921Y0000262795D01*
G75*
G02*
X0001122047Y0000254921I-0000007874D01*
G01*
G37*
G36*
G01*
X0001122047Y0000205708D02*
X0001074803Y0000205708D01*
G75*
G02*
X0001066929Y0000213582J0000007874D01*
G01*
X0001066929Y0000229330D01*
G75*
G02*
X0001074803Y0000237204I0000007874D01*
G01*
X0001122047Y0000237204D01*
G75*
G02*
X0001129921Y0000229330J-0000007874D01*
G01*
X0001129921Y0000213582D01*
G75*
G02*
X0001122047Y0000205708I-0000007874D01*
G01*
G37*
G36*
G01*
X0001122047Y0000156496D02*
X0001074803Y0000156496D01*
G75*
G02*
X0001066929Y0000164370J0000007874D01*
G01*
X0001066929Y0000180118D01*
G75*
G02*
X0001074803Y0000187992I0000007874D01*
G01*
X0001122047Y0000187992D01*
G75*
G02*
X0001129921Y0000180118J-0000007874D01*
G01*
X0001129921Y0000164370D01*
G75*
G02*
X0001122047Y0000156496I-0000007874D01*
G01*
G37*
G04 next file*
G04 #@! TF.GenerationSoftware,KiCad,Pcbnew,(5.1.10)-1*
G04 #@! TF.CreationDate,2021-06-29T15:19:49+09:00*
G04 #@! TF.ProjectId,BLE_PPG_v1.1,424c455f-5050-4475-9f76-312e312e6b69,rev?*
G04 #@! TF.SameCoordinates,Original*
G04 #@! TF.FileFunction,Soldermask,Bot*
G04 #@! TF.FilePolarity,Negative*
G04 Gerber Fmt 4.6, Leading zero omitted, Abs format (unit mm)*
G04 Created by KiCad (PCBNEW (5.1.10)-1) date 2021-06-29 15:19:49*
G01*
G04 APERTURE LIST*
G04 APERTURE END LIST*
G36*
G01*
X0002352362Y0000113188D02*
X0002450787Y0000113188D01*
G75*
G02*
X0002460629Y0000103346J-0000009842D01*
G01*
X0002460629Y0000040354D01*
G75*
G02*
X0002450787Y0000030511I-0000009842D01*
G01*
X0002352362Y0000030511D01*
G75*
G02*
X0002342519Y0000040354J0000009842D01*
G01*
X0002342519Y0000103346D01*
G75*
G02*
X0002352362Y0000113188I0000009842D01*
G01*
G37*
G36*
G01*
X0002352362Y0000461614D02*
X0002450787Y0000461614D01*
G75*
G02*
X0002460629Y0000451771J-0000009842D01*
G01*
X0002460629Y0000388779D01*
G75*
G02*
X0002450787Y0000378937I-0000009842D01*
G01*
X0002352362Y0000378937D01*
G75*
G02*
X0002342519Y0000388779J0000009842D01*
G01*
X0002342519Y0000451771D01*
G75*
G02*
X0002352362Y0000461614I0000009842D01*
G01*
G37*
G36*
G01*
X0002263779Y0000187992D02*
X0002311023Y0000187992D01*
G75*
G02*
X0002318897Y0000180118J-0000007874D01*
G01*
X0002318897Y0000164370D01*
G75*
G02*
X0002311023Y0000156496I-0000007874D01*
G01*
X0002263779Y0000156496D01*
G75*
G02*
X0002255905Y0000164370J0000007874D01*
G01*
X0002255905Y0000180118D01*
G75*
G02*
X0002263779Y0000187992I0000007874D01*
G01*
G37*
G36*
G01*
X0002263779Y0000237204D02*
X0002311023Y0000237204D01*
G75*
G02*
X0002318897Y0000229330J-0000007874D01*
G01*
X0002318897Y0000213582D01*
G75*
G02*
X0002311023Y0000205708I-0000007874D01*
G01*
X0002263779Y0000205708D01*
G75*
G02*
X0002255905Y0000213582J0000007874D01*
G01*
X0002255905Y0000229330D01*
G75*
G02*
X0002263779Y0000237204I0000007874D01*
G01*
G37*
G36*
G01*
X0002263779Y0000286417D02*
X0002311023Y0000286417D01*
G75*
G02*
X0002318897Y0000278543J-0000007874D01*
G01*
X0002318897Y0000262795D01*
G75*
G02*
X0002311023Y0000254921I-0000007874D01*
G01*
X0002263779Y0000254921D01*
G75*
G02*
X0002255905Y0000262795J0000007874D01*
G01*
X0002255905Y0000278543D01*
G75*
G02*
X0002263779Y0000286417I0000007874D01*
G01*
G37*
G36*
G01*
X0002263779Y0000335629D02*
X0002311023Y0000335629D01*
G75*
G02*
X0002318897Y0000327755J-0000007874D01*
G01*
X0002318897Y0000312007D01*
G75*
G02*
X0002311023Y0000304133I-0000007874D01*
G01*
X0002263779Y0000304133D01*
G75*
G02*
X0002255905Y0000312007J0000007874D01*
G01*
X0002255905Y0000327755D01*
G75*
G02*
X0002263779Y0000335629I0000007874D01*
G01*
G37*
D27*
X0001857283Y0000724401D03*
X0001922244Y0000724401D03*
X0001922244Y0000850401D03*
X0001857283Y0000850401D03*
X0002093503Y0000724401D03*
X0002158464Y0000724401D03*
X0002158464Y0000850401D03*
X0002093503Y0000850401D03*
G36*
G01*
X0002077755Y0000540354D02*
X0002077755Y0000562007D01*
G75*
G02*
X0002085629Y0000569881I0000007874D01*
G01*
X0002101377Y0000569881D01*
G75*
G02*
X0002109251Y0000562007J-0000007874D01*
G01*
X0002109251Y0000540354D01*
G75*
G02*
X0002101377Y0000532480I-0000007874D01*
G01*
X0002085629Y0000532480D01*
G75*
G02*
X0002077755Y0000540354J0000007874D01*
G01*
G37*
G36*
G01*
X0002142716Y0000540354D02*
X0002142716Y0000562007D01*
G75*
G02*
X0002150590Y0000569881I0000007874D01*
G01*
X0002166338Y0000569881D01*
G75*
G02*
X0002174212Y0000562007J-0000007874D01*
G01*
X0002174212Y0000540354D01*
G75*
G02*
X0002166338Y0000532480I-0000007874D01*
G01*
X0002150590Y0000532480D01*
G75*
G02*
X0002142716Y0000540354J0000007874D01*
G01*
G37*
G36*
G01*
X0002348425Y0000615157D02*
X0002446850Y0000615157D01*
G75*
G02*
X0002456692Y0000605314J-0000009842D01*
G01*
X0002456692Y0000542322D01*
G75*
G02*
X0002446850Y0000532480I-0000009842D01*
G01*
X0002348425Y0000532480D01*
G75*
G02*
X0002338582Y0000542322J0000009842D01*
G01*
X0002338582Y0000605314D01*
G75*
G02*
X0002348425Y0000615157I0000009842D01*
G01*
G37*
G36*
G01*
X0002348425Y0000865157D02*
X0002446850Y0000865157D01*
G75*
G02*
X0002456692Y0000855314J-0000009842D01*
G01*
X0002456692Y0000792322D01*
G75*
G02*
X0002446850Y0000782480I-0000009842D01*
G01*
X0002348425Y0000782480D01*
G75*
G02*
X0002338582Y0000792322J0000009842D01*
G01*
X0002338582Y0000855314D01*
G75*
G02*
X0002348425Y0000865157I0000009842D01*
G01*
G37*
G36*
G01*
X0002259842Y0000689960D02*
X0002307086Y0000689960D01*
G75*
G02*
X0002314960Y0000682086J-0000007874D01*
G01*
X0002314960Y0000666338D01*
G75*
G02*
X0002307086Y0000658464I-0000007874D01*
G01*
X0002259842Y0000658464D01*
G75*
G02*
X0002251968Y0000666338J0000007874D01*
G01*
X0002251968Y0000682086D01*
G75*
G02*
X0002259842Y0000689960I0000007874D01*
G01*
G37*
G36*
G01*
X0002259842Y0000739173D02*
X0002307086Y0000739173D01*
G75*
G02*
X0002314960Y0000731299J-0000007874D01*
G01*
X0002314960Y0000715551D01*
G75*
G02*
X0002307086Y0000707677I-0000007874D01*
G01*
X0002259842Y0000707677D01*
G75*
G02*
X0002251968Y0000715551J0000007874D01*
G01*
X0002251968Y0000731299D01*
G75*
G02*
X0002259842Y0000739173I0000007874D01*
G01*
G37*
G36*
G01*
X0001899606Y0000378937D02*
X0001801181Y0000378937D01*
G75*
G02*
X0001791338Y0000388779J0000009842D01*
G01*
X0001791338Y0000451771D01*
G75*
G02*
X0001801181Y0000461614I0000009842D01*
G01*
X0001899606Y0000461614D01*
G75*
G02*
X0001909448Y0000451771J-0000009842D01*
G01*
X0001909448Y0000388779D01*
G75*
G02*
X0001899606Y0000378937I-0000009842D01*
G01*
G37*
G36*
G01*
X0001899606Y0000030511D02*
X0001801181Y0000030511D01*
G75*
G02*
X0001791338Y0000040354J0000009842D01*
G01*
X0001791338Y0000103346D01*
G75*
G02*
X0001801181Y0000113188I0000009842D01*
G01*
X0001899606Y0000113188D01*
G75*
G02*
X0001909448Y0000103346J-0000009842D01*
G01*
X0001909448Y0000040354D01*
G75*
G02*
X0001899606Y0000030511I-0000009842D01*
G01*
G37*
G36*
G01*
X0001988188Y0000304133D02*
X0001940944Y0000304133D01*
G75*
G02*
X0001933070Y0000312007J0000007874D01*
G01*
X0001933070Y0000327755D01*
G75*
G02*
X0001940944Y0000335629I0000007874D01*
G01*
X0001988188Y0000335629D01*
G75*
G02*
X0001996062Y0000327755J-0000007874D01*
G01*
X0001996062Y0000312007D01*
G75*
G02*
X0001988188Y0000304133I-0000007874D01*
G01*
G37*
G36*
G01*
X0001988188Y0000254921D02*
X0001940944Y0000254921D01*
G75*
G02*
X0001933070Y0000262795J0000007874D01*
G01*
X0001933070Y0000278543D01*
G75*
G02*
X0001940944Y0000286417I0000007874D01*
G01*
X0001988188Y0000286417D01*
G75*
G02*
X0001996062Y0000278543J-0000007874D01*
G01*
X0001996062Y0000262795D01*
G75*
G02*
X0001988188Y0000254921I-0000007874D01*
G01*
G37*
G36*
G01*
X0001988188Y0000205708D02*
X0001940944Y0000205708D01*
G75*
G02*
X0001933070Y0000213582J0000007874D01*
G01*
X0001933070Y0000229330D01*
G75*
G02*
X0001940944Y0000237204I0000007874D01*
G01*
X0001988188Y0000237204D01*
G75*
G02*
X0001996062Y0000229330J-0000007874D01*
G01*
X0001996062Y0000213582D01*
G75*
G02*
X0001988188Y0000205708I-0000007874D01*
G01*
G37*
G36*
G01*
X0001988188Y0000156496D02*
X0001940944Y0000156496D01*
G75*
G02*
X0001933070Y0000164370J0000007874D01*
G01*
X0001933070Y0000180118D01*
G75*
G02*
X0001940944Y0000187992I0000007874D01*
G01*
X0001988188Y0000187992D01*
G75*
G02*
X0001996062Y0000180118J-0000007874D01*
G01*
X0001996062Y0000164370D01*
G75*
G02*
X0001988188Y0000156496I-0000007874D01*
G01*
G37*
G04 next file*
G04 #@! TF.GenerationSoftware,KiCad,Pcbnew,(5.1.10)-1*
G04 #@! TF.CreationDate,2021-06-29T15:19:49+09:00*
G04 #@! TF.ProjectId,BLE_PPG_v1.1,424c455f-5050-4475-9f76-312e312e6b69,rev?*
G04 #@! TF.SameCoordinates,Original*
G04 #@! TF.FileFunction,Soldermask,Bot*
G04 #@! TF.FilePolarity,Negative*
G04 Gerber Fmt 4.6, Leading zero omitted, Abs format (unit mm)*
G04 Created by KiCad (PCBNEW (5.1.10)-1) date 2021-06-29 15:19:49*
G01*
G04 APERTURE LIST*
G04 APERTURE END LIST*
G36*
G01*
X0003218503Y0000113188D02*
X0003316929Y0000113188D01*
G75*
G02*
X0003326771Y0000103346J-0000009842D01*
G01*
X0003326771Y0000040354D01*
G75*
G02*
X0003316929Y0000030511I-0000009842D01*
G01*
X0003218503Y0000030511D01*
G75*
G02*
X0003208661Y0000040354J0000009842D01*
G01*
X0003208661Y0000103346D01*
G75*
G02*
X0003218503Y0000113188I0000009842D01*
G01*
G37*
G36*
G01*
X0003218503Y0000461614D02*
X0003316929Y0000461614D01*
G75*
G02*
X0003326771Y0000451771J-0000009842D01*
G01*
X0003326771Y0000388779D01*
G75*
G02*
X0003316929Y0000378937I-0000009842D01*
G01*
X0003218503Y0000378937D01*
G75*
G02*
X0003208661Y0000388779J0000009842D01*
G01*
X0003208661Y0000451771D01*
G75*
G02*
X0003218503Y0000461614I0000009842D01*
G01*
G37*
G36*
G01*
X0003129921Y0000187992D02*
X0003177165Y0000187992D01*
G75*
G02*
X0003185039Y0000180118J-0000007874D01*
G01*
X0003185039Y0000164370D01*
G75*
G02*
X0003177165Y0000156496I-0000007874D01*
G01*
X0003129921Y0000156496D01*
G75*
G02*
X0003122047Y0000164370J0000007874D01*
G01*
X0003122047Y0000180118D01*
G75*
G02*
X0003129921Y0000187992I0000007874D01*
G01*
G37*
G36*
G01*
X0003129921Y0000237204D02*
X0003177165Y0000237204D01*
G75*
G02*
X0003185039Y0000229330J-0000007874D01*
G01*
X0003185039Y0000213582D01*
G75*
G02*
X0003177165Y0000205708I-0000007874D01*
G01*
X0003129921Y0000205708D01*
G75*
G02*
X0003122047Y0000213582J0000007874D01*
G01*
X0003122047Y0000229330D01*
G75*
G02*
X0003129921Y0000237204I0000007874D01*
G01*
G37*
G36*
G01*
X0003129921Y0000286417D02*
X0003177165Y0000286417D01*
G75*
G02*
X0003185039Y0000278543J-0000007874D01*
G01*
X0003185039Y0000262795D01*
G75*
G02*
X0003177165Y0000254921I-0000007874D01*
G01*
X0003129921Y0000254921D01*
G75*
G02*
X0003122047Y0000262795J0000007874D01*
G01*
X0003122047Y0000278543D01*
G75*
G02*
X0003129921Y0000286417I0000007874D01*
G01*
G37*
G36*
G01*
X0003129921Y0000335629D02*
X0003177165Y0000335629D01*
G75*
G02*
X0003185039Y0000327755J-0000007874D01*
G01*
X0003185039Y0000312007D01*
G75*
G02*
X0003177165Y0000304133I-0000007874D01*
G01*
X0003129921Y0000304133D01*
G75*
G02*
X0003122047Y0000312007J0000007874D01*
G01*
X0003122047Y0000327755D01*
G75*
G02*
X0003129921Y0000335629I0000007874D01*
G01*
G37*
D28*
X0002723425Y0000724401D03*
X0002788385Y0000724401D03*
X0002788385Y0000850401D03*
X0002723425Y0000850401D03*
X0002959645Y0000724401D03*
X0003024606Y0000724401D03*
X0003024606Y0000850401D03*
X0002959645Y0000850401D03*
G36*
G01*
X0002943897Y0000540354D02*
X0002943897Y0000562007D01*
G75*
G02*
X0002951771Y0000569881I0000007874D01*
G01*
X0002967519Y0000569881D01*
G75*
G02*
X0002975393Y0000562007J-0000007874D01*
G01*
X0002975393Y0000540354D01*
G75*
G02*
X0002967519Y0000532480I-0000007874D01*
G01*
X0002951771Y0000532480D01*
G75*
G02*
X0002943897Y0000540354J0000007874D01*
G01*
G37*
G36*
G01*
X0003008858Y0000540354D02*
X0003008858Y0000562007D01*
G75*
G02*
X0003016732Y0000569881I0000007874D01*
G01*
X0003032480Y0000569881D01*
G75*
G02*
X0003040354Y0000562007J-0000007874D01*
G01*
X0003040354Y0000540354D01*
G75*
G02*
X0003032480Y0000532480I-0000007874D01*
G01*
X0003016732Y0000532480D01*
G75*
G02*
X0003008858Y0000540354J0000007874D01*
G01*
G37*
G36*
G01*
X0003214566Y0000615157D02*
X0003312992Y0000615157D01*
G75*
G02*
X0003322834Y0000605314J-0000009842D01*
G01*
X0003322834Y0000542322D01*
G75*
G02*
X0003312992Y0000532480I-0000009842D01*
G01*
X0003214566Y0000532480D01*
G75*
G02*
X0003204724Y0000542322J0000009842D01*
G01*
X0003204724Y0000605314D01*
G75*
G02*
X0003214566Y0000615157I0000009842D01*
G01*
G37*
G36*
G01*
X0003214566Y0000865157D02*
X0003312992Y0000865157D01*
G75*
G02*
X0003322834Y0000855314J-0000009842D01*
G01*
X0003322834Y0000792322D01*
G75*
G02*
X0003312992Y0000782480I-0000009842D01*
G01*
X0003214566Y0000782480D01*
G75*
G02*
X0003204724Y0000792322J0000009842D01*
G01*
X0003204724Y0000855314D01*
G75*
G02*
X0003214566Y0000865157I0000009842D01*
G01*
G37*
G36*
G01*
X0003125984Y0000689960D02*
X0003173228Y0000689960D01*
G75*
G02*
X0003181102Y0000682086J-0000007874D01*
G01*
X0003181102Y0000666338D01*
G75*
G02*
X0003173228Y0000658464I-0000007874D01*
G01*
X0003125984Y0000658464D01*
G75*
G02*
X0003118110Y0000666338J0000007874D01*
G01*
X0003118110Y0000682086D01*
G75*
G02*
X0003125984Y0000689960I0000007874D01*
G01*
G37*
G36*
G01*
X0003125984Y0000739173D02*
X0003173228Y0000739173D01*
G75*
G02*
X0003181102Y0000731299J-0000007874D01*
G01*
X0003181102Y0000715551D01*
G75*
G02*
X0003173228Y0000707677I-0000007874D01*
G01*
X0003125984Y0000707677D01*
G75*
G02*
X0003118110Y0000715551J0000007874D01*
G01*
X0003118110Y0000731299D01*
G75*
G02*
X0003125984Y0000739173I0000007874D01*
G01*
G37*
G36*
G01*
X0002765748Y0000378937D02*
X0002667322Y0000378937D01*
G75*
G02*
X0002657480Y0000388779J0000009842D01*
G01*
X0002657480Y0000451771D01*
G75*
G02*
X0002667322Y0000461614I0000009842D01*
G01*
X0002765748Y0000461614D01*
G75*
G02*
X0002775590Y0000451771J-0000009842D01*
G01*
X0002775590Y0000388779D01*
G75*
G02*
X0002765748Y0000378937I-0000009842D01*
G01*
G37*
G36*
G01*
X0002765748Y0000030511D02*
X0002667322Y0000030511D01*
G75*
G02*
X0002657480Y0000040354J0000009842D01*
G01*
X0002657480Y0000103346D01*
G75*
G02*
X0002667322Y0000113188I0000009842D01*
G01*
X0002765748Y0000113188D01*
G75*
G02*
X0002775590Y0000103346J-0000009842D01*
G01*
X0002775590Y0000040354D01*
G75*
G02*
X0002765748Y0000030511I-0000009842D01*
G01*
G37*
G36*
G01*
X0002854330Y0000304133D02*
X0002807086Y0000304133D01*
G75*
G02*
X0002799212Y0000312007J0000007874D01*
G01*
X0002799212Y0000327755D01*
G75*
G02*
X0002807086Y0000335629I0000007874D01*
G01*
X0002854330Y0000335629D01*
G75*
G02*
X0002862204Y0000327755J-0000007874D01*
G01*
X0002862204Y0000312007D01*
G75*
G02*
X0002854330Y0000304133I-0000007874D01*
G01*
G37*
G36*
G01*
X0002854330Y0000254921D02*
X0002807086Y0000254921D01*
G75*
G02*
X0002799212Y0000262795J0000007874D01*
G01*
X0002799212Y0000278543D01*
G75*
G02*
X0002807086Y0000286417I0000007874D01*
G01*
X0002854330Y0000286417D01*
G75*
G02*
X0002862204Y0000278543J-0000007874D01*
G01*
X0002862204Y0000262795D01*
G75*
G02*
X0002854330Y0000254921I-0000007874D01*
G01*
G37*
G36*
G01*
X0002854330Y0000205708D02*
X0002807086Y0000205708D01*
G75*
G02*
X0002799212Y0000213582J0000007874D01*
G01*
X0002799212Y0000229330D01*
G75*
G02*
X0002807086Y0000237204I0000007874D01*
G01*
X0002854330Y0000237204D01*
G75*
G02*
X0002862204Y0000229330J-0000007874D01*
G01*
X0002862204Y0000213582D01*
G75*
G02*
X0002854330Y0000205708I-0000007874D01*
G01*
G37*
G36*
G01*
X0002854330Y0000156496D02*
X0002807086Y0000156496D01*
G75*
G02*
X0002799212Y0000164370J0000007874D01*
G01*
X0002799212Y0000180118D01*
G75*
G02*
X0002807086Y0000187992I0000007874D01*
G01*
X0002854330Y0000187992D01*
G75*
G02*
X0002862204Y0000180118J-0000007874D01*
G01*
X0002862204Y0000164370D01*
G75*
G02*
X0002854330Y0000156496I-0000007874D01*
G01*
G37*
G04 next file*
G04 #@! TF.GenerationSoftware,KiCad,Pcbnew,(5.1.10)-1*
G04 #@! TF.CreationDate,2021-06-29T14:50:17+09:00*
G04 #@! TF.ProjectId,ble_spo2_dgmif,626c655f-7370-46f3-925f-64676d69662e,rev?*
G04 #@! TF.SameCoordinates,Original*
G04 #@! TF.FileFunction,Soldermask,Bot*
G04 #@! TF.FilePolarity,Negative*
G04 Gerber Fmt 4.6, Leading zero omitted, Abs format (unit mm)*
G04 Created by KiCad (PCBNEW (5.1.10)-1) date 2021-06-29 14:50:17*
G01*
G04 APERTURE LIST*
G04 APERTURE END LIST*
D29*
X-0003070866Y0007165354D02*
X0000991141Y0001984244D03*
X0001056102Y0001984244D03*
X0001056102Y0002110244D03*
X0000991141Y0002110244D03*
X0001227362Y0001984244D03*
X0001292322Y0001984244D03*
X0001292322Y0002110244D03*
X0001227362Y0002110244D03*
G36*
G01*
X0001211614Y0001800196D02*
X0001211614Y0001821850D01*
G75*
G02*
X0001219488Y0001829724I0000007874D01*
G01*
X0001235236Y0001829724D01*
G75*
G02*
X0001243110Y0001821850J-0000007874D01*
G01*
X0001243110Y0001800196D01*
G75*
G02*
X0001235236Y0001792322I-0000007874D01*
G01*
X0001219488Y0001792322D01*
G75*
G02*
X0001211614Y0001800196J0000007874D01*
G01*
G37*
G36*
G01*
X0001276574Y0001800196D02*
X0001276574Y0001821850D01*
G75*
G02*
X0001284448Y0001829724I0000007874D01*
G01*
X0001300196Y0001829724D01*
G75*
G02*
X0001308070Y0001821850J-0000007874D01*
G01*
X0001308070Y0001800196D01*
G75*
G02*
X0001300196Y0001792322I-0000007874D01*
G01*
X0001284448Y0001792322D01*
G75*
G02*
X0001276574Y0001800196J0000007874D01*
G01*
G37*
D30*
X0001590944Y0001311968D03*
X0001590944Y0001411968D03*
X0001590944Y0001511968D03*
X0001590944Y0001611968D03*
X0001190944Y0001611968D03*
X0001190944Y0001511968D03*
X0001190944Y0001411968D03*
X0001190944Y0001311968D03*
G36*
G01*
X0001482283Y0001875000D02*
X0001580708Y0001875000D01*
G75*
G02*
X0001590551Y0001865157J-0000009842D01*
G01*
X0001590551Y0001802165D01*
G75*
G02*
X0001580708Y0001792322I-0000009842D01*
G01*
X0001482283Y0001792322D01*
G75*
G02*
X0001472440Y0001802165J0000009842D01*
G01*
X0001472440Y0001865157D01*
G75*
G02*
X0001482283Y0001875000I0000009842D01*
G01*
G37*
G36*
G01*
X0001482283Y0002124999D02*
X0001580708Y0002124999D01*
G75*
G02*
X0001590551Y0002115157J-0000009842D01*
G01*
X0001590551Y0002052165D01*
G75*
G02*
X0001580708Y0002042322I-0000009842D01*
G01*
X0001482283Y0002042322D01*
G75*
G02*
X0001472440Y0002052165J0000009842D01*
G01*
X0001472440Y0002115157D01*
G75*
G02*
X0001482283Y0002124999I0000009842D01*
G01*
G37*
G36*
G01*
X0001393700Y0001949803D02*
X0001440944Y0001949803D01*
G75*
G02*
X0001448818Y0001941929J-0000007874D01*
G01*
X0001448818Y0001926181D01*
G75*
G02*
X0001440944Y0001918307I-0000007874D01*
G01*
X0001393700Y0001918307D01*
G75*
G02*
X0001385826Y0001926181J0000007874D01*
G01*
X0001385826Y0001941929D01*
G75*
G02*
X0001393700Y0001949803I0000007874D01*
G01*
G37*
G36*
G01*
X0001393700Y0001999015D02*
X0001440944Y0001999015D01*
G75*
G02*
X0001448818Y0001991141J-0000007874D01*
G01*
X0001448818Y0001975393D01*
G75*
G02*
X0001440944Y0001967519I-0000007874D01*
G01*
X0001393700Y0001967519D01*
G75*
G02*
X0001385826Y0001975393J0000007874D01*
G01*
X0001385826Y0001991141D01*
G75*
G02*
X0001393700Y0001999015I0000007874D01*
G01*
G37*
G36*
G01*
X0001033464Y0001638779D02*
X0000935039Y0001638779D01*
G75*
G02*
X0000925196Y0001648622J0000009842D01*
G01*
X0000925196Y0001711614D01*
G75*
G02*
X0000935039Y0001721456I0000009842D01*
G01*
X0001033464Y0001721456D01*
G75*
G02*
X0001043307Y0001711614J-0000009842D01*
G01*
X0001043307Y0001648622D01*
G75*
G02*
X0001033464Y0001638779I-0000009842D01*
G01*
G37*
G36*
G01*
X0001033464Y0001290354D02*
X0000935039Y0001290354D01*
G75*
G02*
X0000925196Y0001300196J0000009842D01*
G01*
X0000925196Y0001363188D01*
G75*
G02*
X0000935039Y0001373031I0000009842D01*
G01*
X0001033464Y0001373031D01*
G75*
G02*
X0001043307Y0001363188J-0000009842D01*
G01*
X0001043307Y0001300196D01*
G75*
G02*
X0001033464Y0001290354I-0000009842D01*
G01*
G37*
G36*
G01*
X0001122047Y0001563976D02*
X0001074803Y0001563976D01*
G75*
G02*
X0001066929Y0001571850J0000007874D01*
G01*
X0001066929Y0001587598D01*
G75*
G02*
X0001074803Y0001595472I0000007874D01*
G01*
X0001122047Y0001595472D01*
G75*
G02*
X0001129921Y0001587598J-0000007874D01*
G01*
X0001129921Y0001571850D01*
G75*
G02*
X0001122047Y0001563976I-0000007874D01*
G01*
G37*
G36*
G01*
X0001122047Y0001514763D02*
X0001074803Y0001514763D01*
G75*
G02*
X0001066929Y0001522637J0000007874D01*
G01*
X0001066929Y0001538385D01*
G75*
G02*
X0001074803Y0001546259I0000007874D01*
G01*
X0001122047Y0001546259D01*
G75*
G02*
X0001129921Y0001538385J-0000007874D01*
G01*
X0001129921Y0001522637D01*
G75*
G02*
X0001122047Y0001514763I-0000007874D01*
G01*
G37*
G36*
G01*
X0001122047Y0001465551D02*
X0001074803Y0001465551D01*
G75*
G02*
X0001066929Y0001473425J0000007874D01*
G01*
X0001066929Y0001489173D01*
G75*
G02*
X0001074803Y0001497047I0000007874D01*
G01*
X0001122047Y0001497047D01*
G75*
G02*
X0001129921Y0001489173J-0000007874D01*
G01*
X0001129921Y0001473425D01*
G75*
G02*
X0001122047Y0001465551I-0000007874D01*
G01*
G37*
G36*
G01*
X0001122047Y0001416338D02*
X0001074803Y0001416338D01*
G75*
G02*
X0001066929Y0001424212J0000007874D01*
G01*
X0001066929Y0001439960D01*
G75*
G02*
X0001074803Y0001447834I0000007874D01*
G01*
X0001122047Y0001447834D01*
G75*
G02*
X0001129921Y0001439960J-0000007874D01*
G01*
X0001129921Y0001424212D01*
G75*
G02*
X0001122047Y0001416338I-0000007874D01*
G01*
G37*
G04 next file*
G04 #@! TF.GenerationSoftware,KiCad,Pcbnew,(5.1.10)-1*
G04 #@! TF.CreationDate,2021-06-29T15:19:49+09:00*
G04 #@! TF.ProjectId,BLE_PPG_v1.1,424c455f-5050-4475-9f76-312e312e6b69,rev?*
G04 #@! TF.SameCoordinates,Original*
G04 #@! TF.FileFunction,Soldermask,Bot*
G04 #@! TF.FilePolarity,Negative*
G04 Gerber Fmt 4.6, Leading zero omitted, Abs format (unit mm)*
G04 Created by KiCad (PCBNEW (5.1.10)-1) date 2021-06-29 15:19:49*
G01*
G04 APERTURE LIST*
G04 APERTURE END LIST*
G36*
G01*
X0003218503Y0001373031D02*
X0003316929Y0001373031D01*
G75*
G02*
X0003326771Y0001363188J-0000009842D01*
G01*
X0003326771Y0001300196D01*
G75*
G02*
X0003316929Y0001290354I-0000009842D01*
G01*
X0003218503Y0001290354D01*
G75*
G02*
X0003208661Y0001300196J0000009842D01*
G01*
X0003208661Y0001363188D01*
G75*
G02*
X0003218503Y0001373031I0000009842D01*
G01*
G37*
G36*
G01*
X0003218503Y0001721456D02*
X0003316929Y0001721456D01*
G75*
G02*
X0003326771Y0001711614J-0000009842D01*
G01*
X0003326771Y0001648622D01*
G75*
G02*
X0003316929Y0001638779I-0000009842D01*
G01*
X0003218503Y0001638779D01*
G75*
G02*
X0003208661Y0001648622J0000009842D01*
G01*
X0003208661Y0001711614D01*
G75*
G02*
X0003218503Y0001721456I0000009842D01*
G01*
G37*
G36*
G01*
X0003129921Y0001447834D02*
X0003177165Y0001447834D01*
G75*
G02*
X0003185039Y0001439960J-0000007874D01*
G01*
X0003185039Y0001424212D01*
G75*
G02*
X0003177165Y0001416338I-0000007874D01*
G01*
X0003129921Y0001416338D01*
G75*
G02*
X0003122047Y0001424212J0000007874D01*
G01*
X0003122047Y0001439960D01*
G75*
G02*
X0003129921Y0001447834I0000007874D01*
G01*
G37*
G36*
G01*
X0003129921Y0001497047D02*
X0003177165Y0001497047D01*
G75*
G02*
X0003185039Y0001489173J-0000007874D01*
G01*
X0003185039Y0001473425D01*
G75*
G02*
X0003177165Y0001465551I-0000007874D01*
G01*
X0003129921Y0001465551D01*
G75*
G02*
X0003122047Y0001473425J0000007874D01*
G01*
X0003122047Y0001489173D01*
G75*
G02*
X0003129921Y0001497047I0000007874D01*
G01*
G37*
G36*
G01*
X0003129921Y0001546259D02*
X0003177165Y0001546259D01*
G75*
G02*
X0003185039Y0001538385J-0000007874D01*
G01*
X0003185039Y0001522637D01*
G75*
G02*
X0003177165Y0001514763I-0000007874D01*
G01*
X0003129921Y0001514763D01*
G75*
G02*
X0003122047Y0001522637J0000007874D01*
G01*
X0003122047Y0001538385D01*
G75*
G02*
X0003129921Y0001546259I0000007874D01*
G01*
G37*
G36*
G01*
X0003129921Y0001595472D02*
X0003177165Y0001595472D01*
G75*
G02*
X0003185039Y0001587598J-0000007874D01*
G01*
X0003185039Y0001571850D01*
G75*
G02*
X0003177165Y0001563976I-0000007874D01*
G01*
X0003129921Y0001563976D01*
G75*
G02*
X0003122047Y0001571850J0000007874D01*
G01*
X0003122047Y0001587598D01*
G75*
G02*
X0003129921Y0001595472I0000007874D01*
G01*
G37*
D31*
X0002723425Y0001984244D03*
X0002788385Y0001984244D03*
X0002788385Y0002110244D03*
X0002723425Y0002110244D03*
X0002959645Y0001984244D03*
X0003024606Y0001984244D03*
X0003024606Y0002110244D03*
X0002959645Y0002110244D03*
G36*
G01*
X0002943897Y0001800196D02*
X0002943897Y0001821850D01*
G75*
G02*
X0002951771Y0001829724I0000007874D01*
G01*
X0002967519Y0001829724D01*
G75*
G02*
X0002975393Y0001821850J-0000007874D01*
G01*
X0002975393Y0001800196D01*
G75*
G02*
X0002967519Y0001792322I-0000007874D01*
G01*
X0002951771Y0001792322D01*
G75*
G02*
X0002943897Y0001800196J0000007874D01*
G01*
G37*
G36*
G01*
X0003008858Y0001800196D02*
X0003008858Y0001821850D01*
G75*
G02*
X0003016732Y0001829724I0000007874D01*
G01*
X0003032480Y0001829724D01*
G75*
G02*
X0003040354Y0001821850J-0000007874D01*
G01*
X0003040354Y0001800196D01*
G75*
G02*
X0003032480Y0001792322I-0000007874D01*
G01*
X0003016732Y0001792322D01*
G75*
G02*
X0003008858Y0001800196J0000007874D01*
G01*
G37*
G36*
G01*
X0003214566Y0001875000D02*
X0003312992Y0001875000D01*
G75*
G02*
X0003322834Y0001865157J-0000009842D01*
G01*
X0003322834Y0001802165D01*
G75*
G02*
X0003312992Y0001792322I-0000009842D01*
G01*
X0003214566Y0001792322D01*
G75*
G02*
X0003204724Y0001802165J0000009842D01*
G01*
X0003204724Y0001865157D01*
G75*
G02*
X0003214566Y0001875000I0000009842D01*
G01*
G37*
G36*
G01*
X0003214566Y0002124999D02*
X0003312992Y0002124999D01*
G75*
G02*
X0003322834Y0002115157J-0000009842D01*
G01*
X0003322834Y0002052165D01*
G75*
G02*
X0003312992Y0002042322I-0000009842D01*
G01*
X0003214566Y0002042322D01*
G75*
G02*
X0003204724Y0002052165J0000009842D01*
G01*
X0003204724Y0002115157D01*
G75*
G02*
X0003214566Y0002124999I0000009842D01*
G01*
G37*
G36*
G01*
X0003125984Y0001949803D02*
X0003173228Y0001949803D01*
G75*
G02*
X0003181102Y0001941929J-0000007874D01*
G01*
X0003181102Y0001926181D01*
G75*
G02*
X0003173228Y0001918307I-0000007874D01*
G01*
X0003125984Y0001918307D01*
G75*
G02*
X0003118110Y0001926181J0000007874D01*
G01*
X0003118110Y0001941929D01*
G75*
G02*
X0003125984Y0001949803I0000007874D01*
G01*
G37*
G36*
G01*
X0003125984Y0001999015D02*
X0003173228Y0001999015D01*
G75*
G02*
X0003181102Y0001991141J-0000007874D01*
G01*
X0003181102Y0001975393D01*
G75*
G02*
X0003173228Y0001967519I-0000007874D01*
G01*
X0003125984Y0001967519D01*
G75*
G02*
X0003118110Y0001975393J0000007874D01*
G01*
X0003118110Y0001991141D01*
G75*
G02*
X0003125984Y0001999015I0000007874D01*
G01*
G37*
G36*
G01*
X0002765748Y0001638779D02*
X0002667322Y0001638779D01*
G75*
G02*
X0002657480Y0001648622J0000009842D01*
G01*
X0002657480Y0001711614D01*
G75*
G02*
X0002667322Y0001721456I0000009842D01*
G01*
X0002765748Y0001721456D01*
G75*
G02*
X0002775590Y0001711614J-0000009842D01*
G01*
X0002775590Y0001648622D01*
G75*
G02*
X0002765748Y0001638779I-0000009842D01*
G01*
G37*
G36*
G01*
X0002765748Y0001290354D02*
X0002667322Y0001290354D01*
G75*
G02*
X0002657480Y0001300196J0000009842D01*
G01*
X0002657480Y0001363189D01*
G75*
G02*
X0002667322Y0001373031I0000009842D01*
G01*
X0002765748Y0001373031D01*
G75*
G02*
X0002775590Y0001363189J-0000009842D01*
G01*
X0002775590Y0001300196D01*
G75*
G02*
X0002765748Y0001290354I-0000009842D01*
G01*
G37*
G36*
G01*
X0002854330Y0001563976D02*
X0002807086Y0001563976D01*
G75*
G02*
X0002799212Y0001571850J0000007874D01*
G01*
X0002799212Y0001587598D01*
G75*
G02*
X0002807086Y0001595472I0000007874D01*
G01*
X0002854330Y0001595472D01*
G75*
G02*
X0002862204Y0001587598J-0000007874D01*
G01*
X0002862204Y0001571850D01*
G75*
G02*
X0002854330Y0001563976I-0000007874D01*
G01*
G37*
G36*
G01*
X0002854330Y0001514763D02*
X0002807086Y0001514763D01*
G75*
G02*
X0002799212Y0001522637J0000007874D01*
G01*
X0002799212Y0001538385D01*
G75*
G02*
X0002807086Y0001546259I0000007874D01*
G01*
X0002854330Y0001546259D01*
G75*
G02*
X0002862204Y0001538385J-0000007874D01*
G01*
X0002862204Y0001522637D01*
G75*
G02*
X0002854330Y0001514763I-0000007874D01*
G01*
G37*
G36*
G01*
X0002854330Y0001465551D02*
X0002807086Y0001465551D01*
G75*
G02*
X0002799212Y0001473425J0000007874D01*
G01*
X0002799212Y0001489173D01*
G75*
G02*
X0002807086Y0001497047I0000007874D01*
G01*
X0002854330Y0001497047D01*
G75*
G02*
X0002862204Y0001489173J-0000007874D01*
G01*
X0002862204Y0001473425D01*
G75*
G02*
X0002854330Y0001465551I-0000007874D01*
G01*
G37*
G36*
G01*
X0002854330Y0001416338D02*
X0002807086Y0001416338D01*
G75*
G02*
X0002799212Y0001424212J0000007874D01*
G01*
X0002799212Y0001439960D01*
G75*
G02*
X0002807086Y0001447834I0000007874D01*
G01*
X0002854330Y0001447834D01*
G75*
G02*
X0002862204Y0001439960J-0000007874D01*
G01*
X0002862204Y0001424212D01*
G75*
G02*
X0002854330Y0001416338I-0000007874D01*
G01*
G37*
G04 next file*
G04 #@! TF.GenerationSoftware,KiCad,Pcbnew,(5.1.10)-1*
G04 #@! TF.CreationDate,2021-06-29T14:50:17+09:00*
G04 #@! TF.ProjectId,ble_spo2_dgmif,626c655f-7370-46f3-925f-64676d69662e,rev?*
G04 #@! TF.SameCoordinates,Original*
G04 #@! TF.FileFunction,Soldermask,Bot*
G04 #@! TF.FilePolarity,Negative*
G04 Gerber Fmt 4.6, Leading zero omitted, Abs format (unit mm)*
G04 Created by KiCad (PCBNEW (5.1.10)-1) date 2021-06-29 14:50:17*
G01*
G04 APERTURE LIST*
G04 APERTURE END LIST*
D32*
X-0003937007Y0008425196D02*
X0000124999Y0003244086D03*
X0000189960Y0003244086D03*
X0000189960Y0003370086D03*
X0000124999Y0003370086D03*
X0000361220Y0003244086D03*
X0000426181Y0003244086D03*
X0000426181Y0003370086D03*
X0000361220Y0003370086D03*
G36*
G01*
X0000345472Y0003060039D02*
X0000345472Y0003081692D01*
G75*
G02*
X0000353346Y0003089566I0000007874D01*
G01*
X0000369094Y0003089566D01*
G75*
G02*
X0000376968Y0003081692J-0000007874D01*
G01*
X0000376968Y0003060039D01*
G75*
G02*
X0000369094Y0003052165I-0000007874D01*
G01*
X0000353346Y0003052165D01*
G75*
G02*
X0000345472Y0003060039J0000007874D01*
G01*
G37*
G36*
G01*
X0000410433Y0003060039D02*
X0000410433Y0003081692D01*
G75*
G02*
X0000418307Y0003089566I0000007874D01*
G01*
X0000434055Y0003089566D01*
G75*
G02*
X0000441929Y0003081692J-0000007874D01*
G01*
X0000441929Y0003060039D01*
G75*
G02*
X0000434055Y0003052165I-0000007874D01*
G01*
X0000418307Y0003052165D01*
G75*
G02*
X0000410433Y0003060039J0000007874D01*
G01*
G37*
D33*
X0000724803Y0002571811D03*
X0000724803Y0002671811D03*
X0000724803Y0002771811D03*
X0000724803Y0002871810D03*
X0000324803Y0002871810D03*
X0000324803Y0002771811D03*
X0000324803Y0002671811D03*
X0000324803Y0002571811D03*
G36*
G01*
X0000616141Y0003134842D02*
X0000714566Y0003134842D01*
G75*
G02*
X0000724409Y0003125000J-0000009842D01*
G01*
X0000724409Y0003062007D01*
G75*
G02*
X0000714566Y0003052165I-0000009842D01*
G01*
X0000616141Y0003052165D01*
G75*
G02*
X0000606299Y0003062007J0000009842D01*
G01*
X0000606299Y0003125000D01*
G75*
G02*
X0000616141Y0003134842I0000009842D01*
G01*
G37*
G36*
G01*
X0000616141Y0003384842D02*
X0000714566Y0003384842D01*
G75*
G02*
X0000724409Y0003375000J-0000009842D01*
G01*
X0000724409Y0003312007D01*
G75*
G02*
X0000714566Y0003302165I-0000009842D01*
G01*
X0000616141Y0003302165D01*
G75*
G02*
X0000606299Y0003312007J0000009842D01*
G01*
X0000606299Y0003375000D01*
G75*
G02*
X0000616141Y0003384842I0000009842D01*
G01*
G37*
G36*
G01*
X0000527559Y0003209645D02*
X0000574803Y0003209645D01*
G75*
G02*
X0000582677Y0003201771J-0000007874D01*
G01*
X0000582677Y0003186023D01*
G75*
G02*
X0000574803Y0003178149I-0000007874D01*
G01*
X0000527559Y0003178149D01*
G75*
G02*
X0000519685Y0003186023J0000007874D01*
G01*
X0000519685Y0003201771D01*
G75*
G02*
X0000527559Y0003209645I0000007874D01*
G01*
G37*
G36*
G01*
X0000527559Y0003258858D02*
X0000574803Y0003258858D01*
G75*
G02*
X0000582677Y0003250984J-0000007874D01*
G01*
X0000582677Y0003235236D01*
G75*
G02*
X0000574803Y0003227362I-0000007874D01*
G01*
X0000527559Y0003227362D01*
G75*
G02*
X0000519685Y0003235236J0000007874D01*
G01*
X0000519685Y0003250984D01*
G75*
G02*
X0000527559Y0003258858I0000007874D01*
G01*
G37*
G36*
G01*
X0000167322Y0002898622D02*
X0000068897Y0002898622D01*
G75*
G02*
X0000059055Y0002908464J0000009842D01*
G01*
X0000059055Y0002971456D01*
G75*
G02*
X0000068897Y0002981299I0000009842D01*
G01*
X0000167322Y0002981299D01*
G75*
G02*
X0000177165Y0002971456J-0000009842D01*
G01*
X0000177165Y0002908464D01*
G75*
G02*
X0000167322Y0002898622I-0000009842D01*
G01*
G37*
G36*
G01*
X0000167322Y0002550196D02*
X0000068897Y0002550196D01*
G75*
G02*
X0000059055Y0002560039J0000009842D01*
G01*
X0000059055Y0002623031D01*
G75*
G02*
X0000068897Y0002632874I0000009842D01*
G01*
X0000167322Y0002632874D01*
G75*
G02*
X0000177165Y0002623031J-0000009842D01*
G01*
X0000177165Y0002560039D01*
G75*
G02*
X0000167322Y0002550196I-0000009842D01*
G01*
G37*
G36*
G01*
X0000255905Y0002823818D02*
X0000208661Y0002823818D01*
G75*
G02*
X0000200787Y0002831692J0000007874D01*
G01*
X0000200787Y0002847440D01*
G75*
G02*
X0000208661Y0002855314I0000007874D01*
G01*
X0000255905Y0002855314D01*
G75*
G02*
X0000263779Y0002847440J-0000007874D01*
G01*
X0000263779Y0002831692D01*
G75*
G02*
X0000255905Y0002823818I-0000007874D01*
G01*
G37*
G36*
G01*
X0000255905Y0002774606D02*
X0000208661Y0002774606D01*
G75*
G02*
X0000200787Y0002782480J0000007874D01*
G01*
X0000200787Y0002798228D01*
G75*
G02*
X0000208661Y0002806102I0000007874D01*
G01*
X0000255905Y0002806102D01*
G75*
G02*
X0000263779Y0002798228J-0000007874D01*
G01*
X0000263779Y0002782480D01*
G75*
G02*
X0000255905Y0002774606I-0000007874D01*
G01*
G37*
G36*
G01*
X0000255905Y0002725393D02*
X0000208661Y0002725393D01*
G75*
G02*
X0000200787Y0002733267J0000007874D01*
G01*
X0000200787Y0002749015D01*
G75*
G02*
X0000208661Y0002756889I0000007874D01*
G01*
X0000255905Y0002756889D01*
G75*
G02*
X0000263779Y0002749015J-0000007874D01*
G01*
X0000263779Y0002733267D01*
G75*
G02*
X0000255905Y0002725393I-0000007874D01*
G01*
G37*
G36*
G01*
X0000255905Y0002676181D02*
X0000208661Y0002676181D01*
G75*
G02*
X0000200787Y0002684055J0000007874D01*
G01*
X0000200787Y0002699803D01*
G75*
G02*
X0000208661Y0002707677I0000007874D01*
G01*
X0000255905Y0002707677D01*
G75*
G02*
X0000263779Y0002699803J-0000007874D01*
G01*
X0000263779Y0002684055D01*
G75*
G02*
X0000255905Y0002676181I-0000007874D01*
G01*
G37*
G04 next file*
G04 #@! TF.GenerationSoftware,KiCad,Pcbnew,(5.1.10)-1*
G04 #@! TF.CreationDate,2021-06-29T14:50:17+09:00*
G04 #@! TF.ProjectId,ble_spo2_dgmif,626c655f-7370-46f3-925f-64676d69662e,rev?*
G04 #@! TF.SameCoordinates,Original*
G04 #@! TF.FileFunction,Soldermask,Bot*
G04 #@! TF.FilePolarity,Negative*
G04 Gerber Fmt 4.6, Leading zero omitted, Abs format (unit mm)*
G04 Created by KiCad (PCBNEW (5.1.10)-1) date 2021-06-29 14:50:17*
G01*
G04 APERTURE LIST*
G04 APERTURE END LIST*
D34*
X-0003070866Y0008425196D02*
X0000991141Y0003244086D03*
X0001056102Y0003244086D03*
X0001056102Y0003370086D03*
X0000991141Y0003370086D03*
X0001227362Y0003244086D03*
X0001292322Y0003244086D03*
X0001292322Y0003370086D03*
X0001227362Y0003370086D03*
G36*
G01*
X0001211614Y0003060039D02*
X0001211614Y0003081692D01*
G75*
G02*
X0001219488Y0003089566I0000007874D01*
G01*
X0001235236Y0003089566D01*
G75*
G02*
X0001243110Y0003081692J-0000007874D01*
G01*
X0001243110Y0003060039D01*
G75*
G02*
X0001235236Y0003052165I-0000007874D01*
G01*
X0001219488Y0003052165D01*
G75*
G02*
X0001211614Y0003060039J0000007874D01*
G01*
G37*
G36*
G01*
X0001276574Y0003060039D02*
X0001276574Y0003081692D01*
G75*
G02*
X0001284448Y0003089566I0000007874D01*
G01*
X0001300196Y0003089566D01*
G75*
G02*
X0001308070Y0003081692J-0000007874D01*
G01*
X0001308070Y0003060039D01*
G75*
G02*
X0001300196Y0003052165I-0000007874D01*
G01*
X0001284448Y0003052165D01*
G75*
G02*
X0001276574Y0003060039J0000007874D01*
G01*
G37*
D35*
X0001590944Y0002571811D03*
X0001590944Y0002671811D03*
X0001590944Y0002771811D03*
X0001590944Y0002871810D03*
X0001190944Y0002871810D03*
X0001190944Y0002771811D03*
X0001190944Y0002671811D03*
X0001190944Y0002571811D03*
G36*
G01*
X0001482283Y0003134842D02*
X0001580708Y0003134842D01*
G75*
G02*
X0001590551Y0003125000J-0000009842D01*
G01*
X0001590551Y0003062007D01*
G75*
G02*
X0001580708Y0003052165I-0000009842D01*
G01*
X0001482283Y0003052165D01*
G75*
G02*
X0001472440Y0003062007J0000009842D01*
G01*
X0001472440Y0003125000D01*
G75*
G02*
X0001482283Y0003134842I0000009842D01*
G01*
G37*
G36*
G01*
X0001482283Y0003384842D02*
X0001580708Y0003384842D01*
G75*
G02*
X0001590551Y0003375000J-0000009842D01*
G01*
X0001590551Y0003312007D01*
G75*
G02*
X0001580708Y0003302165I-0000009842D01*
G01*
X0001482283Y0003302165D01*
G75*
G02*
X0001472440Y0003312007J0000009842D01*
G01*
X0001472440Y0003375000D01*
G75*
G02*
X0001482283Y0003384842I0000009842D01*
G01*
G37*
G36*
G01*
X0001393700Y0003209645D02*
X0001440944Y0003209645D01*
G75*
G02*
X0001448818Y0003201771J-0000007874D01*
G01*
X0001448818Y0003186023D01*
G75*
G02*
X0001440944Y0003178149I-0000007874D01*
G01*
X0001393700Y0003178149D01*
G75*
G02*
X0001385826Y0003186023J0000007874D01*
G01*
X0001385826Y0003201771D01*
G75*
G02*
X0001393700Y0003209645I0000007874D01*
G01*
G37*
G36*
G01*
X0001393700Y0003258858D02*
X0001440944Y0003258858D01*
G75*
G02*
X0001448818Y0003250984J-0000007874D01*
G01*
X0001448818Y0003235236D01*
G75*
G02*
X0001440944Y0003227362I-0000007874D01*
G01*
X0001393700Y0003227362D01*
G75*
G02*
X0001385826Y0003235236J0000007874D01*
G01*
X0001385826Y0003250984D01*
G75*
G02*
X0001393700Y0003258858I0000007874D01*
G01*
G37*
G36*
G01*
X0001033464Y0002898622D02*
X0000935039Y0002898622D01*
G75*
G02*
X0000925196Y0002908464J0000009842D01*
G01*
X0000925196Y0002971456D01*
G75*
G02*
X0000935039Y0002981299I0000009842D01*
G01*
X0001033464Y0002981299D01*
G75*
G02*
X0001043307Y0002971456J-0000009842D01*
G01*
X0001043307Y0002908464D01*
G75*
G02*
X0001033464Y0002898622I-0000009842D01*
G01*
G37*
G36*
G01*
X0001033464Y0002550196D02*
X0000935039Y0002550196D01*
G75*
G02*
X0000925196Y0002560039J0000009842D01*
G01*
X0000925196Y0002623031D01*
G75*
G02*
X0000935039Y0002632874I0000009842D01*
G01*
X0001033464Y0002632874D01*
G75*
G02*
X0001043307Y0002623031J-0000009842D01*
G01*
X0001043307Y0002560039D01*
G75*
G02*
X0001033464Y0002550196I-0000009842D01*
G01*
G37*
G36*
G01*
X0001122047Y0002823818D02*
X0001074803Y0002823818D01*
G75*
G02*
X0001066929Y0002831692J0000007874D01*
G01*
X0001066929Y0002847440D01*
G75*
G02*
X0001074803Y0002855314I0000007874D01*
G01*
X0001122047Y0002855314D01*
G75*
G02*
X0001129921Y0002847440J-0000007874D01*
G01*
X0001129921Y0002831692D01*
G75*
G02*
X0001122047Y0002823818I-0000007874D01*
G01*
G37*
G36*
G01*
X0001122047Y0002774606D02*
X0001074803Y0002774606D01*
G75*
G02*
X0001066929Y0002782480J0000007874D01*
G01*
X0001066929Y0002798228D01*
G75*
G02*
X0001074803Y0002806102I0000007874D01*
G01*
X0001122047Y0002806102D01*
G75*
G02*
X0001129921Y0002798228J-0000007874D01*
G01*
X0001129921Y0002782480D01*
G75*
G02*
X0001122047Y0002774606I-0000007874D01*
G01*
G37*
G36*
G01*
X0001122047Y0002725393D02*
X0001074803Y0002725393D01*
G75*
G02*
X0001066929Y0002733267J0000007874D01*
G01*
X0001066929Y0002749015D01*
G75*
G02*
X0001074803Y0002756889I0000007874D01*
G01*
X0001122047Y0002756889D01*
G75*
G02*
X0001129921Y0002749015J-0000007874D01*
G01*
X0001129921Y0002733267D01*
G75*
G02*
X0001122047Y0002725393I-0000007874D01*
G01*
G37*
G36*
G01*
X0001122047Y0002676181D02*
X0001074803Y0002676181D01*
G75*
G02*
X0001066929Y0002684055J0000007874D01*
G01*
X0001066929Y0002699803D01*
G75*
G02*
X0001074803Y0002707677I0000007874D01*
G01*
X0001122047Y0002707677D01*
G75*
G02*
X0001129921Y0002699803J-0000007874D01*
G01*
X0001129921Y0002684055D01*
G75*
G02*
X0001122047Y0002676181I-0000007874D01*
G01*
G37*
G04 next file*
G04 #@! TF.GenerationSoftware,KiCad,Pcbnew,(5.1.10)-1*
G04 #@! TF.CreationDate,2021-06-29T15:19:49+09:00*
G04 #@! TF.ProjectId,BLE_PPG_v1.1,424c455f-5050-4475-9f76-312e312e6b69,rev?*
G04 #@! TF.SameCoordinates,Original*
G04 #@! TF.FileFunction,Soldermask,Bot*
G04 #@! TF.FilePolarity,Negative*
G04 Gerber Fmt 4.6, Leading zero omitted, Abs format (unit mm)*
G04 Created by KiCad (PCBNEW (5.1.10)-1) date 2021-06-29 15:19:49*
G01*
G04 APERTURE LIST*
G04 APERTURE END LIST*
G36*
G01*
X0002352362Y0002632874D02*
X0002450787Y0002632874D01*
G75*
G02*
X0002460629Y0002623031J-0000009842D01*
G01*
X0002460629Y0002560039D01*
G75*
G02*
X0002450787Y0002550196I-0000009842D01*
G01*
X0002352362Y0002550196D01*
G75*
G02*
X0002342519Y0002560039J0000009842D01*
G01*
X0002342519Y0002623031D01*
G75*
G02*
X0002352362Y0002632874I0000009842D01*
G01*
G37*
G36*
G01*
X0002352362Y0002981299D02*
X0002450787Y0002981299D01*
G75*
G02*
X0002460629Y0002971456J-0000009842D01*
G01*
X0002460629Y0002908464D01*
G75*
G02*
X0002450787Y0002898622I-0000009842D01*
G01*
X0002352362Y0002898622D01*
G75*
G02*
X0002342519Y0002908464J0000009842D01*
G01*
X0002342519Y0002971456D01*
G75*
G02*
X0002352362Y0002981299I0000009842D01*
G01*
G37*
G36*
G01*
X0002263779Y0002707677D02*
X0002311023Y0002707677D01*
G75*
G02*
X0002318897Y0002699803J-0000007874D01*
G01*
X0002318897Y0002684055D01*
G75*
G02*
X0002311023Y0002676181I-0000007874D01*
G01*
X0002263779Y0002676181D01*
G75*
G02*
X0002255905Y0002684055J0000007874D01*
G01*
X0002255905Y0002699803D01*
G75*
G02*
X0002263779Y0002707677I0000007874D01*
G01*
G37*
G36*
G01*
X0002263779Y0002756889D02*
X0002311023Y0002756889D01*
G75*
G02*
X0002318897Y0002749015J-0000007874D01*
G01*
X0002318897Y0002733267D01*
G75*
G02*
X0002311023Y0002725393I-0000007874D01*
G01*
X0002263779Y0002725393D01*
G75*
G02*
X0002255905Y0002733267J0000007874D01*
G01*
X0002255905Y0002749015D01*
G75*
G02*
X0002263779Y0002756889I0000007874D01*
G01*
G37*
G36*
G01*
X0002263779Y0002806102D02*
X0002311023Y0002806102D01*
G75*
G02*
X0002318897Y0002798228J-0000007874D01*
G01*
X0002318897Y0002782480D01*
G75*
G02*
X0002311023Y0002774606I-0000007874D01*
G01*
X0002263779Y0002774606D01*
G75*
G02*
X0002255905Y0002782480J0000007874D01*
G01*
X0002255905Y0002798228D01*
G75*
G02*
X0002263779Y0002806102I0000007874D01*
G01*
G37*
G36*
G01*
X0002263779Y0002855314D02*
X0002311023Y0002855314D01*
G75*
G02*
X0002318897Y0002847440J-0000007874D01*
G01*
X0002318897Y0002831692D01*
G75*
G02*
X0002311023Y0002823818I-0000007874D01*
G01*
X0002263779Y0002823818D01*
G75*
G02*
X0002255905Y0002831692J0000007874D01*
G01*
X0002255905Y0002847440D01*
G75*
G02*
X0002263779Y0002855314I0000007874D01*
G01*
G37*
D36*
X0001857283Y0003244086D03*
X0001922244Y0003244086D03*
X0001922244Y0003370086D03*
X0001857283Y0003370086D03*
X0002093503Y0003244086D03*
X0002158464Y0003244086D03*
X0002158464Y0003370086D03*
X0002093503Y0003370086D03*
G36*
G01*
X0002077755Y0003060039D02*
X0002077755Y0003081692D01*
G75*
G02*
X0002085629Y0003089566I0000007874D01*
G01*
X0002101377Y0003089566D01*
G75*
G02*
X0002109251Y0003081692J-0000007874D01*
G01*
X0002109251Y0003060039D01*
G75*
G02*
X0002101377Y0003052165I-0000007874D01*
G01*
X0002085629Y0003052165D01*
G75*
G02*
X0002077755Y0003060039J0000007874D01*
G01*
G37*
G36*
G01*
X0002142716Y0003060039D02*
X0002142716Y0003081692D01*
G75*
G02*
X0002150590Y0003089566I0000007874D01*
G01*
X0002166338Y0003089566D01*
G75*
G02*
X0002174212Y0003081692J-0000007874D01*
G01*
X0002174212Y0003060039D01*
G75*
G02*
X0002166338Y0003052165I-0000007874D01*
G01*
X0002150590Y0003052165D01*
G75*
G02*
X0002142716Y0003060039J0000007874D01*
G01*
G37*
G36*
G01*
X0002348425Y0003134842D02*
X0002446850Y0003134842D01*
G75*
G02*
X0002456692Y0003125000J-0000009842D01*
G01*
X0002456692Y0003062007D01*
G75*
G02*
X0002446850Y0003052165I-0000009842D01*
G01*
X0002348425Y0003052165D01*
G75*
G02*
X0002338582Y0003062007J0000009842D01*
G01*
X0002338582Y0003125000D01*
G75*
G02*
X0002348425Y0003134842I0000009842D01*
G01*
G37*
G36*
G01*
X0002348425Y0003384842D02*
X0002446850Y0003384842D01*
G75*
G02*
X0002456692Y0003375000J-0000009842D01*
G01*
X0002456692Y0003312007D01*
G75*
G02*
X0002446850Y0003302165I-0000009842D01*
G01*
X0002348425Y0003302165D01*
G75*
G02*
X0002338582Y0003312007J0000009842D01*
G01*
X0002338582Y0003375000D01*
G75*
G02*
X0002348425Y0003384842I0000009842D01*
G01*
G37*
G36*
G01*
X0002259842Y0003209645D02*
X0002307086Y0003209645D01*
G75*
G02*
X0002314960Y0003201771J-0000007874D01*
G01*
X0002314960Y0003186023D01*
G75*
G02*
X0002307086Y0003178149I-0000007874D01*
G01*
X0002259842Y0003178149D01*
G75*
G02*
X0002251968Y0003186023J0000007874D01*
G01*
X0002251968Y0003201771D01*
G75*
G02*
X0002259842Y0003209645I0000007874D01*
G01*
G37*
G36*
G01*
X0002259842Y0003258858D02*
X0002307086Y0003258858D01*
G75*
G02*
X0002314960Y0003250984J-0000007874D01*
G01*
X0002314960Y0003235236D01*
G75*
G02*
X0002307086Y0003227362I-0000007874D01*
G01*
X0002259842Y0003227362D01*
G75*
G02*
X0002251968Y0003235236J0000007874D01*
G01*
X0002251968Y0003250984D01*
G75*
G02*
X0002259842Y0003258858I0000007874D01*
G01*
G37*
G36*
G01*
X0001899606Y0002898622D02*
X0001801181Y0002898622D01*
G75*
G02*
X0001791338Y0002908464J0000009842D01*
G01*
X0001791338Y0002971456D01*
G75*
G02*
X0001801181Y0002981299I0000009842D01*
G01*
X0001899606Y0002981299D01*
G75*
G02*
X0001909448Y0002971456J-0000009842D01*
G01*
X0001909448Y0002908464D01*
G75*
G02*
X0001899606Y0002898622I-0000009842D01*
G01*
G37*
G36*
G01*
X0001899606Y0002550196D02*
X0001801181Y0002550196D01*
G75*
G02*
X0001791338Y0002560039J0000009842D01*
G01*
X0001791338Y0002623031D01*
G75*
G02*
X0001801181Y0002632874I0000009842D01*
G01*
X0001899606Y0002632874D01*
G75*
G02*
X0001909448Y0002623031J-0000009842D01*
G01*
X0001909448Y0002560039D01*
G75*
G02*
X0001899606Y0002550196I-0000009842D01*
G01*
G37*
G36*
G01*
X0001988188Y0002823818D02*
X0001940944Y0002823818D01*
G75*
G02*
X0001933070Y0002831692J0000007874D01*
G01*
X0001933070Y0002847440D01*
G75*
G02*
X0001940944Y0002855314I0000007874D01*
G01*
X0001988188Y0002855314D01*
G75*
G02*
X0001996062Y0002847440J-0000007874D01*
G01*
X0001996062Y0002831692D01*
G75*
G02*
X0001988188Y0002823818I-0000007874D01*
G01*
G37*
G36*
G01*
X0001988188Y0002774606D02*
X0001940944Y0002774606D01*
G75*
G02*
X0001933070Y0002782480J0000007874D01*
G01*
X0001933070Y0002798228D01*
G75*
G02*
X0001940944Y0002806102I0000007874D01*
G01*
X0001988188Y0002806102D01*
G75*
G02*
X0001996062Y0002798228J-0000007874D01*
G01*
X0001996062Y0002782480D01*
G75*
G02*
X0001988188Y0002774606I-0000007874D01*
G01*
G37*
G36*
G01*
X0001988188Y0002725393D02*
X0001940944Y0002725393D01*
G75*
G02*
X0001933070Y0002733267J0000007874D01*
G01*
X0001933070Y0002749015D01*
G75*
G02*
X0001940944Y0002756889I0000007874D01*
G01*
X0001988188Y0002756889D01*
G75*
G02*
X0001996062Y0002749015J-0000007874D01*
G01*
X0001996062Y0002733267D01*
G75*
G02*
X0001988188Y0002725393I-0000007874D01*
G01*
G37*
G36*
G01*
X0001988188Y0002676181D02*
X0001940944Y0002676181D01*
G75*
G02*
X0001933070Y0002684055J0000007874D01*
G01*
X0001933070Y0002699803D01*
G75*
G02*
X0001940944Y0002707677I0000007874D01*
G01*
X0001988188Y0002707677D01*
G75*
G02*
X0001996062Y0002699803J-0000007874D01*
G01*
X0001996062Y0002684055D01*
G75*
G02*
X0001988188Y0002676181I-0000007874D01*
G01*
G37*
G04 next file*
G04 #@! TF.GenerationSoftware,KiCad,Pcbnew,(5.1.10)-1*
G04 #@! TF.CreationDate,2021-06-29T15:19:49+09:00*
G04 #@! TF.ProjectId,BLE_PPG_v1.1,424c455f-5050-4475-9f76-312e312e6b69,rev?*
G04 #@! TF.SameCoordinates,Original*
G04 #@! TF.FileFunction,Soldermask,Bot*
G04 #@! TF.FilePolarity,Negative*
G04 Gerber Fmt 4.6, Leading zero omitted, Abs format (unit mm)*
G04 Created by KiCad (PCBNEW (5.1.10)-1) date 2021-06-29 15:19:49*
G01*
G04 APERTURE LIST*
G04 APERTURE END LIST*
G36*
G01*
X0003218503Y0002632874D02*
X0003316929Y0002632874D01*
G75*
G02*
X0003326771Y0002623031J-0000009842D01*
G01*
X0003326771Y0002560039D01*
G75*
G02*
X0003316929Y0002550196I-0000009842D01*
G01*
X0003218503Y0002550196D01*
G75*
G02*
X0003208661Y0002560039J0000009842D01*
G01*
X0003208661Y0002623031D01*
G75*
G02*
X0003218503Y0002632874I0000009842D01*
G01*
G37*
G36*
G01*
X0003218503Y0002981299D02*
X0003316929Y0002981299D01*
G75*
G02*
X0003326771Y0002971456J-0000009842D01*
G01*
X0003326771Y0002908464D01*
G75*
G02*
X0003316929Y0002898622I-0000009842D01*
G01*
X0003218503Y0002898622D01*
G75*
G02*
X0003208661Y0002908464J0000009842D01*
G01*
X0003208661Y0002971456D01*
G75*
G02*
X0003218503Y0002981299I0000009842D01*
G01*
G37*
G36*
G01*
X0003129921Y0002707677D02*
X0003177165Y0002707677D01*
G75*
G02*
X0003185039Y0002699803J-0000007874D01*
G01*
X0003185039Y0002684055D01*
G75*
G02*
X0003177165Y0002676181I-0000007874D01*
G01*
X0003129921Y0002676181D01*
G75*
G02*
X0003122047Y0002684055J0000007874D01*
G01*
X0003122047Y0002699803D01*
G75*
G02*
X0003129921Y0002707677I0000007874D01*
G01*
G37*
G36*
G01*
X0003129921Y0002756889D02*
X0003177165Y0002756889D01*
G75*
G02*
X0003185039Y0002749015J-0000007874D01*
G01*
X0003185039Y0002733267D01*
G75*
G02*
X0003177165Y0002725393I-0000007874D01*
G01*
X0003129921Y0002725393D01*
G75*
G02*
X0003122047Y0002733267J0000007874D01*
G01*
X0003122047Y0002749015D01*
G75*
G02*
X0003129921Y0002756889I0000007874D01*
G01*
G37*
G36*
G01*
X0003129921Y0002806102D02*
X0003177165Y0002806102D01*
G75*
G02*
X0003185039Y0002798228J-0000007874D01*
G01*
X0003185039Y0002782480D01*
G75*
G02*
X0003177165Y0002774606I-0000007874D01*
G01*
X0003129921Y0002774606D01*
G75*
G02*
X0003122047Y0002782480J0000007874D01*
G01*
X0003122047Y0002798228D01*
G75*
G02*
X0003129921Y0002806102I0000007874D01*
G01*
G37*
G36*
G01*
X0003129921Y0002855314D02*
X0003177165Y0002855314D01*
G75*
G02*
X0003185039Y0002847440J-0000007874D01*
G01*
X0003185039Y0002831692D01*
G75*
G02*
X0003177165Y0002823818I-0000007874D01*
G01*
X0003129921Y0002823818D01*
G75*
G02*
X0003122047Y0002831692J0000007874D01*
G01*
X0003122047Y0002847440D01*
G75*
G02*
X0003129921Y0002855314I0000007874D01*
G01*
G37*
D37*
X0002723425Y0003244086D03*
X0002788385Y0003244086D03*
X0002788385Y0003370086D03*
X0002723425Y0003370086D03*
X0002959645Y0003244086D03*
X0003024606Y0003244086D03*
X0003024606Y0003370086D03*
X0002959645Y0003370086D03*
G36*
G01*
X0002943897Y0003060039D02*
X0002943897Y0003081692D01*
G75*
G02*
X0002951771Y0003089566I0000007874D01*
G01*
X0002967519Y0003089566D01*
G75*
G02*
X0002975393Y0003081692J-0000007874D01*
G01*
X0002975393Y0003060039D01*
G75*
G02*
X0002967519Y0003052165I-0000007874D01*
G01*
X0002951771Y0003052165D01*
G75*
G02*
X0002943897Y0003060039J0000007874D01*
G01*
G37*
G36*
G01*
X0003008858Y0003060039D02*
X0003008858Y0003081692D01*
G75*
G02*
X0003016732Y0003089566I0000007874D01*
G01*
X0003032480Y0003089566D01*
G75*
G02*
X0003040354Y0003081692J-0000007874D01*
G01*
X0003040354Y0003060039D01*
G75*
G02*
X0003032480Y0003052165I-0000007874D01*
G01*
X0003016732Y0003052165D01*
G75*
G02*
X0003008858Y0003060039J0000007874D01*
G01*
G37*
G36*
G01*
X0003214566Y0003134842D02*
X0003312992Y0003134842D01*
G75*
G02*
X0003322834Y0003125000J-0000009842D01*
G01*
X0003322834Y0003062007D01*
G75*
G02*
X0003312992Y0003052165I-0000009842D01*
G01*
X0003214566Y0003052165D01*
G75*
G02*
X0003204724Y0003062007J0000009842D01*
G01*
X0003204724Y0003125000D01*
G75*
G02*
X0003214566Y0003134842I0000009842D01*
G01*
G37*
G36*
G01*
X0003214566Y0003384842D02*
X0003312992Y0003384842D01*
G75*
G02*
X0003322834Y0003375000J-0000009842D01*
G01*
X0003322834Y0003312007D01*
G75*
G02*
X0003312992Y0003302165I-0000009842D01*
G01*
X0003214566Y0003302165D01*
G75*
G02*
X0003204724Y0003312007J0000009842D01*
G01*
X0003204724Y0003375000D01*
G75*
G02*
X0003214566Y0003384842I0000009842D01*
G01*
G37*
G36*
G01*
X0003125984Y0003209645D02*
X0003173228Y0003209645D01*
G75*
G02*
X0003181102Y0003201771J-0000007874D01*
G01*
X0003181102Y0003186023D01*
G75*
G02*
X0003173228Y0003178149I-0000007874D01*
G01*
X0003125984Y0003178149D01*
G75*
G02*
X0003118110Y0003186023J0000007874D01*
G01*
X0003118110Y0003201771D01*
G75*
G02*
X0003125984Y0003209645I0000007874D01*
G01*
G37*
G36*
G01*
X0003125984Y0003258858D02*
X0003173228Y0003258858D01*
G75*
G02*
X0003181102Y0003250984J-0000007874D01*
G01*
X0003181102Y0003235236D01*
G75*
G02*
X0003173228Y0003227362I-0000007874D01*
G01*
X0003125984Y0003227362D01*
G75*
G02*
X0003118110Y0003235236J0000007874D01*
G01*
X0003118110Y0003250984D01*
G75*
G02*
X0003125984Y0003258858I0000007874D01*
G01*
G37*
G36*
G01*
X0002765748Y0002898622D02*
X0002667322Y0002898622D01*
G75*
G02*
X0002657480Y0002908464J0000009842D01*
G01*
X0002657480Y0002971456D01*
G75*
G02*
X0002667322Y0002981299I0000009842D01*
G01*
X0002765748Y0002981299D01*
G75*
G02*
X0002775590Y0002971456J-0000009842D01*
G01*
X0002775590Y0002908464D01*
G75*
G02*
X0002765748Y0002898622I-0000009842D01*
G01*
G37*
G36*
G01*
X0002765748Y0002550196D02*
X0002667322Y0002550196D01*
G75*
G02*
X0002657480Y0002560039J0000009842D01*
G01*
X0002657480Y0002623031D01*
G75*
G02*
X0002667322Y0002632874I0000009842D01*
G01*
X0002765748Y0002632874D01*
G75*
G02*
X0002775590Y0002623031J-0000009842D01*
G01*
X0002775590Y0002560039D01*
G75*
G02*
X0002765748Y0002550196I-0000009842D01*
G01*
G37*
G36*
G01*
X0002854330Y0002823818D02*
X0002807086Y0002823818D01*
G75*
G02*
X0002799212Y0002831692J0000007874D01*
G01*
X0002799212Y0002847440D01*
G75*
G02*
X0002807086Y0002855314I0000007874D01*
G01*
X0002854330Y0002855314D01*
G75*
G02*
X0002862204Y0002847440J-0000007874D01*
G01*
X0002862204Y0002831692D01*
G75*
G02*
X0002854330Y0002823818I-0000007874D01*
G01*
G37*
G36*
G01*
X0002854330Y0002774606D02*
X0002807086Y0002774606D01*
G75*
G02*
X0002799212Y0002782480J0000007874D01*
G01*
X0002799212Y0002798228D01*
G75*
G02*
X0002807086Y0002806102I0000007874D01*
G01*
X0002854330Y0002806102D01*
G75*
G02*
X0002862204Y0002798228J-0000007874D01*
G01*
X0002862204Y0002782480D01*
G75*
G02*
X0002854330Y0002774606I-0000007874D01*
G01*
G37*
G36*
G01*
X0002854330Y0002725393D02*
X0002807086Y0002725393D01*
G75*
G02*
X0002799212Y0002733267J0000007874D01*
G01*
X0002799212Y0002749015D01*
G75*
G02*
X0002807086Y0002756889I0000007874D01*
G01*
X0002854330Y0002756889D01*
G75*
G02*
X0002862204Y0002749015J-0000007874D01*
G01*
X0002862204Y0002733267D01*
G75*
G02*
X0002854330Y0002725393I-0000007874D01*
G01*
G37*
G36*
G01*
X0002854330Y0002676181D02*
X0002807086Y0002676181D01*
G75*
G02*
X0002799212Y0002684055J0000007874D01*
G01*
X0002799212Y0002699803D01*
G75*
G02*
X0002807086Y0002707677I0000007874D01*
G01*
X0002854330Y0002707677D01*
G75*
G02*
X0002862204Y0002699803J-0000007874D01*
G01*
X0002862204Y0002684055D01*
G75*
G02*
X0002854330Y0002676181I-0000007874D01*
G01*
G37*
M02*