%MOIN*%
%OFA0B0*%
%FSLAX36Y36*%
%IPPOS*%
%LPD*%
%ADD10C,0*%
D10*
X001732283Y002440944D02*
X001732283Y002440944D01*
X001732283Y002276709D01*
X001731798Y002270550D01*
X001730356Y002264543D01*
X001727992Y002258836D01*
X001724764Y002253568D01*
X001720752Y002248870D01*
X001716054Y002244858D01*
X001710787Y002241630D01*
X001705079Y002239266D01*
X001699072Y002237824D01*
X001692913Y002237339D01*
X001686754Y002237824D01*
X001680747Y002239266D01*
X001675039Y002241630D01*
X001669772Y002244858D01*
X001665074Y002248870D01*
X001661062Y002253568D01*
X001657834Y002258836D01*
X001655470Y002264543D01*
X001654028Y002270550D01*
X001692913Y002276709D01*
X001653543Y002276709D01*
X001653543Y002440944D01*
X001371197Y002440944D01*
X001368108Y002441066D01*
X001365039Y002441429D01*
X001362007Y002442032D01*
X001359031Y002442871D01*
X001356131Y002443941D01*
X001353324Y002445235D01*
X001350627Y002446746D01*
X001348056Y002448463D01*
X001345629Y002450377D01*
X001343359Y002452476D01*
X001341260Y002454746D01*
X001339346Y002457173D01*
X001337629Y002459744D01*
X001336118Y002462441D01*
X001334824Y002465248D01*
X001333754Y002468148D01*
X001332915Y002471124D01*
X001332312Y002474156D01*
X001331949Y002477226D01*
X001371197Y002480314D01*
X001331949Y002483403D01*
X001332312Y002486473D01*
X001332915Y002489505D01*
X001333754Y002492480D01*
X001334824Y002495381D01*
X001336118Y002498188D01*
X001337629Y002500885D01*
X001339346Y002503456D01*
X001341260Y002505883D01*
X001343359Y002508153D01*
X001345629Y002510252D01*
X001348056Y002512166D01*
X001350627Y002513883D01*
X001353324Y002515393D01*
X001356131Y002516688D01*
X001359031Y002517758D01*
X001362007Y002518597D01*
X001365039Y002519200D01*
X001368108Y002519563D01*
X001371197Y002519685D01*
X001653543Y002519685D01*
X001653543Y002644550D01*
X001692913Y002644550D01*
X001654028Y002650708D01*
X001655470Y002656716D01*
X001657834Y002662423D01*
X001661062Y002667691D01*
X001665074Y002672388D01*
X001669772Y002676401D01*
X001675039Y002679629D01*
X001680747Y002681993D01*
X001686754Y002683435D01*
X001692913Y002683920D01*
X001699072Y002683435D01*
X001705079Y002681993D01*
X001710787Y002679629D01*
X001716054Y002676401D01*
X001720752Y002672388D01*
X001724764Y002667691D01*
X001727992Y002662423D01*
X001730356Y002656716D01*
X001731798Y002650708D01*
X001732283Y002644550D01*
X001732283Y002519685D01*
X002014628Y002519685D01*
X002023819Y002518597D01*
X002032502Y002515393D01*
X002040197Y002510252D01*
X002046479Y002503456D01*
X002051002Y002495381D01*
X002053514Y002486473D01*
X002053877Y002477226D01*
X002052072Y002468148D01*
X002048197Y002459744D01*
X002042467Y002452476D01*
X002035199Y002446746D01*
X002026794Y002442871D01*
X002017717Y002441066D01*
X002008470Y002441429D01*
X001999562Y002443941D01*
X001991487Y002448463D01*
X001984691Y002454746D01*
X001979549Y002462441D01*
X001976346Y002471124D01*
X002014628Y002480314D01*
X001976346Y002489505D01*
X001979549Y002498188D01*
X001984691Y002505883D01*
X001991487Y002512166D01*
X001999562Y002516688D01*
X002008470Y002519200D01*
X002017717Y002519563D01*
X002026794Y002517758D01*
X002035199Y002513883D01*
X002042467Y002508153D01*
X002048197Y002500885D01*
X002052072Y002492480D01*
X002053877Y002483403D01*
X002053514Y002474156D01*
X002051002Y002465248D01*
X002046479Y002457173D01*
X002040197Y002450377D01*
X002032502Y002445235D01*
X002023819Y002442032D01*
X002014628Y002440944D01*
X001732283Y002440944D01*
X001732283Y001424077D02*
X001732283Y001424077D01*
X001732283Y001259842D01*
X002053998Y001259842D01*
X002063189Y001258754D01*
X002071872Y001255551D01*
X002079567Y001250409D01*
X002085849Y001243613D01*
X002090372Y001235538D01*
X002092884Y001226631D01*
X002093247Y001217383D01*
X002091442Y001208306D01*
X002087567Y001199901D01*
X002081837Y001192633D01*
X002074569Y001186903D01*
X002066164Y001183029D01*
X002057087Y001181223D01*
X002047840Y001181587D01*
X002038932Y001184099D01*
X002030857Y001188621D01*
X002024061Y001194903D01*
X002018919Y001202598D01*
X002015716Y001211281D01*
X002053998Y001220472D01*
X002015716Y001229663D01*
X002018919Y001238346D01*
X002024061Y001246041D01*
X002030857Y001252323D01*
X002038932Y001256845D01*
X002047840Y001259357D01*
X002057087Y001259721D01*
X002066164Y001257915D01*
X002074569Y001254040D01*
X002081837Y001248311D01*
X002087567Y001241043D01*
X002091442Y001232638D01*
X002093247Y001223561D01*
X002092884Y001214313D01*
X002090372Y001205406D01*
X002085849Y001197331D01*
X002079567Y001190535D01*
X002071872Y001185393D01*
X002063189Y001182190D01*
X002053998Y001181102D01*
X001732283Y001181102D01*
X001732283Y001134977D01*
X001731798Y001128818D01*
X001730356Y001122811D01*
X001727992Y001117103D01*
X001724764Y001111836D01*
X001720752Y001107138D01*
X001716054Y001103126D01*
X001710787Y001099898D01*
X001705079Y001097534D01*
X001699072Y001096092D01*
X001692913Y001095607D01*
X001686754Y001096092D01*
X001680747Y001097534D01*
X001675039Y001099898D01*
X001669772Y001103126D01*
X001665074Y001107138D01*
X001661062Y001111836D01*
X001657834Y001117103D01*
X001655470Y001122811D01*
X001654028Y001128818D01*
X001692913Y001134977D01*
X001653543Y001134977D01*
X001653543Y001181102D01*
X001371197Y001181102D01*
X001368108Y001181223D01*
X001365039Y001181587D01*
X001362007Y001182190D01*
X001359031Y001183029D01*
X001356131Y001184099D01*
X001353324Y001185393D01*
X001350627Y001186903D01*
X001348056Y001188621D01*
X001345629Y001190535D01*
X001343359Y001192633D01*
X001341260Y001194903D01*
X001339346Y001197331D01*
X001337629Y001199901D01*
X001336118Y001202598D01*
X001334824Y001205406D01*
X001333754Y001208306D01*
X001332915Y001211281D01*
X001332312Y001214313D01*
X001331949Y001217383D01*
X001371197Y001220472D01*
X001331949Y001223561D01*
X001332312Y001226631D01*
X001332915Y001229663D01*
X001333754Y001232638D01*
X001334824Y001235538D01*
X001336118Y001238346D01*
X001337629Y001241043D01*
X001339346Y001243613D01*
X001341260Y001246041D01*
X001343359Y001248311D01*
X001345629Y001250409D01*
X001348056Y001252323D01*
X001350627Y001254040D01*
X001353324Y001255551D01*
X001356131Y001256845D01*
X001359031Y001257915D01*
X001362007Y001258754D01*
X001365039Y001259357D01*
X001368108Y001259721D01*
X001371197Y001259842D01*
X001653543Y001259842D01*
X001653543Y001424077D01*
X001692913Y001424077D01*
X001654028Y001430236D01*
X001655470Y001436243D01*
X001657834Y001441951D01*
X001661062Y001447218D01*
X001665074Y001451916D01*
X001669772Y001455928D01*
X001675039Y001459156D01*
X001680747Y001461520D01*
X001686754Y001462963D01*
X001692913Y001463447D01*
X001699072Y001462963D01*
X001705079Y001461520D01*
X001710787Y001459156D01*
X001716054Y001455928D01*
X001720752Y001451916D01*
X001724764Y001447218D01*
X001727992Y001441951D01*
X001730356Y001436243D01*
X001731798Y001430236D01*
X001732283Y001424077D01*
X002276709Y001259842D02*
X002276709Y001259842D01*
X002519685Y001259842D01*
X002519685Y001424077D01*
X002559055Y001424077D01*
X002520169Y001430236D01*
X002521611Y001436243D01*
X002523976Y001441951D01*
X002527204Y001447218D01*
X002531216Y001451916D01*
X002535913Y001455928D01*
X002541181Y001459156D01*
X002546889Y001461520D01*
X002552896Y001462963D01*
X002559055Y001463447D01*
X002565213Y001462963D01*
X002571221Y001461520D01*
X002576928Y001459156D01*
X002582196Y001455928D01*
X002586893Y001451916D01*
X002590906Y001447218D01*
X002594134Y001441951D01*
X002596498Y001436243D01*
X002597940Y001430236D01*
X002598425Y001424077D01*
X002598425Y001259842D01*
X002880770Y001259842D01*
X002889961Y001258754D01*
X002898644Y001255551D01*
X002906339Y001250409D01*
X002912621Y001243613D01*
X002917143Y001235538D01*
X002919655Y001226631D01*
X002920019Y001217383D01*
X002918213Y001208306D01*
X002914339Y001199901D01*
X002908609Y001192633D01*
X002901341Y001186903D01*
X002892936Y001183029D01*
X002883859Y001181223D01*
X002874611Y001181587D01*
X002865704Y001184099D01*
X002857629Y001188621D01*
X002850833Y001194903D01*
X002845691Y001202598D01*
X002842488Y001211281D01*
X002880770Y001220472D01*
X002842488Y001229663D01*
X002845691Y001238346D01*
X002850833Y001246041D01*
X002857629Y001252323D01*
X002865704Y001256845D01*
X002874611Y001259357D01*
X002883859Y001259721D01*
X002892936Y001257915D01*
X002901341Y001254040D01*
X002908609Y001248311D01*
X002914339Y001241043D01*
X002918213Y001232638D01*
X002920019Y001223561D01*
X002919655Y001214313D01*
X002917143Y001205406D01*
X002912621Y001197331D01*
X002906339Y001190535D01*
X002898644Y001185393D01*
X002889961Y001182190D01*
X002880770Y001181102D01*
X002598425Y001181102D01*
X002598425Y001134977D01*
X002597940Y001128818D01*
X002596498Y001122811D01*
X002594134Y001117103D01*
X002590906Y001111836D01*
X002586893Y001107138D01*
X002582196Y001103126D01*
X002576928Y001099898D01*
X002571221Y001097534D01*
X002565213Y001096092D01*
X002559055Y001095607D01*
X002552896Y001096092D01*
X002546889Y001097534D01*
X002541181Y001099898D01*
X002535913Y001103126D01*
X002531216Y001107138D01*
X002527204Y001111836D01*
X002523976Y001117103D01*
X002521611Y001122811D01*
X002520169Y001128818D01*
X002559055Y001134977D01*
X002519685Y001134977D01*
X002519685Y001181102D01*
X002276709Y001181102D01*
X002273620Y001181223D01*
X002270550Y001181587D01*
X002267518Y001182190D01*
X002264543Y001183029D01*
X002261643Y001184099D01*
X002258836Y001185393D01*
X002256138Y001186903D01*
X002253568Y001188621D01*
X002251140Y001190535D01*
X002248870Y001192633D01*
X002246772Y001194903D01*
X002244858Y001197331D01*
X002243141Y001199901D01*
X002241630Y001202598D01*
X002240336Y001205406D01*
X002239266Y001208306D01*
X002238427Y001211281D01*
X002237824Y001214313D01*
X002237461Y001217383D01*
X002276709Y001220472D01*
X002237461Y001223561D01*
X002237824Y001226631D01*
X002238427Y001229663D01*
X002239266Y001232638D01*
X002240336Y001235538D01*
X002241630Y001238346D01*
X002243141Y001241043D01*
X002244858Y001243613D01*
X002246772Y001246041D01*
X002248870Y001248311D01*
X002251140Y001250409D01*
X002253568Y001252323D01*
X002256138Y001254040D01*
X002258836Y001255551D01*
X002261643Y001256845D01*
X002264543Y001257915D01*
X002267518Y001258754D01*
X002270550Y001259357D01*
X002273620Y001259721D01*
X002276709Y001259842D01*
X000787401Y003392581D02*
X000787401Y003392581D01*
X000826771Y003392581D01*
X000787886Y003398740D01*
X000789328Y003404747D01*
X000791692Y003410455D01*
X000794920Y003415722D01*
X000798932Y003420420D01*
X000803630Y003424432D01*
X000808898Y003427660D01*
X000814605Y003430024D01*
X000820612Y003431466D01*
X000826771Y003431951D01*
X000832930Y003431466D01*
X000838937Y003430024D01*
X000844645Y003427660D01*
X000849912Y003424432D01*
X000854610Y003420420D01*
X000858622Y003415722D01*
X000861850Y003410455D01*
X000864214Y003404747D01*
X000865657Y003398740D01*
X000866141Y003392581D01*
X000866141Y002867260D01*
X000865657Y002861102D01*
X000864214Y002855094D01*
X000861850Y002849387D01*
X000858622Y002844119D01*
X000854610Y002839422D01*
X000849912Y002835409D01*
X000844645Y002832181D01*
X000838937Y002829817D01*
X000832930Y002828375D01*
X000826771Y002827890D01*
X000820612Y002828375D01*
X000814605Y002829817D01*
X000808898Y002832181D01*
X000803630Y002835409D01*
X000798932Y002839422D01*
X000794920Y002844119D01*
X000791692Y002849387D01*
X000789328Y002855094D01*
X000787886Y002861102D01*
X000826771Y002867260D01*
X000787401Y002867260D01*
X000787401Y003392581D01*
X002598425Y002276709D02*
X002598425Y002276709D01*
X002597940Y002270550D01*
X002596498Y002264543D01*
X002594134Y002258836D01*
X002590906Y002253568D01*
X002586893Y002248870D01*
X002582196Y002244858D01*
X002576928Y002241630D01*
X002571221Y002239266D01*
X002565213Y002237824D01*
X002559055Y002237339D01*
X002552896Y002237824D01*
X002546889Y002239266D01*
X002541181Y002241630D01*
X002535913Y002244858D01*
X002531216Y002248870D01*
X002527204Y002253568D01*
X002523976Y002258836D01*
X002521611Y002264543D01*
X002520169Y002270550D01*
X002559055Y002276709D01*
X002519685Y002276709D01*
X002519685Y002440944D01*
X002237339Y002440944D01*
X002234250Y002441066D01*
X002231180Y002441429D01*
X002228148Y002442032D01*
X002225173Y002442871D01*
X002222273Y002443941D01*
X002219466Y002445235D01*
X002216768Y002446746D01*
X002214198Y002448463D01*
X002211770Y002450377D01*
X002209500Y002452476D01*
X002207402Y002454746D01*
X002205488Y002457173D01*
X002203771Y002459744D01*
X002202260Y002462441D01*
X002200966Y002465248D01*
X002199896Y002468148D01*
X002199057Y002471124D01*
X002198454Y002474156D01*
X002198090Y002477226D01*
X002237339Y002480314D01*
X002198090Y002483403D01*
X002198454Y002486473D01*
X002199057Y002489505D01*
X002199896Y002492480D01*
X002200966Y002495381D01*
X002202260Y002498188D01*
X002203771Y002500885D01*
X002205488Y002503456D01*
X002207402Y002505883D01*
X002209500Y002508153D01*
X002211770Y002510252D01*
X002214198Y002512166D01*
X002216768Y002513883D01*
X002219466Y002515393D01*
X002222273Y002516688D01*
X002225173Y002517758D01*
X002228148Y002518597D01*
X002231180Y002519200D01*
X002234250Y002519563D01*
X002237339Y002519685D01*
X002519685Y002519685D01*
X002519685Y002644550D01*
X002559055Y002644550D01*
X002520169Y002650708D01*
X002521611Y002656716D01*
X002523976Y002662423D01*
X002527204Y002667691D01*
X002531216Y002672388D01*
X002535913Y002676401D01*
X002541181Y002679629D01*
X002546889Y002681993D01*
X002552896Y002683435D01*
X002559055Y002683920D01*
X002565213Y002683435D01*
X002571221Y002681993D01*
X002576928Y002679629D01*
X002582196Y002676401D01*
X002586893Y002672388D01*
X002590906Y002667691D01*
X002594134Y002662423D01*
X002596498Y002656716D01*
X002597940Y002650708D01*
X002598425Y002644550D01*
X002598425Y002519685D01*
X002880770Y002519685D01*
X002889961Y002518597D01*
X002898644Y002515393D01*
X002906339Y002510252D01*
X002912621Y002503456D01*
X002917143Y002495381D01*
X002919655Y002486473D01*
X002920019Y002477226D01*
X002918213Y002468148D01*
X002914339Y002459744D01*
X002908609Y002452476D01*
X002901341Y002446746D01*
X002892936Y002442871D01*
X002883859Y002441066D01*
X002874611Y002441429D01*
X002865704Y002443941D01*
X002857629Y002448463D01*
X002850833Y002454746D01*
X002845691Y002462441D01*
X002842488Y002471124D01*
X002880770Y002480314D01*
X002842488Y002489505D01*
X002845691Y002498188D01*
X002850833Y002505883D01*
X002857629Y002512166D01*
X002865704Y002516688D01*
X002874611Y002519200D01*
X002883859Y002519563D01*
X002892936Y002517758D01*
X002901341Y002513883D01*
X002908609Y002508153D01*
X002914339Y002500885D01*
X002918213Y002492480D01*
X002920019Y002483403D01*
X002919655Y002474156D01*
X002917143Y002465248D01*
X002912621Y002457173D01*
X002906339Y002450377D01*
X002898644Y002445235D01*
X002889961Y002442032D01*
X002880770Y002440944D01*
X002598425Y002440944D01*
X002598425Y002276709D01*
X002598425Y001646788D02*
X002598425Y001646788D01*
X002597940Y001640629D01*
X002596498Y001634622D01*
X002594134Y001628914D01*
X002590906Y001623647D01*
X002586893Y001618949D01*
X002582196Y001614937D01*
X002576928Y001611709D01*
X002571221Y001609345D01*
X002565213Y001607903D01*
X002559055Y001607418D01*
X002552896Y001607903D01*
X002546889Y001609345D01*
X002541181Y001611709D01*
X002535913Y001614937D01*
X002531216Y001618949D01*
X002527204Y001623647D01*
X002523976Y001628914D01*
X002521611Y001634622D01*
X002520169Y001640629D01*
X002559055Y001646788D01*
X002519685Y001646788D01*
X002519685Y002053998D01*
X002559055Y002053998D01*
X002520169Y002060157D01*
X002521611Y002066164D01*
X002523976Y002071872D01*
X002527204Y002077140D01*
X002531216Y002081837D01*
X002535913Y002085849D01*
X002541181Y002089077D01*
X002546889Y002091442D01*
X002552896Y002092884D01*
X002559055Y002093369D01*
X002565213Y002092884D01*
X002571221Y002091442D01*
X002576928Y002089077D01*
X002582196Y002085849D01*
X002586893Y002081837D01*
X002590906Y002077140D01*
X002594134Y002071872D01*
X002596498Y002066164D01*
X002597940Y002060157D01*
X002598425Y002053998D01*
X002598425Y001646788D01*
X001732283Y001646788D02*
X001732283Y001646788D01*
X001731798Y001640629D01*
X001730356Y001634622D01*
X001727992Y001628914D01*
X001724764Y001623647D01*
X001720752Y001618949D01*
X001716054Y001614937D01*
X001710787Y001611709D01*
X001705079Y001609345D01*
X001699072Y001607903D01*
X001692913Y001607418D01*
X001686754Y001607903D01*
X001680747Y001609345D01*
X001675039Y001611709D01*
X001669772Y001614937D01*
X001665074Y001618949D01*
X001661062Y001623647D01*
X001657834Y001628914D01*
X001655470Y001634622D01*
X001654028Y001640629D01*
X001692913Y001646788D01*
X001653543Y001646788D01*
X001653543Y002053998D01*
X001692913Y002053998D01*
X001654028Y002060157D01*
X001655470Y002066164D01*
X001657834Y002071872D01*
X001661062Y002077140D01*
X001665074Y002081837D01*
X001669772Y002085849D01*
X001675039Y002089077D01*
X001680747Y002091442D01*
X001686754Y002092884D01*
X001692913Y002093369D01*
X001699072Y002092884D01*
X001705079Y002091442D01*
X001710787Y002089077D01*
X001716054Y002085849D01*
X001720752Y002081837D01*
X001724764Y002077140D01*
X001727992Y002071872D01*
X001730356Y002066164D01*
X001731798Y002060157D01*
X001732283Y002053998D01*
X001732283Y001646788D01*
X000866141Y002276709D02*
X000866141Y002276709D01*
X000865657Y002270550D01*
X000864214Y002264543D01*
X000861850Y002258836D01*
X000858622Y002253568D01*
X000854610Y002248870D01*
X000849912Y002244858D01*
X000844645Y002241630D01*
X000838937Y002239266D01*
X000832930Y002237824D01*
X000826771Y002237339D01*
X000820612Y002237824D01*
X000814605Y002239266D01*
X000808898Y002241630D01*
X000803630Y002244858D01*
X000798932Y002248870D01*
X000794920Y002253568D01*
X000791692Y002258836D01*
X000789328Y002264543D01*
X000787886Y002270550D01*
X000826771Y002276709D01*
X000787401Y002276709D01*
X000787401Y002440944D01*
X000505056Y002440944D01*
X000498897Y002441429D01*
X000492890Y002442871D01*
X000487182Y002445235D01*
X000481915Y002448463D01*
X000477217Y002452476D01*
X000473205Y002457173D01*
X000469977Y002462441D01*
X000467613Y002468148D01*
X000466170Y002474156D01*
X000465686Y002480314D01*
X000466170Y002486473D01*
X000467613Y002492480D01*
X000469977Y002498188D01*
X000473205Y002503456D01*
X000477217Y002508153D01*
X000481915Y002512166D01*
X000487182Y002515393D01*
X000492890Y002517758D01*
X000498897Y002519200D01*
X000505056Y002519685D01*
X000505056Y002519685D01*
X000787401Y002519685D01*
X000787401Y002644550D01*
X000826771Y002644550D01*
X000787886Y002650708D01*
X000789328Y002656716D01*
X000791692Y002662423D01*
X000794920Y002667691D01*
X000798932Y002672388D01*
X000803630Y002676401D01*
X000808898Y002679629D01*
X000814605Y002681993D01*
X000820612Y002683435D01*
X000826771Y002683920D01*
X000832930Y002683435D01*
X000838937Y002681993D01*
X000844645Y002679629D01*
X000849912Y002676401D01*
X000854610Y002672388D01*
X000858622Y002667691D01*
X000861850Y002662423D01*
X000864214Y002656716D01*
X000865657Y002650708D01*
X000866141Y002644550D01*
X000866141Y002519685D01*
X001148487Y002519685D01*
X001157677Y002518597D01*
X001166360Y002515393D01*
X001174055Y002510252D01*
X001180338Y002503456D01*
X001184860Y002495381D01*
X001187372Y002486473D01*
X001187735Y002477226D01*
X001185930Y002468148D01*
X001182055Y002459744D01*
X001176325Y002452476D01*
X001169057Y002446746D01*
X001160653Y002442871D01*
X001151576Y002441066D01*
X001142328Y002441429D01*
X001133420Y002443941D01*
X001125345Y002448463D01*
X001118549Y002454746D01*
X001113408Y002462441D01*
X001110204Y002471124D01*
X001148487Y002480314D01*
X001110204Y002489505D01*
X001113408Y002498188D01*
X001118549Y002505883D01*
X001125345Y002512166D01*
X001133420Y002516688D01*
X001142328Y002519200D01*
X001151576Y002519563D01*
X001160653Y002517758D01*
X001169057Y002513883D01*
X001176325Y002508153D01*
X001182055Y002500885D01*
X001185930Y002492480D01*
X001187735Y002483403D01*
X001187372Y002474156D01*
X001184860Y002465248D01*
X001180338Y002457173D01*
X001174055Y002450377D01*
X001166360Y002445235D01*
X001157677Y002442032D01*
X001148487Y002440944D01*
X000866141Y002440944D01*
X000866141Y002276709D01*
X001732283Y002867260D02*
X001732283Y002867260D01*
X001731798Y002861102D01*
X001730356Y002855094D01*
X001727992Y002849387D01*
X001724764Y002844119D01*
X001720752Y002839422D01*
X001716054Y002835409D01*
X001710787Y002832181D01*
X001705079Y002829817D01*
X001699072Y002828375D01*
X001692913Y002827890D01*
X001686754Y002828375D01*
X001680747Y002829817D01*
X001675039Y002832181D01*
X001669772Y002835409D01*
X001665074Y002839422D01*
X001661062Y002844119D01*
X001657834Y002849387D01*
X001655470Y002855094D01*
X001654028Y002861102D01*
X001692913Y002867260D01*
X001653543Y002867260D01*
X001653543Y003392581D01*
X001692913Y003392581D01*
X001654028Y003398740D01*
X001655470Y003404747D01*
X001657834Y003410455D01*
X001661062Y003415722D01*
X001665074Y003420420D01*
X001669772Y003424432D01*
X001675039Y003427660D01*
X001680747Y003430024D01*
X001686754Y003431466D01*
X001692913Y003431951D01*
X001699072Y003431466D01*
X001705079Y003430024D01*
X001710787Y003427660D01*
X001716054Y003424432D01*
X001720752Y003420420D01*
X001724764Y003415722D01*
X001727992Y003410455D01*
X001730356Y003404747D01*
X001731798Y003398740D01*
X001732283Y003392581D01*
X001732283Y002867260D01*
X000866141Y001646788D02*
X000866141Y001646788D01*
X000865657Y001640629D01*
X000864214Y001634622D01*
X000861850Y001628914D01*
X000858622Y001623647D01*
X000854610Y001618949D01*
X000849912Y001614937D01*
X000844645Y001611709D01*
X000838937Y001609345D01*
X000832930Y001607903D01*
X000826771Y001607418D01*
X000820612Y001607903D01*
X000814605Y001609345D01*
X000808898Y001611709D01*
X000803630Y001614937D01*
X000798932Y001618949D01*
X000794920Y001623647D01*
X000791692Y001628914D01*
X000789328Y001634622D01*
X000787886Y001640629D01*
X000826771Y001646788D01*
X000787401Y001646788D01*
X000787401Y002053998D01*
X000826771Y002053998D01*
X000787886Y002060157D01*
X000789328Y002066164D01*
X000791692Y002071872D01*
X000794920Y002077140D01*
X000798932Y002081837D01*
X000803630Y002085849D01*
X000808898Y002089077D01*
X000814605Y002091442D01*
X000820612Y002092884D01*
X000826771Y002093369D01*
X000832930Y002092884D01*
X000838937Y002091442D01*
X000844645Y002089077D01*
X000849912Y002085849D01*
X000854610Y002081837D01*
X000858622Y002077140D01*
X000861850Y002071872D01*
X000864214Y002066164D01*
X000865657Y002060157D01*
X000866141Y002053998D01*
X000866141Y001646788D01*
X002519685Y000046124D02*
X002519685Y000046124D01*
X002520169Y000052283D01*
X002521611Y000058290D01*
X002523976Y000063998D01*
X002527204Y000069266D01*
X002531216Y000073963D01*
X002535913Y000077975D01*
X002541181Y000081203D01*
X002546889Y000083568D01*
X002552896Y000085010D01*
X002559055Y000085494D01*
X002565213Y000085010D01*
X002571221Y000083568D01*
X002576928Y000081203D01*
X002582196Y000077975D01*
X002586893Y000073963D01*
X002590906Y000069266D01*
X002594134Y000063998D01*
X002596498Y000058290D01*
X002597940Y000052283D01*
X002598425Y000046124D01*
X002598425Y000046124D01*
X002598425Y000046124D01*
X002598425Y000046124D01*
X002598425Y000000000D01*
X003385826Y000000000D01*
X003385826Y001181102D01*
X003103481Y001181102D01*
X003100392Y001181223D01*
X003097322Y001181587D01*
X003094290Y001182190D01*
X003091315Y001183029D01*
X003088415Y001184099D01*
X003085607Y001185393D01*
X003082910Y001186903D01*
X003080340Y001188621D01*
X003077912Y001190535D01*
X003075642Y001192633D01*
X003073544Y001194903D01*
X003071630Y001197331D01*
X003069912Y001199901D01*
X003068402Y001202598D01*
X003067108Y001205406D01*
X003066038Y001208306D01*
X003065199Y001211281D01*
X003064596Y001214313D01*
X003064232Y001217383D01*
X003103481Y001220472D01*
X003064232Y001223561D01*
X003064596Y001226631D01*
X003065199Y001229663D01*
X003066038Y001232638D01*
X003067108Y001235538D01*
X003068402Y001238346D01*
X003069912Y001241043D01*
X003071630Y001243613D01*
X003073544Y001246041D01*
X003075642Y001248311D01*
X003077912Y001250409D01*
X003080340Y001252323D01*
X003082910Y001254040D01*
X003085607Y001255551D01*
X003088415Y001256845D01*
X003091315Y001257915D01*
X003094290Y001258754D01*
X003097322Y001259357D01*
X003100392Y001259721D01*
X003103481Y001259842D01*
X003385826Y001259842D01*
X003385826Y002440944D01*
X003103481Y002440944D01*
X003100392Y002441066D01*
X003097322Y002441429D01*
X003094290Y002442032D01*
X003091315Y002442871D01*
X003088415Y002443941D01*
X003085607Y002445235D01*
X003082910Y002446746D01*
X003080340Y002448463D01*
X003077912Y002450377D01*
X003075642Y002452476D01*
X003073544Y002454746D01*
X003071630Y002457173D01*
X003069912Y002459744D01*
X003068402Y002462441D01*
X003067108Y002465248D01*
X003066038Y002468148D01*
X003065199Y002471124D01*
X003064596Y002474156D01*
X003064232Y002477226D01*
X003103481Y002480314D01*
X003064232Y002483403D01*
X003064596Y002486473D01*
X003065199Y002489505D01*
X003066038Y002492480D01*
X003067108Y002495381D01*
X003068402Y002498188D01*
X003069912Y002500885D01*
X003071630Y002503456D01*
X003073544Y002505883D01*
X003075642Y002508153D01*
X003077912Y002510252D01*
X003080340Y002512166D01*
X003082910Y002513883D01*
X003085607Y002515393D01*
X003088415Y002516688D01*
X003091315Y002517758D01*
X003094290Y002518597D01*
X003097322Y002519200D01*
X003100392Y002519563D01*
X003103481Y002519685D01*
X003385826Y002519685D01*
X003385826Y003700787D01*
X002598425Y003700787D01*
X002598425Y003615292D01*
X002597940Y003609133D01*
X002596498Y003603126D01*
X002594134Y003597418D01*
X002590906Y003592151D01*
X002586893Y003587453D01*
X002582196Y003583441D01*
X002576928Y003580213D01*
X002571221Y003577849D01*
X002565213Y003576407D01*
X002559055Y003575922D01*
X002552896Y003576407D01*
X002546889Y003577849D01*
X002541181Y003580213D01*
X002535913Y003583441D01*
X002531216Y003587453D01*
X002527204Y003592151D01*
X002523976Y003597418D01*
X002521611Y003603126D01*
X002520169Y003609133D01*
X002559055Y003615292D01*
X002519685Y003615292D01*
X002519685Y003700787D01*
X001732283Y003700787D01*
X001732283Y003615292D01*
X001731798Y003609133D01*
X001730356Y003603126D01*
X001727992Y003597418D01*
X001724764Y003592151D01*
X001720752Y003587453D01*
X001716054Y003583441D01*
X001710787Y003580213D01*
X001705079Y003577849D01*
X001699072Y003576407D01*
X001692913Y003575922D01*
X001686754Y003576407D01*
X001680747Y003577849D01*
X001675039Y003580213D01*
X001669772Y003583441D01*
X001665074Y003587453D01*
X001661062Y003592151D01*
X001657834Y003597418D01*
X001655470Y003603126D01*
X001654028Y003609133D01*
X001692913Y003615292D01*
X001653543Y003615292D01*
X001653543Y003700787D01*
X000866141Y003700787D01*
X000866141Y003615292D01*
X000865657Y003609133D01*
X000864214Y003603126D01*
X000861850Y003597418D01*
X000858622Y003592151D01*
X000854610Y003587453D01*
X000849912Y003583441D01*
X000844645Y003580213D01*
X000838937Y003577849D01*
X000832930Y003576407D01*
X000826771Y003575922D01*
X000820612Y003576407D01*
X000814605Y003577849D01*
X000808898Y003580213D01*
X000803630Y003583441D01*
X000798932Y003587453D01*
X000794920Y003592151D01*
X000791692Y003597418D01*
X000789328Y003603126D01*
X000787886Y003609133D01*
X000826771Y003615292D01*
X000787401Y003615292D01*
X000787401Y003700787D01*
X000000000Y003700787D01*
X000000000Y002519685D01*
X000282345Y002519685D01*
X000288504Y002519200D01*
X000294511Y002517758D01*
X000300219Y002515393D01*
X000305486Y002512166D01*
X000310184Y002508153D01*
X000314196Y002503456D01*
X000317424Y002498188D01*
X000319788Y002492480D01*
X000321230Y002486473D01*
X000321715Y002480314D01*
X000321230Y002474156D01*
X000319788Y002468148D01*
X000317424Y002462441D01*
X000314196Y002457173D01*
X000310184Y002452476D01*
X000305486Y002448463D01*
X000300219Y002445235D01*
X000294511Y002442871D01*
X000288504Y002441429D01*
X000282345Y002440944D01*
X000282345Y002440944D01*
X000000000Y002440944D01*
X000000000Y001259842D01*
X000282345Y001259842D01*
X000288504Y001259357D01*
X000294511Y001257915D01*
X000300219Y001255551D01*
X000305486Y001252323D01*
X000310184Y001248311D01*
X000314196Y001243613D01*
X000317424Y001238346D01*
X000319788Y001232638D01*
X000321230Y001226631D01*
X000321715Y001220472D01*
X000321230Y001214313D01*
X000319788Y001208306D01*
X000317424Y001202598D01*
X000314196Y001197331D01*
X000310184Y001192633D01*
X000305486Y001188621D01*
X000300219Y001185393D01*
X000294511Y001183029D01*
X000288504Y001181587D01*
X000282345Y001181102D01*
X000282345Y001181102D01*
X000000000Y001181102D01*
X000000000Y000000000D01*
X000787401Y000000000D01*
X000787401Y000046124D01*
X000787886Y000052283D01*
X000789328Y000058290D01*
X000791692Y000063998D01*
X000794920Y000069266D01*
X000798932Y000073963D01*
X000803630Y000077975D01*
X000808898Y000081203D01*
X000814605Y000083568D01*
X000820612Y000085010D01*
X000826771Y000085494D01*
X000832930Y000085010D01*
X000838937Y000083568D01*
X000844645Y000081203D01*
X000849912Y000077975D01*
X000854610Y000073963D01*
X000858622Y000069266D01*
X000861850Y000063998D01*
X000864214Y000058290D01*
X000865657Y000052283D01*
X000866141Y000046124D01*
X000866141Y000046124D01*
X000866141Y000046124D01*
X000866141Y000000000D01*
X001653543Y000000000D01*
X001653543Y000046124D01*
X001654028Y000052283D01*
X001655470Y000058290D01*
X001657834Y000063998D01*
X001661062Y000069266D01*
X001665074Y000073963D01*
X001669772Y000077975D01*
X001675039Y000081203D01*
X001680747Y000083568D01*
X001686754Y000085010D01*
X001692913Y000085494D01*
X001699072Y000085010D01*
X001705079Y000083568D01*
X001710787Y000081203D01*
X001716054Y000077975D01*
X001720752Y000073963D01*
X001724764Y000069266D01*
X001727992Y000063998D01*
X001730356Y000058290D01*
X001731798Y000052283D01*
X001732283Y000046124D01*
X001732283Y000046124D01*
X001732283Y000046124D01*
X001732283Y000046124D01*
X001732283Y000000000D01*
X002519685Y000000000D01*
X002519685Y000046124D01*
X002519685Y000912266D02*
X002519685Y000912266D01*
X002520169Y000918425D01*
X002521611Y000924432D01*
X002523976Y000930140D01*
X002527204Y000935407D01*
X002531216Y000940105D01*
X002535913Y000944117D01*
X002541181Y000947345D01*
X002546889Y000949709D01*
X002552896Y000951152D01*
X002559055Y000951636D01*
X002565213Y000951152D01*
X002571221Y000949709D01*
X002576928Y000947345D01*
X002582196Y000944117D01*
X002586893Y000940105D01*
X002590906Y000935407D01*
X002594134Y000930140D01*
X002596498Y000924432D01*
X002597940Y000918425D01*
X002598425Y000912266D01*
X002598425Y000912266D01*
X002598425Y000268835D01*
X002597940Y000262676D01*
X002596498Y000256669D01*
X002594134Y000250962D01*
X002590906Y000245694D01*
X002586893Y000240996D01*
X002582196Y000236984D01*
X002576928Y000233756D01*
X002571221Y000231392D01*
X002565213Y000229950D01*
X002559055Y000229465D01*
X002552896Y000229950D01*
X002546889Y000231392D01*
X002541181Y000233756D01*
X002535913Y000236984D01*
X002531216Y000240996D01*
X002527204Y000245694D01*
X002523976Y000250962D01*
X002521611Y000256669D01*
X002520169Y000262676D01*
X002519685Y000268835D01*
X002519685Y000268835D01*
X002519685Y000912266D01*
X001653543Y000912266D02*
X001653543Y000912266D01*
X001654028Y000918425D01*
X001655470Y000924432D01*
X001657834Y000930140D01*
X001661062Y000935407D01*
X001665074Y000940105D01*
X001669772Y000944117D01*
X001675039Y000947345D01*
X001680747Y000949709D01*
X001686754Y000951152D01*
X001692913Y000951636D01*
X001699072Y000951152D01*
X001705079Y000949709D01*
X001710787Y000947345D01*
X001716054Y000944117D01*
X001720752Y000940105D01*
X001724764Y000935407D01*
X001727992Y000930140D01*
X001730356Y000924432D01*
X001731798Y000918425D01*
X001732283Y000912266D01*
X001732283Y000912266D01*
X001732283Y000268835D01*
X001731798Y000262676D01*
X001730356Y000256669D01*
X001727992Y000250962D01*
X001724764Y000245694D01*
X001720752Y000240996D01*
X001716054Y000236984D01*
X001710787Y000233756D01*
X001705079Y000231392D01*
X001699072Y000229950D01*
X001692913Y000229465D01*
X001686754Y000229950D01*
X001680747Y000231392D01*
X001675039Y000233756D01*
X001669772Y000236984D01*
X001665074Y000240996D01*
X001661062Y000245694D01*
X001657834Y000250962D01*
X001655470Y000256669D01*
X001654028Y000262676D01*
X001653543Y000268835D01*
X001653543Y000268835D01*
X001653543Y000912266D01*
X002598425Y002867260D02*
X002598425Y002867260D01*
X002597940Y002861102D01*
X002596498Y002855094D01*
X002594134Y002849387D01*
X002590906Y002844119D01*
X002586893Y002839422D01*
X002582196Y002835409D01*
X002576928Y002832181D01*
X002571221Y002829817D01*
X002565213Y002828375D01*
X002559055Y002827890D01*
X002552896Y002828375D01*
X002546889Y002829817D01*
X002541181Y002832181D01*
X002535913Y002835409D01*
X002531216Y002839422D01*
X002527204Y002844119D01*
X002523976Y002849387D01*
X002521611Y002855094D01*
X002520169Y002861102D01*
X002559055Y002867260D01*
X002519685Y002867260D01*
X002519685Y003392581D01*
X002559055Y003392581D01*
X002520169Y003398740D01*
X002521611Y003404747D01*
X002523976Y003410455D01*
X002527204Y003415722D01*
X002531216Y003420420D01*
X002535913Y003424432D01*
X002541181Y003427660D01*
X002546889Y003430024D01*
X002552896Y003431466D01*
X002559055Y003431951D01*
X002565213Y003431466D01*
X002571221Y003430024D01*
X002576928Y003427660D01*
X002582196Y003424432D01*
X002586893Y003420420D01*
X002590906Y003415722D01*
X002594134Y003410455D01*
X002596498Y003404747D01*
X002597940Y003398740D01*
X002598425Y003392581D01*
X002598425Y002867260D01*
X000866141Y001134977D02*
X000866141Y001134977D01*
X000865657Y001128818D01*
X000864214Y001122811D01*
X000861850Y001117103D01*
X000858622Y001111836D01*
X000854610Y001107138D01*
X000849912Y001103126D01*
X000844645Y001099898D01*
X000838937Y001097534D01*
X000832930Y001096092D01*
X000826771Y001095607D01*
X000820612Y001096092D01*
X000814605Y001097534D01*
X000808898Y001099898D01*
X000803630Y001103126D01*
X000798932Y001107138D01*
X000794920Y001111836D01*
X000791692Y001117103D01*
X000789328Y001122811D01*
X000787886Y001128818D01*
X000826771Y001134977D01*
X000787401Y001134977D01*
X000787401Y001181102D01*
X000505056Y001181102D01*
X000498897Y001181587D01*
X000492890Y001183029D01*
X000487182Y001185393D01*
X000481915Y001188621D01*
X000477217Y001192633D01*
X000473205Y001197331D01*
X000469977Y001202598D01*
X000467613Y001208306D01*
X000466170Y001214313D01*
X000465686Y001220472D01*
X000466170Y001226631D01*
X000467613Y001232638D01*
X000469977Y001238346D01*
X000473205Y001243613D01*
X000477217Y001248311D01*
X000481915Y001252323D01*
X000487182Y001255551D01*
X000492890Y001257915D01*
X000498897Y001259357D01*
X000505056Y001259842D01*
X000505056Y001259842D01*
X000787401Y001259842D01*
X000787401Y001424077D01*
X000826771Y001424077D01*
X000787886Y001430236D01*
X000789328Y001436243D01*
X000791692Y001441951D01*
X000794920Y001447218D01*
X000798932Y001451916D01*
X000803630Y001455928D01*
X000808898Y001459156D01*
X000814605Y001461520D01*
X000820612Y001462963D01*
X000826771Y001463447D01*
X000832930Y001462963D01*
X000838937Y001461520D01*
X000844645Y001459156D01*
X000849912Y001455928D01*
X000854610Y001451916D01*
X000858622Y001447218D01*
X000861850Y001441951D01*
X000864214Y001436243D01*
X000865657Y001430236D01*
X000866141Y001424077D01*
X000866141Y001259842D01*
X001148487Y001259842D01*
X001157677Y001258754D01*
X001166360Y001255551D01*
X001174055Y001250409D01*
X001180338Y001243613D01*
X001184860Y001235538D01*
X001187372Y001226631D01*
X001187735Y001217383D01*
X001185930Y001208306D01*
X001182055Y001199901D01*
X001176325Y001192633D01*
X001169057Y001186903D01*
X001160653Y001183029D01*
X001151576Y001181223D01*
X001142328Y001181587D01*
X001133420Y001184099D01*
X001125345Y001188621D01*
X001118549Y001194903D01*
X001113408Y001202598D01*
X001110204Y001211281D01*
X001148487Y001220472D01*
X001110204Y001229663D01*
X001113408Y001238346D01*
X001118549Y001246041D01*
X001125345Y001252323D01*
X001133420Y001256845D01*
X001142328Y001259357D01*
X001151576Y001259721D01*
X001160653Y001257915D01*
X001169057Y001254040D01*
X001176325Y001248311D01*
X001182055Y001241043D01*
X001185930Y001232638D01*
X001187735Y001223561D01*
X001187372Y001214313D01*
X001184860Y001205406D01*
X001180338Y001197331D01*
X001174055Y001190535D01*
X001166360Y001185393D01*
X001157677Y001182190D01*
X001148487Y001181102D01*
X000866141Y001181102D01*
X000866141Y001134977D01*
X000866141Y000268835D02*
X000866141Y000268835D01*
X000865657Y000262676D01*
X000864214Y000256669D01*
X000861850Y000250962D01*
X000858622Y000245694D01*
X000854610Y000240996D01*
X000849912Y000236984D01*
X000844645Y000233756D01*
X000838937Y000231392D01*
X000832930Y000229950D01*
X000826771Y000229465D01*
X000820612Y000229950D01*
X000814605Y000231392D01*
X000808898Y000233756D01*
X000803630Y000236984D01*
X000798932Y000240996D01*
X000794920Y000245694D01*
X000791692Y000250962D01*
X000789328Y000256669D01*
X000787886Y000262676D01*
X000787401Y000268835D01*
X000787401Y000268835D01*
X000787401Y000912266D01*
X000787886Y000918425D01*
X000789328Y000924432D01*
X000791692Y000930140D01*
X000794920Y000935407D01*
X000798932Y000940105D01*
X000803630Y000944117D01*
X000808898Y000947345D01*
X000814605Y000949709D01*
X000820612Y000951152D01*
X000826771Y000951636D01*
X000832930Y000951152D01*
X000838937Y000949709D01*
X000844645Y000947345D01*
X000849912Y000944117D01*
X000854610Y000940105D01*
X000858622Y000935407D01*
X000861850Y000930140D01*
X000864214Y000924432D01*
X000865657Y000918425D01*
X000866141Y000912266D01*
X000866141Y000912266D01*
X000866141Y000268835D01*
M02*