G04 #@! TF.GenerationSoftware,KiCad,Pcbnew,(5.1.10)-1*
G04 #@! TF.CreationDate,2021-06-29T15:19:49+09:00*
G04 #@! TF.ProjectId,BLE_PPG_v1.1,424c455f-5050-4475-9f76-312e312e6b69,rev?*
G04 #@! TF.SameCoordinates,Original*
G04 #@! TF.FileFunction,Soldermask,Bot*
G04 #@! TF.FilePolarity,Negative*
%FSLAX46Y46*%
G04 Gerber Fmt 4.6, Leading zero omitted, Abs format (unit mm)*
G04 Created by KiCad (PCBNEW (5.1.10)-1) date 2021-06-29 15:19:49*
%MOMM*%
%LPD*%
G01*
G04 APERTURE LIST*
%ADD10R,0.812800X1.422400*%
G04 APERTURE END LIST*
G36*
G01*
X115750000Y-147125000D02*
X118250000Y-147125000D01*
G75*
G02*
X118500000Y-147375000I0J-250000D01*
G01*
X118500000Y-148975000D01*
G75*
G02*
X118250000Y-149225000I-250000J0D01*
G01*
X115750000Y-149225000D01*
G75*
G02*
X115500000Y-148975000I0J250000D01*
G01*
X115500000Y-147375000D01*
G75*
G02*
X115750000Y-147125000I250000J0D01*
G01*
G37*
G36*
G01*
X115750000Y-138275000D02*
X118250000Y-138275000D01*
G75*
G02*
X118500000Y-138525000I0J-250000D01*
G01*
X118500000Y-140125000D01*
G75*
G02*
X118250000Y-140375000I-250000J0D01*
G01*
X115750000Y-140375000D01*
G75*
G02*
X115500000Y-140125000I0J250000D01*
G01*
X115500000Y-138525000D01*
G75*
G02*
X115750000Y-138275000I250000J0D01*
G01*
G37*
G36*
G01*
X113500000Y-145225000D02*
X114700000Y-145225000D01*
G75*
G02*
X114900000Y-145425000I0J-200000D01*
G01*
X114900000Y-145825000D01*
G75*
G02*
X114700000Y-146025000I-200000J0D01*
G01*
X113500000Y-146025000D01*
G75*
G02*
X113300000Y-145825000I0J200000D01*
G01*
X113300000Y-145425000D01*
G75*
G02*
X113500000Y-145225000I200000J0D01*
G01*
G37*
G36*
G01*
X113500000Y-143975000D02*
X114700000Y-143975000D01*
G75*
G02*
X114900000Y-144175000I0J-200000D01*
G01*
X114900000Y-144575000D01*
G75*
G02*
X114700000Y-144775000I-200000J0D01*
G01*
X113500000Y-144775000D01*
G75*
G02*
X113300000Y-144575000I0J200000D01*
G01*
X113300000Y-144175000D01*
G75*
G02*
X113500000Y-143975000I200000J0D01*
G01*
G37*
G36*
G01*
X113500000Y-142725000D02*
X114700000Y-142725000D01*
G75*
G02*
X114900000Y-142925000I0J-200000D01*
G01*
X114900000Y-143325000D01*
G75*
G02*
X114700000Y-143525000I-200000J0D01*
G01*
X113500000Y-143525000D01*
G75*
G02*
X113300000Y-143325000I0J200000D01*
G01*
X113300000Y-142925000D01*
G75*
G02*
X113500000Y-142725000I200000J0D01*
G01*
G37*
G36*
G01*
X113500000Y-141475000D02*
X114700000Y-141475000D01*
G75*
G02*
X114900000Y-141675000I0J-200000D01*
G01*
X114900000Y-142075000D01*
G75*
G02*
X114700000Y-142275000I-200000J0D01*
G01*
X113500000Y-142275000D01*
G75*
G02*
X113300000Y-142075000I0J200000D01*
G01*
X113300000Y-141675000D01*
G75*
G02*
X113500000Y-141475000I200000J0D01*
G01*
G37*
D10*
X103175000Y-131600200D03*
X104825000Y-131600200D03*
X104825000Y-128399800D03*
X103175000Y-128399800D03*
X109175000Y-131600200D03*
X110825000Y-131600200D03*
X110825000Y-128399800D03*
X109175000Y-128399800D03*
G36*
G01*
X108775000Y-136275000D02*
X108775000Y-135725000D01*
G75*
G02*
X108975000Y-135525000I200000J0D01*
G01*
X109375000Y-135525000D01*
G75*
G02*
X109575000Y-135725000I0J-200000D01*
G01*
X109575000Y-136275000D01*
G75*
G02*
X109375000Y-136475000I-200000J0D01*
G01*
X108975000Y-136475000D01*
G75*
G02*
X108775000Y-136275000I0J200000D01*
G01*
G37*
G36*
G01*
X110425000Y-136275000D02*
X110425000Y-135725000D01*
G75*
G02*
X110625000Y-135525000I200000J0D01*
G01*
X111025000Y-135525000D01*
G75*
G02*
X111225000Y-135725000I0J-200000D01*
G01*
X111225000Y-136275000D01*
G75*
G02*
X111025000Y-136475000I-200000J0D01*
G01*
X110625000Y-136475000D01*
G75*
G02*
X110425000Y-136275000I0J200000D01*
G01*
G37*
G36*
G01*
X115649999Y-134375000D02*
X118150001Y-134375000D01*
G75*
G02*
X118400000Y-134624999I0J-249999D01*
G01*
X118400000Y-136225001D01*
G75*
G02*
X118150001Y-136475000I-249999J0D01*
G01*
X115649999Y-136475000D01*
G75*
G02*
X115400000Y-136225001I0J249999D01*
G01*
X115400000Y-134624999D01*
G75*
G02*
X115649999Y-134375000I249999J0D01*
G01*
G37*
G36*
G01*
X115649999Y-128025000D02*
X118150001Y-128025000D01*
G75*
G02*
X118400000Y-128274999I0J-249999D01*
G01*
X118400000Y-129875001D01*
G75*
G02*
X118150001Y-130125000I-249999J0D01*
G01*
X115649999Y-130125000D01*
G75*
G02*
X115400000Y-129875001I0J249999D01*
G01*
X115400000Y-128274999D01*
G75*
G02*
X115649999Y-128025000I249999J0D01*
G01*
G37*
G36*
G01*
X113400000Y-132475000D02*
X114600000Y-132475000D01*
G75*
G02*
X114800000Y-132675000I0J-200000D01*
G01*
X114800000Y-133075000D01*
G75*
G02*
X114600000Y-133275000I-200000J0D01*
G01*
X113400000Y-133275000D01*
G75*
G02*
X113200000Y-133075000I0J200000D01*
G01*
X113200000Y-132675000D01*
G75*
G02*
X113400000Y-132475000I200000J0D01*
G01*
G37*
G36*
G01*
X113400000Y-131225000D02*
X114600000Y-131225000D01*
G75*
G02*
X114800000Y-131425000I0J-200000D01*
G01*
X114800000Y-131825000D01*
G75*
G02*
X114600000Y-132025000I-200000J0D01*
G01*
X113400000Y-132025000D01*
G75*
G02*
X113200000Y-131825000I0J200000D01*
G01*
X113200000Y-131425000D01*
G75*
G02*
X113400000Y-131225000I200000J0D01*
G01*
G37*
G36*
G01*
X104250001Y-140375000D02*
X101749999Y-140375000D01*
G75*
G02*
X101500000Y-140125001I0J249999D01*
G01*
X101500000Y-138524999D01*
G75*
G02*
X101749999Y-138275000I249999J0D01*
G01*
X104250001Y-138275000D01*
G75*
G02*
X104500000Y-138524999I0J-249999D01*
G01*
X104500000Y-140125001D01*
G75*
G02*
X104250001Y-140375000I-249999J0D01*
G01*
G37*
G36*
G01*
X104250001Y-149225000D02*
X101749999Y-149225000D01*
G75*
G02*
X101500000Y-148975001I0J249999D01*
G01*
X101500000Y-147374999D01*
G75*
G02*
X101749999Y-147125000I249999J0D01*
G01*
X104250001Y-147125000D01*
G75*
G02*
X104500000Y-147374999I0J-249999D01*
G01*
X104500000Y-148975001D01*
G75*
G02*
X104250001Y-149225000I-249999J0D01*
G01*
G37*
G36*
G01*
X106500000Y-142275000D02*
X105300000Y-142275000D01*
G75*
G02*
X105100000Y-142075000I0J200000D01*
G01*
X105100000Y-141675000D01*
G75*
G02*
X105300000Y-141475000I200000J0D01*
G01*
X106500000Y-141475000D01*
G75*
G02*
X106700000Y-141675000I0J-200000D01*
G01*
X106700000Y-142075000D01*
G75*
G02*
X106500000Y-142275000I-200000J0D01*
G01*
G37*
G36*
G01*
X106500000Y-143525000D02*
X105300000Y-143525000D01*
G75*
G02*
X105100000Y-143325000I0J200000D01*
G01*
X105100000Y-142925000D01*
G75*
G02*
X105300000Y-142725000I200000J0D01*
G01*
X106500000Y-142725000D01*
G75*
G02*
X106700000Y-142925000I0J-200000D01*
G01*
X106700000Y-143325000D01*
G75*
G02*
X106500000Y-143525000I-200000J0D01*
G01*
G37*
G36*
G01*
X106500000Y-144775000D02*
X105300000Y-144775000D01*
G75*
G02*
X105100000Y-144575000I0J200000D01*
G01*
X105100000Y-144175000D01*
G75*
G02*
X105300000Y-143975000I200000J0D01*
G01*
X106500000Y-143975000D01*
G75*
G02*
X106700000Y-144175000I0J-200000D01*
G01*
X106700000Y-144575000D01*
G75*
G02*
X106500000Y-144775000I-200000J0D01*
G01*
G37*
G36*
G01*
X106500000Y-146025000D02*
X105300000Y-146025000D01*
G75*
G02*
X105100000Y-145825000I0J200000D01*
G01*
X105100000Y-145425000D01*
G75*
G02*
X105300000Y-145225000I200000J0D01*
G01*
X106500000Y-145225000D01*
G75*
G02*
X106700000Y-145425000I0J-200000D01*
G01*
X106700000Y-145825000D01*
G75*
G02*
X106500000Y-146025000I-200000J0D01*
G01*
G37*
M02*
