G04 #@! TF.GenerationSoftware,KiCad,Pcbnew,(5.1.10)-1*
G04 #@! TF.CreationDate,2021-06-29T15:19:49+09:00*
G04 #@! TF.ProjectId,BLE_PPG_v1.1,424c455f-5050-4475-9f76-312e312e6b69,rev?*
G04 #@! TF.SameCoordinates,Original*
G04 #@! TF.FileFunction,Copper,L1,Top*
G04 #@! TF.FilePolarity,Positive*
%FSLAX46Y46*%
G04 Gerber Fmt 4.6, Leading zero omitted, Abs format (unit mm)*
G04 Created by KiCad (PCBNEW (5.1.10)-1) date 2021-06-29 15:19:49*
%MOMM*%
%LPD*%
G01*
G04 APERTURE LIST*
G04 #@! TA.AperFunction,SMDPad,CuDef*
%ADD10R,5.000000X5.000000*%
G04 #@! TD*
G04 #@! TA.AperFunction,SMDPad,CuDef*
%ADD11R,2.000000X0.900000*%
G04 #@! TD*
G04 #@! TA.AperFunction,SMDPad,CuDef*
%ADD12R,0.900000X2.000000*%
G04 #@! TD*
G04 #@! TA.AperFunction,ViaPad*
%ADD13C,0.500000*%
G04 #@! TD*
G04 #@! TA.AperFunction,Conductor*
%ADD14C,0.203200*%
G04 #@! TD*
G04 #@! TA.AperFunction,Conductor*
%ADD15C,0.254000*%
G04 #@! TD*
G04 #@! TA.AperFunction,Conductor*
%ADD16C,0.100000*%
G04 #@! TD*
G04 APERTURE END LIST*
D10*
X109000000Y-136245000D03*
D11*
X101500000Y-128745000D03*
X101500000Y-130015000D03*
X101500000Y-131285000D03*
X101500000Y-132555000D03*
X101500000Y-133825000D03*
X101500000Y-135095000D03*
X101500000Y-136365000D03*
X101500000Y-137635000D03*
X101500000Y-138905000D03*
X101500000Y-140175000D03*
X101500000Y-141445000D03*
X101500000Y-142715000D03*
X101500000Y-143985000D03*
X101500000Y-145255000D03*
D12*
X104285000Y-146255000D03*
X105555000Y-146255000D03*
X106825000Y-146255000D03*
X108095000Y-146255000D03*
X109365000Y-146255000D03*
X110635000Y-146255000D03*
X111905000Y-146255000D03*
X113175000Y-146255000D03*
X114445000Y-146255000D03*
X115715000Y-146255000D03*
D11*
X118500000Y-145255000D03*
X118500000Y-143985000D03*
X118500000Y-142715000D03*
X118500000Y-141445000D03*
X118500000Y-140175000D03*
X118500000Y-138905000D03*
X118500000Y-137635000D03*
X118500000Y-136365000D03*
X118500000Y-135095000D03*
X118500000Y-133825000D03*
X118500000Y-132555000D03*
X118500000Y-131285000D03*
X118500000Y-130015000D03*
X118500000Y-128745000D03*
D13*
X107250000Y-128750000D03*
X104250000Y-142500000D03*
X111987400Y-132762600D03*
X109375000Y-141875000D03*
X108750000Y-143000000D03*
X110000000Y-140500000D03*
X112500000Y-130500000D03*
X111000000Y-142000000D03*
X109250000Y-143750000D03*
X112250000Y-134000000D03*
X116750000Y-146000000D03*
X116250000Y-143250000D03*
X111500000Y-144000000D03*
X113750000Y-139500000D03*
X113000000Y-135000000D03*
X104000000Y-133250000D03*
D14*
X107245000Y-128745000D02*
X107250000Y-128750000D01*
X101500000Y-128745000D02*
X107245000Y-128745000D01*
X118500000Y-128745000D02*
X118500000Y-128000000D01*
X118500000Y-128000000D02*
X117750000Y-127250000D01*
X108750000Y-127250000D02*
X107250000Y-128750000D01*
X104285000Y-142535000D02*
X104250000Y-142500000D01*
X104285000Y-146255000D02*
X104285000Y-142535000D01*
X117750000Y-127250000D02*
X108750000Y-127250000D01*
X109000000Y-136245000D02*
X109000000Y-135750000D01*
X109000000Y-135750000D02*
X111987400Y-132762600D01*
X109000000Y-141500000D02*
X109375000Y-141875000D01*
X109000000Y-136245000D02*
X109000000Y-141500000D01*
X118500000Y-133825000D02*
X115175000Y-133825000D01*
X115175000Y-133825000D02*
X114500000Y-134500000D01*
X114500000Y-134500000D02*
X114500000Y-137250000D01*
X108995922Y-143000000D02*
X108750000Y-143000000D01*
X114500000Y-137495922D02*
X108995922Y-143000000D01*
X114500000Y-137250000D02*
X114500000Y-137495922D01*
X118500000Y-132555000D02*
X114445000Y-132555000D01*
X114445000Y-132555000D02*
X113750000Y-133250000D01*
X113750000Y-133250000D02*
X113750000Y-136000000D01*
X110202202Y-140500000D02*
X110000000Y-140500000D01*
X113750000Y-136952202D02*
X110202202Y-140500000D01*
X113750000Y-136000000D02*
X113750000Y-136952202D01*
X112015000Y-130015000D02*
X112500000Y-130500000D01*
X101500000Y-130015000D02*
X112015000Y-130015000D01*
X111000000Y-142000000D02*
X109250000Y-143750000D01*
X112500000Y-133750000D02*
X112500000Y-130500000D01*
X112250000Y-134000000D02*
X112500000Y-133750000D01*
X117495000Y-145255000D02*
X118500000Y-145255000D01*
X116750000Y-146000000D02*
X117495000Y-145255000D01*
X116250000Y-136141800D02*
X116250000Y-143250000D01*
X117296800Y-135095000D02*
X116250000Y-136141800D01*
X118500000Y-135095000D02*
X117296800Y-135095000D01*
X118500000Y-131285000D02*
X114715000Y-131285000D01*
X114715000Y-131285000D02*
X113000000Y-133000000D01*
X113000000Y-133000000D02*
X113000000Y-135000000D01*
X113000000Y-135000000D02*
X113000000Y-133497092D01*
X111500000Y-144000000D02*
X113750000Y-141750000D01*
X113750000Y-141750000D02*
X113750000Y-139500000D01*
X102388553Y-131285000D02*
X101500000Y-131285000D01*
X104000000Y-132896447D02*
X102388553Y-131285000D01*
X104000000Y-133250000D02*
X104000000Y-132896447D01*
D15*
X111649010Y-130758145D02*
X111715723Y-130919205D01*
X111763401Y-130990560D01*
X111763400Y-133165772D01*
X111744180Y-133155498D01*
X111624482Y-133119188D01*
X111500000Y-133106928D01*
X109285750Y-133110000D01*
X109127000Y-133268750D01*
X109127000Y-136118000D01*
X111976250Y-136118000D01*
X112135000Y-135959250D01*
X112136063Y-135193056D01*
X112149010Y-135258145D01*
X112215723Y-135419205D01*
X112312576Y-135564155D01*
X112435845Y-135687424D01*
X112580795Y-135784277D01*
X112741855Y-135850990D01*
X112912835Y-135885000D01*
X113013401Y-135885000D01*
X113013401Y-135963805D01*
X113013400Y-135963815D01*
X113013401Y-136647091D01*
X112136378Y-137524114D01*
X112135000Y-136530750D01*
X111976250Y-136372000D01*
X109127000Y-136372000D01*
X109127000Y-139221250D01*
X109285750Y-139380000D01*
X110279115Y-139381378D01*
X110045493Y-139615000D01*
X109912835Y-139615000D01*
X109741855Y-139649010D01*
X109580795Y-139715723D01*
X109435845Y-139812576D01*
X109312576Y-139935845D01*
X109215723Y-140080795D01*
X109149010Y-140241855D01*
X109115000Y-140412835D01*
X109115000Y-140587165D01*
X109149010Y-140758145D01*
X109215723Y-140919205D01*
X109312576Y-141064155D01*
X109435845Y-141187424D01*
X109580795Y-141284277D01*
X109643827Y-141310386D01*
X108838873Y-142115340D01*
X108837165Y-142115000D01*
X108662835Y-142115000D01*
X108491855Y-142149010D01*
X108330795Y-142215723D01*
X108185845Y-142312576D01*
X108062576Y-142435845D01*
X107965723Y-142580795D01*
X107899010Y-142741855D01*
X107865000Y-142912835D01*
X107865000Y-143087165D01*
X107899010Y-143258145D01*
X107965723Y-143419205D01*
X108062576Y-143564155D01*
X108185845Y-143687424D01*
X108330795Y-143784277D01*
X108365000Y-143798445D01*
X108365000Y-143837165D01*
X108399010Y-144008145D01*
X108465723Y-144169205D01*
X108562576Y-144314155D01*
X108685845Y-144437424D01*
X108830795Y-144534277D01*
X108991855Y-144600990D01*
X109071981Y-144616928D01*
X108915000Y-144616928D01*
X108790518Y-144629188D01*
X108730000Y-144647546D01*
X108669482Y-144629188D01*
X108545000Y-144616928D01*
X107645000Y-144616928D01*
X107520518Y-144629188D01*
X107460000Y-144647546D01*
X107399482Y-144629188D01*
X107275000Y-144616928D01*
X106375000Y-144616928D01*
X106250518Y-144629188D01*
X106190000Y-144647546D01*
X106129482Y-144629188D01*
X106005000Y-144616928D01*
X105105000Y-144616928D01*
X104980518Y-144629188D01*
X104920000Y-144647546D01*
X104859482Y-144629188D01*
X104735000Y-144616928D01*
X104570750Y-144620000D01*
X104412000Y-144778750D01*
X104412000Y-146128000D01*
X104432000Y-146128000D01*
X104432000Y-146382000D01*
X104412000Y-146382000D01*
X104412000Y-147731250D01*
X104570750Y-147890000D01*
X104735000Y-147893072D01*
X104859482Y-147880812D01*
X104920000Y-147862454D01*
X104980518Y-147880812D01*
X105105000Y-147893072D01*
X106005000Y-147893072D01*
X106129482Y-147880812D01*
X106190000Y-147862454D01*
X106250518Y-147880812D01*
X106375000Y-147893072D01*
X107275000Y-147893072D01*
X107399482Y-147880812D01*
X107460000Y-147862454D01*
X107520518Y-147880812D01*
X107645000Y-147893072D01*
X108545000Y-147893072D01*
X108669482Y-147880812D01*
X108730000Y-147862454D01*
X108790518Y-147880812D01*
X108915000Y-147893072D01*
X109815000Y-147893072D01*
X109939482Y-147880812D01*
X110000000Y-147862454D01*
X110060518Y-147880812D01*
X110185000Y-147893072D01*
X111085000Y-147893072D01*
X111209482Y-147880812D01*
X111270000Y-147862454D01*
X111330518Y-147880812D01*
X111455000Y-147893072D01*
X112355000Y-147893072D01*
X112479482Y-147880812D01*
X112540000Y-147862454D01*
X112600518Y-147880812D01*
X112725000Y-147893072D01*
X113625000Y-147893072D01*
X113749482Y-147880812D01*
X113810000Y-147862454D01*
X113870518Y-147880812D01*
X113995000Y-147893072D01*
X114895000Y-147893072D01*
X115019482Y-147880812D01*
X115080000Y-147862454D01*
X115140518Y-147880812D01*
X115265000Y-147893072D01*
X116165000Y-147893072D01*
X116289482Y-147880812D01*
X116409180Y-147844502D01*
X116519494Y-147785537D01*
X116616185Y-147706185D01*
X116695537Y-147609494D01*
X116754502Y-147499180D01*
X116790812Y-147379482D01*
X116803072Y-147255000D01*
X116803072Y-146885000D01*
X116837165Y-146885000D01*
X117008145Y-146850990D01*
X117169205Y-146784277D01*
X117314155Y-146687424D01*
X117437424Y-146564155D01*
X117534277Y-146419205D01*
X117565812Y-146343072D01*
X119340001Y-146343072D01*
X119340001Y-149340000D01*
X100660000Y-149340000D01*
X100660000Y-147255000D01*
X103196928Y-147255000D01*
X103209188Y-147379482D01*
X103245498Y-147499180D01*
X103304463Y-147609494D01*
X103383815Y-147706185D01*
X103480506Y-147785537D01*
X103590820Y-147844502D01*
X103710518Y-147880812D01*
X103835000Y-147893072D01*
X103999250Y-147890000D01*
X104158000Y-147731250D01*
X104158000Y-146382000D01*
X103358750Y-146382000D01*
X103200000Y-146540750D01*
X103196928Y-147255000D01*
X100660000Y-147255000D01*
X100660000Y-146343072D01*
X102500000Y-146343072D01*
X102624482Y-146330812D01*
X102744180Y-146294502D01*
X102854494Y-146235537D01*
X102951185Y-146156185D01*
X103030537Y-146059494D01*
X103089502Y-145949180D01*
X103125812Y-145829482D01*
X103138072Y-145705000D01*
X103138072Y-145255000D01*
X103196928Y-145255000D01*
X103200000Y-145969250D01*
X103358750Y-146128000D01*
X104158000Y-146128000D01*
X104158000Y-144778750D01*
X103999250Y-144620000D01*
X103835000Y-144616928D01*
X103710518Y-144629188D01*
X103590820Y-144665498D01*
X103480506Y-144724463D01*
X103383815Y-144803815D01*
X103304463Y-144900506D01*
X103245498Y-145010820D01*
X103209188Y-145130518D01*
X103196928Y-145255000D01*
X103138072Y-145255000D01*
X103138072Y-144805000D01*
X103125812Y-144680518D01*
X103107454Y-144620000D01*
X103125812Y-144559482D01*
X103138072Y-144435000D01*
X103138072Y-143535000D01*
X103125812Y-143410518D01*
X103107454Y-143350000D01*
X103125812Y-143289482D01*
X103138072Y-143165000D01*
X103138072Y-142265000D01*
X103125812Y-142140518D01*
X103107454Y-142080000D01*
X103125812Y-142019482D01*
X103138072Y-141895000D01*
X103138072Y-140995000D01*
X103125812Y-140870518D01*
X103107454Y-140810000D01*
X103125812Y-140749482D01*
X103138072Y-140625000D01*
X103138072Y-139725000D01*
X103125812Y-139600518D01*
X103107454Y-139540000D01*
X103125812Y-139479482D01*
X103138072Y-139355000D01*
X103138072Y-138745000D01*
X105861928Y-138745000D01*
X105874188Y-138869482D01*
X105910498Y-138989180D01*
X105969463Y-139099494D01*
X106048815Y-139196185D01*
X106145506Y-139275537D01*
X106255820Y-139334502D01*
X106375518Y-139370812D01*
X106500000Y-139383072D01*
X108714250Y-139380000D01*
X108873000Y-139221250D01*
X108873000Y-136372000D01*
X106023750Y-136372000D01*
X105865000Y-136530750D01*
X105861928Y-138745000D01*
X103138072Y-138745000D01*
X103138072Y-138455000D01*
X103125812Y-138330518D01*
X103107454Y-138270000D01*
X103125812Y-138209482D01*
X103138072Y-138085000D01*
X103138072Y-137185000D01*
X103125812Y-137060518D01*
X103107454Y-137000000D01*
X103125812Y-136939482D01*
X103138072Y-136815000D01*
X103138072Y-135915000D01*
X103125812Y-135790518D01*
X103107454Y-135730000D01*
X103125812Y-135669482D01*
X103138072Y-135545000D01*
X103138072Y-134645000D01*
X103125812Y-134520518D01*
X103107454Y-134460000D01*
X103125812Y-134399482D01*
X103138072Y-134275000D01*
X103138072Y-133453156D01*
X103149010Y-133508145D01*
X103215723Y-133669205D01*
X103312576Y-133814155D01*
X103435845Y-133937424D01*
X103580795Y-134034277D01*
X103741855Y-134100990D01*
X103912835Y-134135000D01*
X104087165Y-134135000D01*
X104258145Y-134100990D01*
X104419205Y-134034277D01*
X104564155Y-133937424D01*
X104687424Y-133814155D01*
X104733632Y-133745000D01*
X105861928Y-133745000D01*
X105865000Y-135959250D01*
X106023750Y-136118000D01*
X108873000Y-136118000D01*
X108873000Y-133268750D01*
X108714250Y-133110000D01*
X106500000Y-133106928D01*
X106375518Y-133119188D01*
X106255820Y-133155498D01*
X106145506Y-133214463D01*
X106048815Y-133293815D01*
X105969463Y-133390506D01*
X105910498Y-133500820D01*
X105874188Y-133620518D01*
X105861928Y-133745000D01*
X104733632Y-133745000D01*
X104784277Y-133669205D01*
X104850990Y-133508145D01*
X104885000Y-133337165D01*
X104885000Y-133162835D01*
X104850990Y-132991855D01*
X104784277Y-132830795D01*
X104721187Y-132736375D01*
X104683822Y-132613198D01*
X104615424Y-132485234D01*
X104523375Y-132373072D01*
X104495269Y-132350006D01*
X103138072Y-130992810D01*
X103138072Y-130835000D01*
X103129858Y-130751600D01*
X111647708Y-130751600D01*
X111649010Y-130758145D01*
G04 #@! TA.AperFunction,Conductor*
D16*
G36*
X111649010Y-130758145D02*
G01*
X111715723Y-130919205D01*
X111763401Y-130990560D01*
X111763400Y-133165772D01*
X111744180Y-133155498D01*
X111624482Y-133119188D01*
X111500000Y-133106928D01*
X109285750Y-133110000D01*
X109127000Y-133268750D01*
X109127000Y-136118000D01*
X111976250Y-136118000D01*
X112135000Y-135959250D01*
X112136063Y-135193056D01*
X112149010Y-135258145D01*
X112215723Y-135419205D01*
X112312576Y-135564155D01*
X112435845Y-135687424D01*
X112580795Y-135784277D01*
X112741855Y-135850990D01*
X112912835Y-135885000D01*
X113013401Y-135885000D01*
X113013401Y-135963805D01*
X113013400Y-135963815D01*
X113013401Y-136647091D01*
X112136378Y-137524114D01*
X112135000Y-136530750D01*
X111976250Y-136372000D01*
X109127000Y-136372000D01*
X109127000Y-139221250D01*
X109285750Y-139380000D01*
X110279115Y-139381378D01*
X110045493Y-139615000D01*
X109912835Y-139615000D01*
X109741855Y-139649010D01*
X109580795Y-139715723D01*
X109435845Y-139812576D01*
X109312576Y-139935845D01*
X109215723Y-140080795D01*
X109149010Y-140241855D01*
X109115000Y-140412835D01*
X109115000Y-140587165D01*
X109149010Y-140758145D01*
X109215723Y-140919205D01*
X109312576Y-141064155D01*
X109435845Y-141187424D01*
X109580795Y-141284277D01*
X109643827Y-141310386D01*
X108838873Y-142115340D01*
X108837165Y-142115000D01*
X108662835Y-142115000D01*
X108491855Y-142149010D01*
X108330795Y-142215723D01*
X108185845Y-142312576D01*
X108062576Y-142435845D01*
X107965723Y-142580795D01*
X107899010Y-142741855D01*
X107865000Y-142912835D01*
X107865000Y-143087165D01*
X107899010Y-143258145D01*
X107965723Y-143419205D01*
X108062576Y-143564155D01*
X108185845Y-143687424D01*
X108330795Y-143784277D01*
X108365000Y-143798445D01*
X108365000Y-143837165D01*
X108399010Y-144008145D01*
X108465723Y-144169205D01*
X108562576Y-144314155D01*
X108685845Y-144437424D01*
X108830795Y-144534277D01*
X108991855Y-144600990D01*
X109071981Y-144616928D01*
X108915000Y-144616928D01*
X108790518Y-144629188D01*
X108730000Y-144647546D01*
X108669482Y-144629188D01*
X108545000Y-144616928D01*
X107645000Y-144616928D01*
X107520518Y-144629188D01*
X107460000Y-144647546D01*
X107399482Y-144629188D01*
X107275000Y-144616928D01*
X106375000Y-144616928D01*
X106250518Y-144629188D01*
X106190000Y-144647546D01*
X106129482Y-144629188D01*
X106005000Y-144616928D01*
X105105000Y-144616928D01*
X104980518Y-144629188D01*
X104920000Y-144647546D01*
X104859482Y-144629188D01*
X104735000Y-144616928D01*
X104570750Y-144620000D01*
X104412000Y-144778750D01*
X104412000Y-146128000D01*
X104432000Y-146128000D01*
X104432000Y-146382000D01*
X104412000Y-146382000D01*
X104412000Y-147731250D01*
X104570750Y-147890000D01*
X104735000Y-147893072D01*
X104859482Y-147880812D01*
X104920000Y-147862454D01*
X104980518Y-147880812D01*
X105105000Y-147893072D01*
X106005000Y-147893072D01*
X106129482Y-147880812D01*
X106190000Y-147862454D01*
X106250518Y-147880812D01*
X106375000Y-147893072D01*
X107275000Y-147893072D01*
X107399482Y-147880812D01*
X107460000Y-147862454D01*
X107520518Y-147880812D01*
X107645000Y-147893072D01*
X108545000Y-147893072D01*
X108669482Y-147880812D01*
X108730000Y-147862454D01*
X108790518Y-147880812D01*
X108915000Y-147893072D01*
X109815000Y-147893072D01*
X109939482Y-147880812D01*
X110000000Y-147862454D01*
X110060518Y-147880812D01*
X110185000Y-147893072D01*
X111085000Y-147893072D01*
X111209482Y-147880812D01*
X111270000Y-147862454D01*
X111330518Y-147880812D01*
X111455000Y-147893072D01*
X112355000Y-147893072D01*
X112479482Y-147880812D01*
X112540000Y-147862454D01*
X112600518Y-147880812D01*
X112725000Y-147893072D01*
X113625000Y-147893072D01*
X113749482Y-147880812D01*
X113810000Y-147862454D01*
X113870518Y-147880812D01*
X113995000Y-147893072D01*
X114895000Y-147893072D01*
X115019482Y-147880812D01*
X115080000Y-147862454D01*
X115140518Y-147880812D01*
X115265000Y-147893072D01*
X116165000Y-147893072D01*
X116289482Y-147880812D01*
X116409180Y-147844502D01*
X116519494Y-147785537D01*
X116616185Y-147706185D01*
X116695537Y-147609494D01*
X116754502Y-147499180D01*
X116790812Y-147379482D01*
X116803072Y-147255000D01*
X116803072Y-146885000D01*
X116837165Y-146885000D01*
X117008145Y-146850990D01*
X117169205Y-146784277D01*
X117314155Y-146687424D01*
X117437424Y-146564155D01*
X117534277Y-146419205D01*
X117565812Y-146343072D01*
X119340001Y-146343072D01*
X119340001Y-149340000D01*
X100660000Y-149340000D01*
X100660000Y-147255000D01*
X103196928Y-147255000D01*
X103209188Y-147379482D01*
X103245498Y-147499180D01*
X103304463Y-147609494D01*
X103383815Y-147706185D01*
X103480506Y-147785537D01*
X103590820Y-147844502D01*
X103710518Y-147880812D01*
X103835000Y-147893072D01*
X103999250Y-147890000D01*
X104158000Y-147731250D01*
X104158000Y-146382000D01*
X103358750Y-146382000D01*
X103200000Y-146540750D01*
X103196928Y-147255000D01*
X100660000Y-147255000D01*
X100660000Y-146343072D01*
X102500000Y-146343072D01*
X102624482Y-146330812D01*
X102744180Y-146294502D01*
X102854494Y-146235537D01*
X102951185Y-146156185D01*
X103030537Y-146059494D01*
X103089502Y-145949180D01*
X103125812Y-145829482D01*
X103138072Y-145705000D01*
X103138072Y-145255000D01*
X103196928Y-145255000D01*
X103200000Y-145969250D01*
X103358750Y-146128000D01*
X104158000Y-146128000D01*
X104158000Y-144778750D01*
X103999250Y-144620000D01*
X103835000Y-144616928D01*
X103710518Y-144629188D01*
X103590820Y-144665498D01*
X103480506Y-144724463D01*
X103383815Y-144803815D01*
X103304463Y-144900506D01*
X103245498Y-145010820D01*
X103209188Y-145130518D01*
X103196928Y-145255000D01*
X103138072Y-145255000D01*
X103138072Y-144805000D01*
X103125812Y-144680518D01*
X103107454Y-144620000D01*
X103125812Y-144559482D01*
X103138072Y-144435000D01*
X103138072Y-143535000D01*
X103125812Y-143410518D01*
X103107454Y-143350000D01*
X103125812Y-143289482D01*
X103138072Y-143165000D01*
X103138072Y-142265000D01*
X103125812Y-142140518D01*
X103107454Y-142080000D01*
X103125812Y-142019482D01*
X103138072Y-141895000D01*
X103138072Y-140995000D01*
X103125812Y-140870518D01*
X103107454Y-140810000D01*
X103125812Y-140749482D01*
X103138072Y-140625000D01*
X103138072Y-139725000D01*
X103125812Y-139600518D01*
X103107454Y-139540000D01*
X103125812Y-139479482D01*
X103138072Y-139355000D01*
X103138072Y-138745000D01*
X105861928Y-138745000D01*
X105874188Y-138869482D01*
X105910498Y-138989180D01*
X105969463Y-139099494D01*
X106048815Y-139196185D01*
X106145506Y-139275537D01*
X106255820Y-139334502D01*
X106375518Y-139370812D01*
X106500000Y-139383072D01*
X108714250Y-139380000D01*
X108873000Y-139221250D01*
X108873000Y-136372000D01*
X106023750Y-136372000D01*
X105865000Y-136530750D01*
X105861928Y-138745000D01*
X103138072Y-138745000D01*
X103138072Y-138455000D01*
X103125812Y-138330518D01*
X103107454Y-138270000D01*
X103125812Y-138209482D01*
X103138072Y-138085000D01*
X103138072Y-137185000D01*
X103125812Y-137060518D01*
X103107454Y-137000000D01*
X103125812Y-136939482D01*
X103138072Y-136815000D01*
X103138072Y-135915000D01*
X103125812Y-135790518D01*
X103107454Y-135730000D01*
X103125812Y-135669482D01*
X103138072Y-135545000D01*
X103138072Y-134645000D01*
X103125812Y-134520518D01*
X103107454Y-134460000D01*
X103125812Y-134399482D01*
X103138072Y-134275000D01*
X103138072Y-133453156D01*
X103149010Y-133508145D01*
X103215723Y-133669205D01*
X103312576Y-133814155D01*
X103435845Y-133937424D01*
X103580795Y-134034277D01*
X103741855Y-134100990D01*
X103912835Y-134135000D01*
X104087165Y-134135000D01*
X104258145Y-134100990D01*
X104419205Y-134034277D01*
X104564155Y-133937424D01*
X104687424Y-133814155D01*
X104733632Y-133745000D01*
X105861928Y-133745000D01*
X105865000Y-135959250D01*
X106023750Y-136118000D01*
X108873000Y-136118000D01*
X108873000Y-133268750D01*
X108714250Y-133110000D01*
X106500000Y-133106928D01*
X106375518Y-133119188D01*
X106255820Y-133155498D01*
X106145506Y-133214463D01*
X106048815Y-133293815D01*
X105969463Y-133390506D01*
X105910498Y-133500820D01*
X105874188Y-133620518D01*
X105861928Y-133745000D01*
X104733632Y-133745000D01*
X104784277Y-133669205D01*
X104850990Y-133508145D01*
X104885000Y-133337165D01*
X104885000Y-133162835D01*
X104850990Y-132991855D01*
X104784277Y-132830795D01*
X104721187Y-132736375D01*
X104683822Y-132613198D01*
X104615424Y-132485234D01*
X104523375Y-132373072D01*
X104495269Y-132350006D01*
X103138072Y-130992810D01*
X103138072Y-130835000D01*
X103129858Y-130751600D01*
X111647708Y-130751600D01*
X111649010Y-130758145D01*
G37*
G04 #@! TD.AperFunction*
D15*
X119340000Y-127657616D02*
X118785750Y-127660000D01*
X118627000Y-127818750D01*
X118627000Y-128618000D01*
X118647000Y-128618000D01*
X118647000Y-128872000D01*
X118627000Y-128872000D01*
X118627000Y-128892000D01*
X118373000Y-128892000D01*
X118373000Y-128872000D01*
X117023750Y-128872000D01*
X116865000Y-129030750D01*
X116861928Y-129195000D01*
X116874188Y-129319482D01*
X116892546Y-129380000D01*
X116874188Y-129440518D01*
X116861928Y-129565000D01*
X116861928Y-130465000D01*
X116870142Y-130548400D01*
X114751175Y-130548400D01*
X114714999Y-130544837D01*
X114678823Y-130548400D01*
X114678814Y-130548400D01*
X114570601Y-130559058D01*
X114431751Y-130601178D01*
X114303787Y-130669576D01*
X114191625Y-130761625D01*
X114168559Y-130789731D01*
X113236600Y-131721691D01*
X113236600Y-130990558D01*
X113284277Y-130919205D01*
X113350990Y-130758145D01*
X113385000Y-130587165D01*
X113385000Y-130412835D01*
X113350990Y-130241855D01*
X113284277Y-130080795D01*
X113187424Y-129935845D01*
X113064155Y-129812576D01*
X112919205Y-129715723D01*
X112758145Y-129649010D01*
X112673977Y-129632268D01*
X112561446Y-129519737D01*
X112538375Y-129491625D01*
X112426213Y-129399576D01*
X112298249Y-129331178D01*
X112159399Y-129289058D01*
X112051186Y-129278400D01*
X112051183Y-129278400D01*
X112015000Y-129274836D01*
X111978817Y-129278400D01*
X103129858Y-129278400D01*
X103138072Y-129195000D01*
X103135000Y-129030750D01*
X102976250Y-128872000D01*
X101627000Y-128872000D01*
X101627000Y-128892000D01*
X101373000Y-128892000D01*
X101373000Y-128872000D01*
X101353000Y-128872000D01*
X101353000Y-128618000D01*
X101373000Y-128618000D01*
X101373000Y-127818750D01*
X101627000Y-127818750D01*
X101627000Y-128618000D01*
X102976250Y-128618000D01*
X103135000Y-128459250D01*
X103138072Y-128295000D01*
X116861928Y-128295000D01*
X116865000Y-128459250D01*
X117023750Y-128618000D01*
X118373000Y-128618000D01*
X118373000Y-127818750D01*
X118214250Y-127660000D01*
X117500000Y-127656928D01*
X117375518Y-127669188D01*
X117255820Y-127705498D01*
X117145506Y-127764463D01*
X117048815Y-127843815D01*
X116969463Y-127940506D01*
X116910498Y-128050820D01*
X116874188Y-128170518D01*
X116861928Y-128295000D01*
X103138072Y-128295000D01*
X103125812Y-128170518D01*
X103089502Y-128050820D01*
X103030537Y-127940506D01*
X102951185Y-127843815D01*
X102854494Y-127764463D01*
X102744180Y-127705498D01*
X102624482Y-127669188D01*
X102500000Y-127656928D01*
X101785750Y-127660000D01*
X101627000Y-127818750D01*
X101373000Y-127818750D01*
X101214250Y-127660000D01*
X100660000Y-127657616D01*
X100660000Y-127377000D01*
X119340000Y-127377000D01*
X119340000Y-127657616D01*
G04 #@! TA.AperFunction,Conductor*
D16*
G36*
X119340000Y-127657616D02*
G01*
X118785750Y-127660000D01*
X118627000Y-127818750D01*
X118627000Y-128618000D01*
X118647000Y-128618000D01*
X118647000Y-128872000D01*
X118627000Y-128872000D01*
X118627000Y-128892000D01*
X118373000Y-128892000D01*
X118373000Y-128872000D01*
X117023750Y-128872000D01*
X116865000Y-129030750D01*
X116861928Y-129195000D01*
X116874188Y-129319482D01*
X116892546Y-129380000D01*
X116874188Y-129440518D01*
X116861928Y-129565000D01*
X116861928Y-130465000D01*
X116870142Y-130548400D01*
X114751175Y-130548400D01*
X114714999Y-130544837D01*
X114678823Y-130548400D01*
X114678814Y-130548400D01*
X114570601Y-130559058D01*
X114431751Y-130601178D01*
X114303787Y-130669576D01*
X114191625Y-130761625D01*
X114168559Y-130789731D01*
X113236600Y-131721691D01*
X113236600Y-130990558D01*
X113284277Y-130919205D01*
X113350990Y-130758145D01*
X113385000Y-130587165D01*
X113385000Y-130412835D01*
X113350990Y-130241855D01*
X113284277Y-130080795D01*
X113187424Y-129935845D01*
X113064155Y-129812576D01*
X112919205Y-129715723D01*
X112758145Y-129649010D01*
X112673977Y-129632268D01*
X112561446Y-129519737D01*
X112538375Y-129491625D01*
X112426213Y-129399576D01*
X112298249Y-129331178D01*
X112159399Y-129289058D01*
X112051186Y-129278400D01*
X112051183Y-129278400D01*
X112015000Y-129274836D01*
X111978817Y-129278400D01*
X103129858Y-129278400D01*
X103138072Y-129195000D01*
X103135000Y-129030750D01*
X102976250Y-128872000D01*
X101627000Y-128872000D01*
X101627000Y-128892000D01*
X101373000Y-128892000D01*
X101373000Y-128872000D01*
X101353000Y-128872000D01*
X101353000Y-128618000D01*
X101373000Y-128618000D01*
X101373000Y-127818750D01*
X101627000Y-127818750D01*
X101627000Y-128618000D01*
X102976250Y-128618000D01*
X103135000Y-128459250D01*
X103138072Y-128295000D01*
X116861928Y-128295000D01*
X116865000Y-128459250D01*
X117023750Y-128618000D01*
X118373000Y-128618000D01*
X118373000Y-127818750D01*
X118214250Y-127660000D01*
X117500000Y-127656928D01*
X117375518Y-127669188D01*
X117255820Y-127705498D01*
X117145506Y-127764463D01*
X117048815Y-127843815D01*
X116969463Y-127940506D01*
X116910498Y-128050820D01*
X116874188Y-128170518D01*
X116861928Y-128295000D01*
X103138072Y-128295000D01*
X103125812Y-128170518D01*
X103089502Y-128050820D01*
X103030537Y-127940506D01*
X102951185Y-127843815D01*
X102854494Y-127764463D01*
X102744180Y-127705498D01*
X102624482Y-127669188D01*
X102500000Y-127656928D01*
X101785750Y-127660000D01*
X101627000Y-127818750D01*
X101373000Y-127818750D01*
X101214250Y-127660000D01*
X100660000Y-127657616D01*
X100660000Y-127377000D01*
X119340000Y-127377000D01*
X119340000Y-127657616D01*
G37*
G04 #@! TD.AperFunction*
M02*
